{"glyphs":{"0":{"ha":623,"x_min":9,"x_max":549,"o":"m 109 81 q 27 139 54 81 q 9 248 9 180 q 37 462 9 334 q 233 882 103 751 q 351 959 288 938 q 363 964 357 961 q 429 984 398 984 q 501 951 469 984 q 549 810 549 903 q 524 648 549 740 q 334 262 475 465 q 251 160 288 195 q 109 81 172 81 m 112 121 q 121 121 117 121 q 128 123 124 122 q 231 193 175 135 q 283 254 256 216 q 507 718 465 496 q 517 810 517 770 q 500 900 517 865 q 486 922 492 916 l 428 920 q 329 888 378 917 l 318 881 q 296 848 310 873 q 225 678 253 772 q 197 519 197 585 q 212 452 197 472 q 218 445 215 451 q 220 443 219 444 q 222 439 220 442 l 222 438 q 223 438 223 438 q 224 436 223 437 q 227 433 226 435 q 231 427 229 429 q 221 416 226 422 q 217 420 220 418 q 214 422 215 422 l 205 429 q 193 441 195 438 q 166 533 166 471 q 169 575 166 553 q 238 803 182 678 l 241 810 l 241 810 q 239 809 240 810 q 233 801 237 807 q 224 789 229 795 q 216 778 219 782 q 73 412 123 646 q 50 241 50 311 q 112 121 50 121 z "},"1":{"ha":515,"x_min":-75,"x_max":562,"o":"m -53 71 q -64 72 -62 71 q -68 81 -65 73 q -71 92 -68 85 q -74 104 -73 99 q -75 111 -75 110 q -66 121 -75 116 q -44 128 -57 125 q 107 150 -18 133 l 123 152 l 123 153 l 124 154 q 147 209 130 172 l 190 298 l 323 581 l 373 684 l 437 820 q 444 835 444 832 l 444 835 q 372 777 418 812 q 223 688 289 715 q 181 676 201 680 l 174 691 l 165 711 q 180 724 170 716 q 220 746 189 729 l 252 764 l 298 790 q 377 844 345 821 q 422 879 408 867 q 429 884 426 882 q 511 964 483 928 q 517 972 513 967 l 517 972 q 542 989 528 989 q 556 984 550 989 q 562 968 562 978 q 544 935 562 960 q 410 684 519 904 q 263 380 339 541 q 192 228 214 277 l 166 174 q 157 156 157 159 l 274 170 q 354 180 349 180 q 365 178 361 180 q 371 175 370 177 q 373 167 372 172 q 374 160 374 162 q 374 158 374 159 q 369 153 374 156 q 358 149 363 151 l 352 147 q 314 143 340 145 q 175 124 239 135 q 130 115 132 117 l 126 114 q 115 113 122 114 l 82 105 q -24 77 17 90 l -43 71 l -53 71 z "},"2":{"ha":563,"x_min":-67,"x_max":507,"o":"m -56 71 q -63 75 -60 71 q -67 86 -67 81 q -36 112 -64 98 l -28 117 q -28 123 -28 117 q -26 140 -27 132 q 10 199 -21 160 q 92 290 35 229 l 185 387 q 352 568 322 528 q 401 640 374 597 q 469 820 469 742 q 447 892 469 868 q 393 916 428 913 l 389 916 q 348 911 369 916 q 298 888 318 903 q 213 764 238 850 q 193 656 203 736 l 192 652 q 191 644 191 646 q 190 637 190 643 q 183 614 186 621 l 180 614 q 163 615 172 614 q 146 616 154 616 q 140 659 140 618 q 143 703 140 680 q 196 852 155 787 q 372 959 261 951 l 382 960 q 475 921 439 960 q 507 833 506 887 l 507 813 q 429 620 503 730 q 384 556 407 587 q 285 445 357 520 l 208 364 q 94 245 130 285 q 30 171 58 206 l 25 165 q 5 139 16 155 l 1 132 l 33 148 q 173 218 129 197 q 417 304 353 304 q 452 296 446 304 q 452 283 452 294 q 451 256 452 259 q 410 248 445 248 q 321 233 370 246 q -14 87 186 196 q -56 71 -43 71 z "},"3":{"ha":563,"x_min":-95,"x_max":496,"o":"m -29 115 q -79 125 -59 115 q -92 138 -88 130 l -93 138 q -95 150 -95 143 q -94 161 -95 157 q -31 238 -85 191 q 71 311 12 275 q 247 391 157 363 q 357 414 307 410 q 359 416 358 414 q 365 425 361 417 q 401 529 399 480 l 401 536 q 385 579 401 565 q 304 604 359 604 q 266 601 286 604 q 136 562 216 595 q 91 544 98 547 q 79 542 83 542 l 61 575 l 63 578 q 103 606 77 590 q 134 624 113 610 l 149 633 q 273 718 202 667 q 389 806 345 769 q 431 850 410 824 q 460 909 460 887 l 460 913 q 436 935 458 928 q 398 940 424 940 q 328 929 366 940 q 205 860 252 906 q 172 804 180 836 l 170 799 q 166 781 168 793 q 157 753 161 753 q 151 754 156 753 q 138 755 146 754 q 126 756 131 755 q 120 756 121 756 q 117 762 119 756 q 114 788 114 770 q 200 921 114 861 q 359 978 269 967 q 390 979 372 979 q 414 979 404 979 q 492 934 477 971 q 496 911 496 922 q 430 799 495 863 l 416 787 q 370 750 406 777 q 254 665 317 710 l 232 650 l 241 651 q 294 654 266 654 q 408 623 370 654 q 446 540 446 591 q 406 412 446 477 l 408 412 q 409 408 408 412 q 410 401 409 405 l 410 398 q 407 396 410 396 q 404 395 405 395 q 400 393 404 394 q 394 392 396 392 q 391 389 393 391 q 217 220 328 300 q 3 117 98 136 q -29 115 -14 115 m -19 147 l -7 149 q 195 249 82 165 q 323 366 267 302 q 334 380 334 378 q 298 372 330 380 q 63 269 174 341 q -56 166 -23 212 q -62 152 -62 156 q -56 150 -61 151 q -47 148 -52 149 q -34 147 -43 147 l -19 147 z "},"4":{"ha":628,"x_min":-52,"x_max":579,"o":"m 327 67 l 320 67 q 299 71 303 70 q 279 113 279 81 q 320 296 279 163 l 343 372 l 340 370 l 296 359 q 37 284 141 320 q -33 265 -21 265 q -40 266 -37 265 q -52 281 -52 271 q -50 290 -52 286 q -22 323 -45 299 q 41 382 3 348 l 66 404 q 167 498 114 445 q 408 760 322 652 q 498 886 450 812 q 539 944 534 937 q 546 950 543 948 l 579 932 l 578 930 q 572 907 578 921 q 574 888 574 897 q 564 849 574 875 l 551 817 q 400 437 441 558 l 393 415 l 398 416 q 444 425 417 420 q 524 433 491 433 q 562 429 548 433 l 564 428 q 565 427 565 428 q 565 422 565 425 q 566 413 566 418 q 563 413 564 413 q 562 412 562 412 l 559 412 q 490 399 555 408 l 434 391 l 380 380 l 369 347 q 313 119 314 180 q 314 99 313 100 q 321 94 315 97 q 338 82 332 89 q 334 68 335 70 q 327 67 334 67 m 18 311 l 33 317 q 275 387 140 353 l 349 405 q 355 407 354 406 l 448 682 l 461 719 q 475 762 475 761 l 472 758 q 186 463 388 654 q 93 380 138 417 q 18 315 37 332 l 15 311 l 18 311 z "},"5":{"ha":579,"x_min":1,"x_max":642,"o":"m 56 121 q 1 170 7 123 l 1 177 q 3 203 1 199 q 3 205 3 203 q 14 208 3 207 q 18 207 18 208 q 20 204 18 206 q 26 184 22 202 l 32 168 q 58 153 38 153 q 132 177 83 153 q 200 222 165 195 q 326 330 269 273 q 439 463 393 396 q 471 517 458 490 q 494 588 494 564 q 491 599 494 597 q 481 602 489 602 q 407 577 458 602 q 267 505 319 533 q 148 429 210 473 q 122 412 139 422 l 112 408 l 87 437 q 92 446 89 443 q 96 452 95 450 q 96 456 96 454 q 103 480 97 464 q 133 555 109 497 q 222 787 186 690 q 237 827 231 814 l 238 832 l 237 832 q 189 823 200 823 q 174 826 177 823 q 172 832 174 827 q 171 839 171 838 q 212 859 171 850 q 252 869 250 867 q 262 900 254 870 q 279 935 271 930 q 281 935 280 935 q 300 930 283 935 l 318 926 q 320 912 320 916 q 315 884 320 905 l 338 889 q 511 937 416 908 q 530 942 524 940 q 554 949 536 945 l 572 955 q 602 964 591 961 q 619 966 612 966 q 633 963 629 966 q 635 957 633 962 q 637 945 636 951 q 640 934 639 938 q 641 929 641 930 q 642 926 642 927 l 642 925 q 599 907 635 913 q 354 859 479 886 q 299 846 301 848 q 271 791 296 842 q 173 570 229 705 q 143 494 144 502 l 152 500 q 329 589 195 528 l 393 619 q 480 642 447 642 l 489 642 q 532 590 532 634 q 530 568 532 580 q 484 465 518 519 q 251 222 399 341 q 56 121 126 121 z "},"6":{"ha":546,"x_min":1,"x_max":451,"o":"m 121 102 q 49 133 78 102 q 14 223 18 168 l 14 226 q 12 231 13 231 q 9 231 12 231 q 3 233 7 232 l 1 245 q 35 376 1 299 l 43 398 q 90 509 62 453 q 233 738 136 604 q 255 769 247 758 q 308 842 262 781 q 365 909 349 893 q 405 937 389 932 l 431 909 l 431 907 q 386 850 429 894 q 329 790 351 816 q 274 724 308 767 q 155 560 197 629 l 138 532 q 146 539 139 532 q 311 617 225 611 l 323 618 q 410 590 374 618 q 450 515 442 563 q 451 491 451 508 q 450 471 451 479 q 411 351 442 414 q 305 204 370 271 q 197 123 252 151 q 121 102 157 102 m 127 134 q 217 171 164 136 q 345 303 289 221 q 414 470 403 391 q 415 492 415 480 l 414 506 q 351 574 406 563 q 327 577 340 577 q 229 546 281 577 q 180 505 204 530 q 75 328 113 437 l 54 258 q 49 245 51 250 q 45 228 45 237 q 58 174 45 201 q 106 135 76 142 q 111 134 109 134 q 115 134 113 134 l 127 134 z "},"7":{"ha":369,"x_min":0,"x_max":489,"o":"m 77 85 l 75 85 q 62 87 62 85 q 61 88 62 88 q 60 90 61 88 q 58 107 58 98 l 57 122 q 117 345 57 197 q 323 776 202 558 l 330 787 q 377 868 347 819 q 402 913 401 910 l 376 909 q 74 835 174 873 q 49 821 57 829 q 30 810 35 810 q 0 836 28 810 l 0 840 q 16 867 1 852 q 59 885 26 877 q 128 899 83 891 l 428 949 q 449 965 437 958 q 463 971 458 970 q 466 969 464 971 q 480 955 469 968 q 489 942 489 944 q 488 939 489 940 q 481 928 488 937 q 447 880 467 911 l 422 842 q 146 333 256 605 q 93 158 104 229 q 77 87 82 87 l 77 86 l 77 85 z "},"8":{"ha":538,"x_min":2,"x_max":513,"o":"m 91 96 l 81 96 q 23 119 44 98 q 2 174 3 140 l 2 180 q 39 300 2 229 q 94 387 58 338 q 256 553 168 483 l 288 577 q 224 643 246 618 q 150 790 150 725 q 189 879 150 840 q 335 939 247 939 q 357 938 347 939 q 507 806 477 919 q 513 757 513 783 q 409 486 513 641 l 412 478 q 425 417 425 448 q 357 250 425 335 q 229 140 305 186 q 91 96 151 96 m 94 138 q 176 159 130 138 q 306 250 248 191 q 388 399 378 325 q 389 416 389 406 q 387 438 389 427 q 385 450 385 450 q 380 445 383 450 q 335 389 361 419 q 272 324 302 351 q 254 309 255 309 q 253 309 254 309 q 251 307 252 308 q 248 305 250 305 l 238 315 q 241 319 241 318 q 242 321 241 321 q 242 322 242 321 q 244 323 243 322 q 245 326 245 325 q 298 393 252 335 q 353 463 329 431 q 369 485 369 484 q 366 491 369 486 q 358 501 362 495 q 347 514 354 507 q 334 529 340 522 q 327 536 328 536 q 298 517 326 536 q 132 355 206 448 q 75 267 94 309 q 46 176 46 212 q 50 156 46 164 q 94 138 60 138 m 391 516 l 397 527 q 427 578 415 554 l 441 606 q 427 598 440 606 q 368 564 395 581 l 357 557 q 363 549 357 555 q 386 522 376 534 q 391 516 389 517 m 316 597 l 321 600 q 356 621 337 610 q 429 653 396 642 q 460 663 451 661 l 463 663 q 464 662 464 663 q 471 686 465 662 q 481 756 481 724 l 481 771 q 402 892 473 858 q 336 907 371 907 q 313 907 323 907 q 208 852 248 897 q 182 792 182 822 q 203 725 182 761 q 251 663 218 699 q 287 626 258 656 q 316 597 315 597 z "},"9":{"ha":502,"x_min":-20,"x_max":503,"o":"m 145 102 l 134 102 q 18 242 70 102 q -20 375 -14 330 l -20 381 l -20 390 l -6 394 l -5 393 q 28 316 9 374 q 59 224 47 254 q 136 134 98 134 l 139 134 q 277 311 191 134 q 418 762 367 494 l 425 794 q 419 786 424 794 q 317 648 383 722 q 173 530 240 564 q 101 509 132 509 q 85 511 92 509 q 33 595 33 524 q 97 791 33 674 q 238 925 170 925 q 317 870 283 925 q 356 755 349 817 l 357 747 q 376 776 357 747 q 428 873 397 809 q 441 902 436 891 q 449 921 447 913 q 464 956 458 950 l 491 951 q 499 949 498 950 q 502 947 501 949 q 503 935 503 945 q 500 907 503 920 q 456 709 494 855 l 447 670 q 245 187 363 365 q 145 102 191 106 m 104 543 l 114 544 q 220 598 161 553 q 310 688 261 633 q 313 693 313 692 q 313 694 313 694 q 309 704 313 694 l 307 716 l 306 722 q 250 872 289 844 q 236 876 243 876 q 131 766 195 876 q 89 682 105 723 q 68 591 68 629 q 85 546 68 556 q 104 543 93 543 z "},"\u0000":{"ha":34,"x_min":0,"x_max":0,"o":""},"\u001d":{"ha":34,"x_min":0,"x_max":0,"o":""}," ":{"ha":422,"x_min":0,"x_max":0,"o":""}," ":{"ha":422,"x_min":0,"x_max":0,"o":""},"A":{"ha":1799,"x_min":1,"x_max":1816,"o":"m 109 -94 l 78 -94 q 4 -45 20 -87 q 1 -20 1 -33 l 1 -8 q 140 165 14 68 q 646 418 309 292 q 831 483 742 454 l 844 486 l 919 555 q 1375 945 1257 865 q 1492 1004 1456 1004 q 1516 995 1508 1004 q 1525 971 1525 986 q 1519 937 1525 958 q 1461 760 1509 899 q 1411 612 1411 614 q 1431 612 1411 612 l 1448 612 q 1468 611 1458 612 q 1503 608 1484 610 l 1512 607 l 1512 595 l 1511 568 l 1466 566 l 1425 562 q 1394 559 1395 559 q 1392 552 1394 559 q 1315 183 1315 308 q 1382 59 1315 66 l 1394 58 q 1616 157 1468 58 q 1731 237 1666 189 l 1764 262 q 1798 287 1780 273 q 1809 291 1804 291 q 1816 285 1815 291 q 1811 277 1816 281 q 1802 267 1807 272 q 1721 196 1775 240 q 1623 123 1674 158 q 1394 26 1480 26 q 1312 64 1341 26 q 1284 184 1284 102 q 1341 495 1284 296 q 1359 553 1356 543 l 1359 554 l 1333 550 q 985 473 1174 524 q 840 431 899 450 l 831 429 l 805 405 q 416 56 505 127 q 259 -49 339 -9 q 124 -94 188 -84 l 109 -94 m 97 -55 l 109 -54 q 378 73 227 -43 q 623 286 446 126 q 751 402 747 398 q 747 401 749 402 q 743 400 745 401 q 736 397 741 399 l 710 389 q 262 193 435 293 q 87 60 144 124 q 41 -22 41 9 q 97 -55 41 -53 m 920 510 l 925 512 q 1068 551 979 528 q 1376 609 1241 597 q 1413 715 1377 611 l 1434 777 q 1489 945 1480 911 q 1493 971 1493 965 q 1492 973 1493 973 q 1396 921 1468 973 q 956 544 1273 835 q 920 511 920 511 l 920 510 z "},"B":{"ha":1645,"x_min":3,"x_max":1666,"o":"m 570 -117 q 553 -116 560 -117 q 500 -79 500 -109 q 503 -67 500 -74 q 675 43 519 -24 q 901 126 759 77 q 1255 234 1093 193 q 1270 239 1265 236 q 1278 250 1273 240 q 1282 266 1282 260 q 1278 275 1282 271 q 1166 297 1256 297 q 1024 276 1095 296 q 761 163 897 240 l 707 130 q 628 79 663 103 l 606 66 q 604 67 606 66 q 600 72 602 68 q 595 77 598 75 q 582 92 582 80 q 583 99 582 96 q 621 137 588 110 q 628 142 625 139 q 644 160 631 146 l 679 201 q 686 210 686 209 l 679 210 q 661 214 668 212 q 599 241 625 224 q 562 289 569 262 q 561 294 562 292 q 560 298 560 296 q 567 330 560 316 q 621 380 579 355 q 691 414 644 393 q 748 442 724 430 q 930 559 824 480 l 944 571 l 968 589 l 975 599 q 1021 650 1007 645 q 1027 646 1023 650 q 1038 639 1032 643 q 1048 631 1044 635 q 1053 627 1053 627 q 1045 606 1053 621 q 962 494 1029 574 l 946 474 q 887 401 924 449 l 772 264 q 757 245 758 247 q 755 243 755 243 q 755 242 755 243 q 793 250 760 242 l 817 256 l 842 264 q 944 304 892 286 q 1009 333 966 312 q 1096 378 1053 354 q 1480 697 1379 538 q 1516 800 1514 753 l 1516 810 q 1492 886 1516 851 q 1472 911 1485 898 q 1183 1000 1388 1000 q 946 975 1076 1000 q 625 875 781 941 q 165 559 320 745 q 71 391 102 479 q 48 283 55 344 l 47 275 q 46 265 46 267 q 45 261 46 263 l 45 257 q 6 258 20 257 q 4 279 6 263 q 3 292 4 285 q 3 305 3 298 q 60 501 3 399 q 294 747 136 633 q 671 940 452 861 q 1085 1034 884 1017 q 1174 1038 1130 1038 q 1469 962 1373 1038 q 1551 809 1551 897 q 1474 630 1551 726 q 1313 479 1413 555 q 1113 351 1223 412 l 1094 340 l 1098 340 l 1108 341 q 1166 344 1138 344 q 1304 311 1267 344 q 1326 264 1326 292 q 1325 256 1326 260 q 1324 252 1325 253 l 1324 252 l 1331 253 q 1604 292 1497 292 q 1646 290 1626 292 q 1666 278 1666 288 q 1659 271 1666 273 q 1636 268 1652 269 q 1350 224 1492 256 l 1311 216 q 1306 214 1306 214 q 1304 211 1306 213 q 1194 114 1276 169 q 1055 33 1131 71 q 676 -102 886 -54 q 570 -117 611 -117 m 581 -83 q 718 -56 624 -81 q 1169 146 984 17 q 1231 195 1207 173 l 1233 196 l 1198 186 q 711 23 946 115 q 546 -65 590 -25 q 534 -77 534 -75 q 545 -81 534 -79 q 564 -83 555 -83 l 581 -83 m 724 205 l 726 207 q 724 205 725 207 m 706 239 q 714 244 709 239 l 725 258 q 883 466 814 370 l 913 508 l 899 497 q 813 441 857 467 q 706 387 775 418 l 656 363 q 591 302 591 330 l 592 298 q 628 260 597 277 q 706 239 663 241 z "},"C":{"ha":1139,"x_min":22,"x_max":1157,"o":"m 353 -53 l 328 -53 q 205 -29 260 -53 q 59 100 105 14 q 22 257 22 170 q 92 524 22 379 q 332 829 178 696 q 578 981 447 927 q 746 1026 667 1016 q 774 1027 760 1027 q 868 995 838 1027 q 894 940 889 974 q 896 915 896 930 q 894 888 896 899 q 883 838 890 862 q 791 654 857 753 q 646 480 726 556 q 475 389 547 389 q 405 425 429 389 q 393 445 401 431 q 387 458 387 456 q 388 460 387 459 q 404 470 389 461 q 418 479 418 479 q 433 463 420 479 q 451 446 443 451 q 469 441 458 441 q 575 493 509 441 q 709 630 642 546 q 836 848 802 747 q 849 917 849 886 q 835 964 849 951 q 772 984 817 984 q 662 965 730 984 q 377 817 513 924 q 138 537 229 697 q 55 255 55 382 q 151 39 55 115 q 243 -10 194 6 q 330 -22 281 -22 q 842 139 505 -22 q 972 205 906 170 q 1104 270 1092 264 l 1140 288 q 1149 290 1145 290 q 1157 284 1156 290 q 1082 230 1157 276 l 1057 214 q 947 155 1009 186 q 457 -38 645 3 q 353 -53 391 -52 z "},"D":{"ha":1378,"x_min":5,"x_max":1348,"o":"m 408 -54 q 334 -39 366 -54 q 263 45 263 -9 q 322 149 264 94 q 429 227 364 191 l 460 243 q 489 257 478 252 l 498 286 q 542 430 519 353 q 557 499 557 484 q 555 510 557 505 q 545 515 554 515 q 505 507 531 515 q 371 454 479 498 l 252 404 q 155 363 187 377 l 127 351 q 60 335 87 335 q 29 342 42 335 q 5 389 5 358 q 9 414 5 401 q 20 439 13 427 l 21 442 l 26 457 q 148 654 59 555 l 168 674 q 456 889 292 800 q 869 1029 666 1002 q 917 1034 897 1033 q 968 1035 937 1035 q 1267 937 1157 1035 q 1348 760 1348 866 q 1302 583 1348 682 q 1062 268 1222 419 q 775 63 940 157 q 648 1 713 28 q 454 -53 538 -44 q 408 -54 431 -54 m 420 -23 q 636 31 509 -22 q 863 155 748 77 q 1137 395 1027 263 q 1265 589 1221 496 q 1310 756 1310 682 l 1310 764 q 1256 893 1308 841 q 1031 990 1175 976 q 974 992 1008 992 q 713 948 854 992 q 420 810 563 900 q 81 458 182 658 q 67 428 67 429 q 64 412 67 427 q 61 388 61 397 q 141 410 85 388 l 198 430 l 401 505 q 444 522 418 511 q 477 533 465 530 q 543 547 518 547 q 583 527 574 547 q 588 501 588 517 q 589 492 588 492 q 610 549 589 492 q 627 594 616 564 q 639 628 637 625 q 644 642 641 632 q 657 678 648 652 l 684 751 q 707 812 703 804 q 730 854 720 841 q 739 863 736 863 l 774 848 q 773 835 774 838 q 751 774 769 812 q 636 507 703 667 l 584 381 q 545 282 546 287 l 592 302 q 915 372 779 372 q 1052 346 998 372 q 1058 343 1057 343 q 1059 342 1059 343 l 1059 339 q 1056 331 1057 332 l 1055 329 l 1024 334 q 985 340 1002 339 q 938 342 968 342 q 903 342 916 342 q 576 260 753 332 q 528 240 531 243 l 521 224 l 495 161 q 468 98 475 112 q 454 80 460 85 q 442 75 449 75 q 437 75 439 75 q 427 90 427 81 q 429 98 427 94 q 434 111 430 102 q 445 135 437 119 q 458 163 452 150 q 465 178 465 176 q 467 181 466 179 q 468 188 467 183 q 470 197 469 192 q 472 206 471 202 q 474 212 473 210 l 475 214 q 447 200 473 214 q 340 123 380 163 q 294 44 294 77 q 326 -1 295 18 q 402 -23 357 -20 l 420 -23 z "},"E":{"ha":1440,"x_min":0,"x_max":1458,"o":"m 498 -27 l 473 -27 q 341 14 378 -26 q 312 88 312 41 q 339 195 312 134 q 379 270 360 240 q 500 441 417 330 q 503 445 501 443 q 505 448 504 448 q 389 401 500 448 q 277 352 317 370 l 215 323 l 182 309 q 131 295 146 295 q 127 296 129 295 q 121 309 126 297 l 113 330 l 115 332 q 149 355 121 341 q 203 378 167 364 l 224 386 q 324 423 267 402 l 467 476 l 515 493 l 526 497 q 543 503 541 501 q 553 512 545 504 q 620 599 595 569 q 713 690 678 669 l 718 692 l 737 672 q 744 665 744 665 q 743 663 744 664 q 742 661 742 663 q 721 633 740 656 q 684 588 702 610 l 641 536 l 645 537 l 707 557 q 946 610 876 610 q 970 608 961 610 q 1019 578 1010 604 q 1022 563 1022 572 q 1006 522 1022 545 q 994 509 1000 513 l 992 507 q 986 510 989 509 q 981 512 983 511 q 979 518 979 513 q 987 547 979 526 q 989 562 989 556 l 989 564 q 949 578 988 577 q 610 489 856 578 l 598 485 l 580 463 q 547 421 554 431 q 416 246 454 302 q 391 203 404 227 q 352 86 352 132 q 363 46 352 62 q 485 9 391 9 q 811 68 606 9 q 1310 250 1030 132 q 1406 285 1364 272 q 1448 299 1447 298 q 1451 299 1449 299 q 1456 297 1454 299 q 1458 292 1458 295 q 1453 285 1458 288 l 1442 279 q 1417 264 1433 273 q 1238 185 1375 239 q 519 -26 751 -8 l 498 -27 m 9 576 l 5 576 l 0 589 q 45 617 10 600 q 133 656 66 629 q 234 698 199 684 l 311 730 l 478 795 q 526 814 507 807 q 848 927 692 878 q 1135 997 1021 981 l 1144 998 q 1212 1002 1173 1002 q 1236 1001 1225 1002 q 1330 966 1300 995 q 1354 905 1354 941 q 1348 868 1354 885 l 1310 868 q 1304 895 1307 879 q 1292 925 1301 916 q 1187 950 1263 950 q 899 901 1080 949 q 841 884 869 893 l 770 863 q 654 825 709 844 l 620 813 q 436 745 544 787 q 123 617 267 680 q 9 576 37 580 z "},"F":{"ha":1187,"x_min":0,"x_max":1572,"o":"m 502 -129 l 497 -128 q 486 -111 486 -123 q 498 -52 486 -98 q 507 -5 502 -39 l 517 58 q 538 208 535 148 q 540 248 540 219 q 511 380 540 340 q 495 398 505 389 q 476 411 486 406 l 450 406 q 347 380 378 389 q 280 368 298 368 q 273 369 275 368 q 270 369 271 369 q 269 369 270 369 q 268 370 269 370 q 267 371 267 370 q 264 379 266 373 l 263 383 q 264 385 263 384 q 264 386 264 385 q 264 387 264 386 q 267 390 264 389 q 270 393 269 392 q 296 410 278 399 q 433 451 368 451 q 473 446 454 451 l 480 444 l 625 477 q 663 486 663 484 l 680 539 q 772 811 734 704 l 791 863 l 797 880 l 782 876 q 104 632 457 779 q 12 602 35 604 l 7 601 q 0 614 5 601 q 1 615 0 615 q 3 616 3 616 q 14 624 3 617 q 144 684 43 643 q 798 918 499 825 l 815 922 l 823 939 q 841 971 834 962 q 844 976 844 975 q 844 977 844 977 l 880 962 q 879 953 880 956 q 878 946 878 949 q 877 942 877 943 l 877 941 l 884 943 l 1012 979 q 1416 1058 1262 1044 q 1461 1060 1441 1060 q 1571 1014 1560 1060 q 1572 994 1572 1009 q 1570 978 1572 983 l 1533 972 q 1531 976 1532 975 q 1527 987 1529 978 q 1522 997 1524 996 q 1448 1004 1511 1004 l 1413 1004 q 983 930 1246 995 q 865 899 890 907 q 863 897 863 899 l 840 837 l 816 773 q 773 661 784 691 l 770 654 q 749 597 758 623 q 745 584 748 592 l 723 522 l 714 496 l 849 526 q 959 549 867 529 q 1065 572 1027 565 q 1117 576 1093 576 q 1135 576 1132 576 q 1143 574 1139 575 l 1147 535 q 1069 517 1127 523 q 836 481 1006 510 q 710 459 767 470 l 700 458 l 633 262 q 577 92 604 176 q 524 -92 528 -60 l 520 -106 q 518 -114 519 -113 q 517 -119 518 -115 q 513 -124 515 -122 q 502 -129 508 -129 m 569 189 l 582 228 l 631 385 l 651 448 l 541 426 q 519 420 519 421 q 524 414 519 419 q 568 309 559 379 q 571 248 571 283 q 570 199 571 222 l 569 189 z "},"G":{"ha":1333,"x_min":0,"x_max":1274,"o":"m 791 -446 l 777 -446 l 777 -443 q 776 -441 777 -443 q 774 -432 775 -440 q 773 -413 774 -423 q 772 -393 772 -403 q 798 -213 772 -321 q 855 -7 817 -121 q 1088 449 960 304 q 1091 453 1091 452 q 1068 438 1090 453 q 869 297 986 382 q 568 92 674 156 q 294 -43 405 -8 q 161 -65 220 -65 q 123 -62 140 -65 q 11 18 37 -50 q 0 90 0 43 q 1 123 0 110 q 118 405 14 243 q 475 774 261 627 q 703 895 585 849 q 859 937 791 930 q 916 941 883 941 q 1059 909 999 941 q 1146 762 1146 859 q 1135 694 1146 731 q 1121 656 1126 667 l 1120 653 l 1118 652 l 1113 654 q 1099 658 1102 658 q 1089 661 1093 660 q 1084 662 1085 662 q 1082 663 1082 663 l 1084 683 q 1092 750 1091 717 q 1025 865 1092 832 q 909 888 978 888 q 742 858 829 888 q 452 705 591 806 q 139 370 264 565 q 39 145 57 240 q 34 81 34 117 q 65 -3 35 20 q 162 -33 97 -33 q 309 -5 226 -33 q 686 206 457 48 q 886 349 760 257 q 1070 477 1049 467 l 1078 484 l 1067 483 q 1041 479 1060 481 q 741 437 837 456 q 617 407 668 423 q 549 374 559 389 q 534 355 539 359 l 532 351 q 505 365 511 362 q 499 369 499 368 q 498 370 498 369 q 502 384 498 374 q 508 400 505 393 q 642 471 530 446 q 854 505 728 491 l 888 508 l 956 515 l 1192 537 l 1201 542 q 1247 558 1229 558 q 1272 543 1265 558 l 1272 543 q 1273 539 1273 541 q 1274 533 1274 537 q 1267 517 1274 524 q 1211 500 1259 508 l 1199 498 q 1165 475 1180 487 q 1131 444 1150 463 q 937 122 1029 343 q 817 -277 852 -83 q 800 -407 807 -337 l 796 -427 q 793 -442 793 -441 q 793 -443 793 -442 l 792 -444 l 792 -446 q 791 -446 792 -446 z "},"H":{"ha":1348,"x_min":0,"x_max":1522,"o":"m 989 -29 q 983 -27 989 -29 q 977 -24 977 -26 l 976 -20 q 986 33 976 -2 q 1070 252 1002 83 q 1147 436 1123 381 l 1149 439 l 1127 435 q 868 357 1025 415 l 829 343 q 638 69 703 123 q 603 48 622 56 q 598 46 601 47 q 595 45 596 45 q 594 44 594 45 q 592 44 593 44 q 591 46 592 45 q 589 49 590 47 q 587 53 588 51 l 585 55 l 585 56 q 587 58 585 56 q 602 73 588 60 q 656 134 623 90 q 754 279 708 204 q 781 325 781 322 l 708 296 q 628 263 648 272 l 442 183 q 395 170 410 170 l 388 170 l 374 205 q 451 246 384 221 l 551 283 q 793 369 736 349 q 810 374 808 374 q 835 416 812 375 q 995 750 943 611 q 1023 866 1023 825 q 1012 919 1023 898 q 890 971 985 971 l 858 970 q 739 946 802 964 q 429 809 608 906 q 86 563 191 678 q 62 532 71 545 q 47 503 53 519 q 36 482 38 482 q 1 492 34 482 q 0 498 0 492 q 7 537 1 518 q 95 650 24 589 q 543 914 257 785 q 719 981 644 958 q 886 1007 814 1007 q 913 1006 900 1007 q 1055 892 1040 996 l 1055 889 q 1057 865 1057 878 q 1056 849 1057 855 l 1056 844 q 863 402 1038 723 q 857 390 857 391 l 935 416 q 1164 473 1100 467 l 1177 502 q 1428 961 1342 874 q 1478 993 1454 987 q 1501 996 1491 996 q 1514 994 1507 996 l 1522 957 q 1504 947 1518 954 q 1482 936 1490 941 q 1348 755 1427 890 l 1329 724 l 1324 714 l 1301 673 l 1275 624 q 1226 526 1246 568 q 1203 477 1203 478 l 1209 477 q 1281 460 1257 477 q 1301 439 1291 452 q 1308 423 1307 429 q 1297 413 1299 413 l 1295 414 q 1276 425 1290 415 q 1234 444 1255 441 q 1200 444 1226 444 q 1188 444 1189 444 q 1182 431 1187 443 q 1034 71 1093 239 q 1004 -7 1012 10 q 994 -25 998 -20 q 989 -29 990 -29 z "},"I":{"ha":551,"x_min":3,"x_max":751,"o":"m 29 -50 q 9 -39 18 -50 q 3 -23 3 -32 q 17 1 3 -7 q 37 8 22 4 q 68 16 53 13 q 125 23 87 19 q 132 24 131 23 q 134 28 134 26 q 151 82 136 50 q 251 340 180 148 q 349 609 307 488 l 397 753 l 423 832 q 463 950 452 923 q 466 960 465 956 q 468 965 467 964 q 467 966 468 966 l 466 966 q 276 927 356 949 q 257 922 263 923 q 237 921 250 921 q 232 922 233 921 q 229 924 231 923 q 220 961 224 943 q 250 978 228 971 q 390 995 277 983 l 505 1006 q 555 1010 522 1007 q 694 1018 652 1018 q 722 1016 715 1018 q 737 1008 729 1014 q 751 994 751 998 q 749 987 751 991 q 745 981 747 982 q 737 979 743 979 q 718 983 730 979 q 683 987 709 987 q 579 980 650 987 q 522 974 525 975 q 520 958 522 966 q 517 943 519 949 q 503 899 514 928 q 445 751 496 884 l 436 726 q 414 669 426 704 l 368 553 l 338 475 q 295 363 330 457 l 242 228 q 181 71 188 85 q 165 28 165 32 l 180 30 q 313 43 271 43 q 365 31 349 43 q 372 23 372 26 q 355 5 372 5 q 338 8 347 5 q 306 12 328 12 q 125 -18 247 12 q 66 -36 73 -31 q 46 -48 60 -45 q 29 -50 38 -50 z "},"J":{"ha":965,"x_min":20,"x_max":1141,"o":"m 284 -40 q 245 -37 262 -40 q 58 82 118 -21 q 31 194 31 131 q 51 311 31 248 q 289 608 117 499 q 530 678 408 678 q 630 665 581 678 q 666 653 653 659 q 670 651 669 651 q 671 650 671 651 l 666 636 l 665 636 q 663 637 665 637 q 624 640 647 637 q 541 646 582 646 q 400 626 464 646 q 173 469 260 578 q 66 234 83 359 q 64 200 64 222 q 89 99 64 139 q 170 22 119 50 q 286 -5 221 -5 q 321 -4 309 -5 q 434 27 376 1 q 795 452 610 106 q 960 807 887 623 q 1013 937 994 892 q 1017 947 1017 944 q 967 940 1013 947 q 627 874 842 921 l 605 869 q 353 810 484 842 l 199 770 l 115 746 q 75 735 89 738 q 68 733 71 734 q 65 731 66 732 q 64 728 65 730 q 61 723 63 726 l 22 723 l 22 726 q 20 743 20 732 q 21 756 20 751 q 38 777 24 768 q 85 793 52 785 q 355 852 148 809 l 471 876 l 543 890 l 585 899 l 662 914 q 1023 979 902 962 q 1035 981 1034 981 q 1036 982 1036 981 q 1037 983 1036 983 l 1043 982 l 1055 983 q 1097 986 1080 986 q 1133 983 1120 986 q 1139 981 1139 981 q 1140 980 1139 980 q 1141 979 1141 980 q 1139 966 1141 972 q 1133 962 1139 964 l 1132 962 q 1085 954 1122 958 q 1070 952 1075 954 l 1068 952 l 1064 937 q 998 764 1044 868 q 851 466 932 611 q 515 34 678 150 q 393 -24 457 -5 q 284 -40 338 -40 z "},"K":{"ha":1830,"x_min":-20,"x_max":1714,"o":"m 789 -75 q 779 -74 784 -75 q 802 20 779 -37 q 854 125 821 67 l 859 134 q 848 132 857 134 q 811 123 827 127 l 774 114 q 739 110 755 110 q 721 111 726 110 q 714 113 717 112 q 711 114 711 114 q 711 115 711 115 q 713 146 711 124 q 713 152 713 151 q 714 154 713 153 q 718 155 715 154 q 733 160 724 158 q 756 169 741 162 l 765 173 q 878 227 823 197 q 933 260 910 245 l 951 289 q 1162 698 1122 575 q 1187 825 1187 770 q 1177 880 1187 857 q 1050 935 1149 935 q 1016 934 1031 935 q 675 844 864 918 q 549 786 612 818 q 399 700 475 749 q 174 516 266 614 q 39 299 70 405 l 35 286 q 26 234 33 273 q 23 220 24 221 q 4 216 22 218 q -15 214 -14 214 l -17 221 l -20 249 q -1 345 -20 297 q 203 608 45 470 q 449 779 310 702 q 930 956 683 908 q 1048 970 1001 970 q 1084 968 1073 970 q 1221 830 1221 955 q 1185 675 1221 767 q 1038 381 1145 567 l 988 294 l 1000 302 q 1318 556 1144 398 q 1587 829 1473 698 l 1608 854 l 1653 911 l 1656 914 q 1673 932 1666 926 q 1705 916 1689 924 q 1703 907 1704 907 q 1669 847 1693 877 q 1598 770 1647 819 q 1167 388 1398 568 q 956 239 1054 300 q 943 218 955 238 l 930 197 l 958 201 q 1202 237 1059 218 q 1258 244 1233 240 q 1318 252 1284 248 l 1354 256 q 1526 276 1497 273 q 1651 284 1606 284 q 1685 283 1674 284 q 1714 260 1714 277 q 1706 243 1714 252 q 1672 224 1695 233 q 1668 230 1670 227 q 1665 236 1665 233 q 1672 247 1666 239 l 1674 250 q 1632 252 1672 252 q 1230 206 1516 251 q 948 154 1090 184 l 900 144 q 830 12 849 53 q 805 -45 814 -22 q 795 -71 797 -68 q 793 -74 793 -73 q 789 -75 793 -75 z "},"L":{"ha":1746,"x_min":3,"x_max":1647,"o":"m 625 -138 l 621 -138 q 614 -125 614 -126 q 615 -124 614 -124 l 615 -123 l 616 -123 l 616 -123 q 620 -117 616 -121 q 629 -109 624 -113 q 678 -75 654 -90 q 811 1 732 -43 q 1019 107 917 58 l 1063 201 q 1230 617 1169 422 q 1258 769 1258 705 q 1231 882 1258 836 q 1004 975 1173 975 q 872 961 945 975 q 461 808 666 920 q 140 559 257 696 q 61 429 83 492 q 50 383 55 410 q 45 362 48 372 l 44 356 l 6 359 q 3 395 3 378 q 68 562 3 474 q 163 663 107 612 q 522 890 309 792 q 869 1000 703 972 q 1000 1012 936 1012 q 1122 997 1074 1012 q 1267 884 1227 967 q 1289 772 1289 838 q 1131 271 1289 627 q 1069 138 1084 167 l 1066 130 l 1070 132 q 1079 136 1074 133 q 1364 253 1236 209 q 1568 300 1499 300 q 1645 251 1634 300 q 1646 243 1646 248 q 1647 232 1647 237 q 1644 214 1647 218 l 1607 207 l 1605 209 q 1596 231 1603 212 q 1595 234 1596 234 q 1581 239 1593 237 q 1553 241 1569 241 l 1534 240 q 1105 107 1382 225 q 1038 76 1041 80 l 1034 71 l 1010 32 q 999 16 1006 24 q 997 13 998 15 q 994 12 996 12 q 993 12 994 12 q 985 17 993 12 l 983 18 l 983 20 l 984 22 l 984 24 l 985 26 q 986 31 985 28 q 987 35 987 34 q 989 39 987 36 q 994 51 991 46 q 996 57 996 56 q 992 56 995 57 q 986 53 989 55 q 707 -98 842 -16 q 625 -138 642 -137 z "},"M":{"ha":2220,"x_min":1,"x_max":2237,"o":"m 684 -35 q 676 -30 683 -35 q 669 -25 670 -25 q 667 -26 668 -25 q 665 -28 666 -28 l 659 -24 q 653 -20 653 -21 l 654 -16 q 653 -14 654 -15 q 668 17 653 -12 l 681 40 q 734 134 694 64 q 865 372 806 254 q 993 759 993 630 q 990 793 993 778 q 903 861 978 861 q 711 803 830 861 q 227 444 467 677 q 99 296 151 368 q 53 225 70 257 q 39 201 41 203 q 37 197 37 199 q 19 203 36 197 q 1 210 1 210 l 1 211 l 1 219 q 86 371 14 285 q 406 659 208 511 q 804 880 638 829 q 900 897 859 897 q 916 897 908 897 q 1017 825 992 890 q 1026 762 1026 798 q 884 342 1026 624 l 867 309 q 873 316 868 309 q 885 332 878 323 q 1395 907 1211 763 q 1531 973 1478 973 q 1554 970 1541 973 q 1607 916 1597 960 q 1610 891 1610 905 q 1598 821 1610 861 q 1463 532 1571 724 q 1388 398 1440 488 q 1331 298 1337 308 q 1291 223 1309 259 q 1272 181 1277 195 q 1267 165 1267 167 q 1282 177 1268 165 q 1344 238 1312 204 q 1482 387 1375 270 q 1629 543 1586 500 q 1695 609 1676 591 q 1873 725 1818 725 q 1910 708 1896 725 q 1922 665 1922 693 q 1918 625 1922 648 q 1883 500 1912 592 q 1864 433 1870 456 q 1840 298 1840 350 q 1845 256 1840 273 q 1906 209 1858 216 q 1929 208 1914 208 q 1954 209 1943 208 q 2153 268 2021 216 q 2229 294 2224 294 q 2237 288 2237 294 q 2230 279 2237 283 l 2156 240 q 1929 176 2016 176 l 1922 176 q 1843 201 1872 176 q 1809 269 1816 224 q 1808 300 1808 279 q 1821 394 1808 341 q 1854 511 1830 435 q 1879 595 1871 567 q 1891 665 1891 641 q 1874 694 1891 694 q 1580 447 1808 694 q 1474 331 1535 399 q 1287 138 1322 163 q 1263 125 1274 127 q 1255 124 1261 124 l 1251 124 q 1245 125 1247 124 q 1231 153 1231 133 q 1246 208 1231 173 q 1338 382 1265 254 l 1427 540 q 1480 642 1458 597 q 1569 888 1569 818 l 1569 892 q 1546 930 1569 925 q 1533 931 1540 931 q 1265 720 1457 931 q 958 340 1127 568 l 930 302 l 842 178 q 696 -21 713 -1 l 684 -35 z "},"N":{"ha":1883,"x_min":0,"x_max":1896,"o":"m 684 -35 l 669 -24 q 665 -28 668 -24 l 653 -21 l 654 -20 q 655 -16 654 -18 q 654 -14 654 -15 q 653 -12 653 -14 q 677 35 659 4 l 773 202 q 974 614 910 445 q 1027 838 1027 752 q 1003 920 1027 895 q 941 942 983 941 q 726 867 863 942 q 223 457 465 716 q 124 336 167 395 q 47 214 86 283 l 39 201 q 35 197 37 198 l 0 211 q 1 215 0 213 q 1 218 1 216 q 4 230 1 220 q 285 589 39 361 q 764 929 541 823 q 938 978 870 978 q 1012 958 983 978 q 1061 841 1061 924 q 836 252 1061 663 l 836 249 l 903 328 q 1381 674 1204 674 q 1444 653 1421 674 q 1468 589 1468 631 q 1447 486 1468 549 q 1408 380 1434 450 q 1374 288 1384 320 q 1350 176 1350 220 q 1360 135 1350 149 q 1412 116 1374 116 q 1666 193 1495 116 q 1778 245 1685 203 q 1880 292 1872 288 q 1889 294 1884 294 q 1896 288 1896 294 q 1889 277 1896 281 q 1689 171 1758 205 l 1640 147 q 1421 84 1495 86 l 1413 84 q 1323 140 1341 84 q 1318 177 1318 155 q 1340 286 1318 218 q 1379 398 1352 326 q 1417 503 1405 466 q 1432 586 1432 555 q 1431 606 1432 597 q 1398 636 1426 633 q 1381 637 1395 637 q 1342 633 1360 637 q 1215 569 1285 618 q 775 81 1025 433 q 700 -18 724 7 q 684 -35 685 -35 z "},"O":{"ha":1295,"x_min":9,"x_max":1273,"o":"m 341 -39 q 159 -2 236 -38 q 43 101 81 33 q 9 244 9 165 q 18 325 9 283 q 90 505 37 414 q 142 585 110 540 q 288 733 202 663 q 696 918 479 885 q 792 926 747 926 l 806 932 q 1045 994 942 994 q 1188 953 1129 994 q 1273 783 1273 892 q 1270 734 1273 759 q 1204 551 1256 643 q 920 222 1108 386 q 659 45 791 112 q 386 -37 517 -26 q 341 -39 366 -39 m 363 0 l 383 1 q 777 157 571 18 q 1164 548 1022 329 q 1230 699 1208 620 q 1241 776 1241 738 l 1241 782 q 1171 927 1241 877 q 1045 963 1120 963 q 878 928 970 963 q 865 922 865 924 q 871 922 865 922 q 940 911 905 918 q 1079 863 1025 892 l 1066 828 l 1063 828 q 1057 829 1061 829 q 1021 839 1050 831 q 848 869 931 865 q 802 870 835 870 q 747 867 774 870 l 737 863 q 388 563 525 743 q 300 408 328 483 q 289 351 289 376 q 313 298 289 315 q 384 278 334 283 q 390 277 387 278 q 401 276 393 276 q 400 264 401 267 l 400 261 l 367 260 q 313 269 334 260 q 260 336 268 287 q 258 355 258 345 q 328 533 258 425 q 639 839 443 707 q 650 847 645 843 q 658 852 656 850 q 663 854 661 853 l 664 856 l 627 848 q 414 758 517 820 q 193 572 284 680 q 159 528 178 553 q 60 313 83 419 q 52 239 53 279 q 138 55 52 118 q 340 0 213 2 l 363 0 z "},"P":{"ha":2013,"x_min":4,"x_max":2118,"o":"m 1072 -169 l 1046 -158 q 1037 -152 1038 -154 q 1036 -149 1036 -151 q 1053 -94 1036 -130 q 1099 85 1099 7 q 1043 203 1099 172 l 1038 205 l 1018 201 q 767 166 851 170 q 759 166 761 166 q 754 172 757 167 q 751 180 751 178 q 754 186 751 183 q 797 214 769 201 q 906 245 850 236 q 969 251 941 251 q 1042 240 1008 251 l 1044 239 q 1140 259 1048 239 q 1235 281 1229 279 q 1257 330 1236 281 l 1343 538 l 1369 605 q 1409 673 1398 672 l 1426 666 q 1435 662 1432 663 q 1441 659 1439 660 q 1444 653 1444 658 q 1425 593 1444 635 q 1406 554 1421 587 l 1369 478 l 1285 302 q 1280 291 1280 292 q 1348 307 1283 291 q 1945 526 1755 412 q 2084 673 2070 601 q 2085 693 2085 676 q 2083 711 2085 703 q 1871 871 2058 801 q 1389 957 1685 942 q 1234 961 1310 961 q 814 931 1035 961 q 121 677 342 869 q 57 570 57 618 q 66 534 57 552 q 282 417 111 458 q 409 399 336 405 q 435 397 423 399 l 435 359 l 421 357 q 372 355 400 355 q 345 355 358 355 q 99 428 201 366 q 4 568 4 488 q 149 762 4 665 q 274 832 206 800 q 817 973 487 933 q 1200 998 1019 998 q 1333 996 1270 998 q 1933 882 1717 980 q 2118 688 2118 798 q 2091 610 2118 650 q 2023 540 2068 576 q 1291 260 1830 393 l 1263 254 l 1187 92 l 1134 -28 q 1122 -56 1124 -50 q 1087 -151 1103 -123 q 1072 -169 1078 -167 m 1141 64 q 1158 104 1149 81 l 1211 222 q 1219 244 1219 241 q 1215 243 1217 243 q 1205 241 1212 242 q 1187 237 1199 239 l 1145 227 q 1105 218 1118 222 l 1085 214 q 1140 73 1140 165 q 1141 64 1140 66 m 875 206 l 927 216 q 909 214 920 216 q 876 207 886 210 l 875 206 z "},"Q":{"ha":1295,"x_min":1,"x_max":1265,"o":"m 354 -42 l 326 -42 q 297 -41 309 -42 q 37 94 109 -28 q 1 241 1 157 q 106 543 2 387 q 258 713 167 633 q 578 890 407 838 q 764 922 671 919 l 783 923 l 794 928 q 1037 991 930 991 q 1208 926 1143 991 q 1265 777 1265 871 q 1209 572 1265 684 q 1040 342 1154 467 q 975 276 1010 312 q 800 133 897 203 q 798 130 798 131 l 808 125 q 978 87 897 87 q 1037 92 1013 87 q 1096 107 1060 96 q 1142 119 1133 119 l 1148 118 l 1153 105 q 1139 94 1153 102 q 1018 58 1095 66 q 977 56 1004 56 q 782 102 886 56 q 766 109 767 109 q 757 103 764 109 q 467 -26 608 7 q 354 -42 407 -40 m 336 -3 q 690 105 498 -3 l 726 127 l 673 153 q 548 210 590 194 q 416 235 477 235 q 284 203 347 235 q 214 159 258 190 q 168 132 178 134 l 165 131 q 162 133 164 131 q 144 155 160 134 q 140 160 140 159 q 149 174 140 163 q 170 195 158 184 q 304 265 225 240 l 296 269 q 250 351 250 294 q 272 443 250 393 q 377 609 305 522 q 646 847 490 745 l 655 852 l 654 852 q 642 850 652 852 q 309 689 465 810 q 156 531 220 619 q 44 237 44 372 q 210 14 47 63 q 336 -3 270 -3 m 759 148 l 772 157 q 939 290 861 218 q 1154 541 1077 420 q 1232 748 1219 646 q 1233 779 1233 762 q 1159 926 1233 876 q 1037 960 1112 960 q 854 920 954 960 q 1064 864 987 903 q 1069 861 1068 861 q 1070 861 1070 861 l 1064 842 q 1059 828 1061 832 q 1057 825 1057 825 l 1000 839 q 800 867 899 867 l 738 865 l 724 857 q 386 568 520 741 q 358 530 373 551 q 284 377 299 443 q 281 347 281 361 q 283 326 281 335 q 352 278 293 287 l 360 277 l 371 278 q 404 279 388 279 q 492 268 448 279 q 693 181 566 250 q 759 148 758 148 z "},"R":{"ha":2092,"x_min":1,"x_max":2115,"o":"m 841 -34 l 833 -34 q 821 -18 822 -30 q 824 -4 821 -12 q 837 20 827 3 q 903 143 872 83 q 964 266 945 223 l 965 269 l 949 272 q 749 382 794 307 q 733 442 733 410 q 734 455 733 450 q 831 585 746 534 q 936 615 882 615 q 997 603 969 615 q 1001 601 999 602 q 1004 600 1003 600 q 1006 599 1005 600 q 1007 598 1006 598 q 1025 587 1011 598 q 1046 568 1040 576 q 1064 503 1064 541 q 1057 432 1064 467 q 1015 307 1044 378 q 1010 293 1010 295 l 1013 292 q 1019 292 1015 292 q 1020 293 1020 292 q 1021 297 1020 295 q 1023 301 1022 299 l 1030 301 q 1124 463 1057 346 l 1143 496 q 1181 566 1164 533 q 1218 635 1191 581 l 1230 659 q 1284 757 1274 748 l 1286 760 l 1321 745 l 1320 741 q 1310 702 1320 730 q 1284 643 1299 674 q 1182 467 1260 595 q 1166 441 1175 456 l 1165 439 q 1074 294 1106 343 l 1070 287 q 1125 285 1077 285 q 1179 286 1155 285 q 1622 425 1434 301 q 1742 532 1694 472 q 1826 743 1826 642 q 1825 768 1826 755 q 1723 936 1812 868 q 1645 980 1688 962 q 1348 1031 1522 1031 q 1261 1029 1305 1031 q 716 887 988 1008 q 195 494 387 737 q 57 275 118 399 l 41 243 q 37 236 37 237 q 35 235 36 235 l 20 241 q 2 248 3 248 q 1 250 1 249 q 1 252 1 250 q 3 256 1 253 q 10 282 5 266 q 235 621 72 458 q 559 861 371 758 q 658 911 604 886 q 1256 1067 955 1047 q 1337 1070 1296 1070 q 1704 989 1564 1070 q 1826 870 1786 942 q 1860 744 1860 810 q 1849 669 1860 707 q 1682 429 1812 532 q 1341 276 1544 320 q 1125 253 1239 253 l 1089 254 l 1078 254 q 1091 241 1078 253 q 1274 151 1151 186 q 1521 117 1392 117 q 1670 129 1595 117 q 2030 258 1861 159 q 2106 295 2092 295 q 2115 288 2115 295 q 2089 259 2115 279 q 1936 174 2041 220 q 1808 127 1879 149 l 1792 123 q 1494 81 1646 81 q 1171 136 1315 81 q 1046 208 1085 168 q 1031 225 1036 218 q 1028 221 1029 223 q 1017 204 1026 219 q 968 131 1007 190 l 941 90 q 895 22 911 44 q 853 -28 869 -14 q 841 -34 848 -33 m 964 193 l 1006 261 l 996 263 q 985 237 996 262 l 966 199 l 964 193 m 977 298 q 984 313 978 298 q 1032 497 1032 430 l 1031 509 q 1017 558 1029 540 q 1008 570 1013 564 l 1004 574 q 998 578 1001 578 q 947 588 974 588 q 888 577 919 588 q 806 526 841 561 q 766 440 766 485 q 766 426 766 432 q 930 309 783 349 q 977 298 959 302 z "},"S":{"ha":1506,"x_min":4,"x_max":1485,"o":"m 86 -12 q 14 8 30 -9 q 4 31 4 18 q 45 85 4 56 q 263 197 114 136 q 672 337 448 273 q 1082 432 896 401 q 1259 448 1190 448 q 1272 449 1272 448 q 1263 455 1272 450 q 1126 486 1225 477 q 1054 491 1090 490 q 932 492 1017 492 q 817 491 868 492 q 663 488 765 490 l 630 488 q 592 486 608 487 q 544 486 575 486 q 479 486 513 486 l 418 486 q 195 519 243 487 q 166 564 166 537 q 179 602 166 582 q 215 641 190 617 q 528 833 323 745 q 1122 993 804 947 q 1301 1007 1225 1007 q 1476 960 1443 1007 q 1485 930 1485 947 q 1455 873 1484 903 l 1444 863 l 1421 882 q 1415 888 1415 886 q 1415 889 1415 888 q 1430 913 1415 891 q 1436 927 1436 924 q 1422 937 1436 932 q 1358 949 1398 947 q 1303 951 1345 951 q 972 913 1166 951 q 400 718 632 846 q 238 601 300 662 q 211 565 211 574 q 248 545 211 554 q 505 526 313 526 q 692 528 557 526 l 807 530 q 905 530 832 530 q 1261 495 1189 530 q 1314 452 1301 479 q 1316 448 1316 450 q 1320 446 1317 446 q 1360 437 1337 445 q 1400 416 1400 425 q 1398 411 1400 413 q 1393 408 1396 408 l 1371 412 q 1320 418 1337 418 l 1318 412 q 1234 311 1307 366 q 854 141 1114 226 q 463 37 660 79 q 131 -11 267 -4 l 86 -12 m 104 20 l 127 20 q 721 135 363 34 q 1215 340 1069 236 q 1280 408 1265 376 q 1284 417 1284 415 q 1284 420 1284 419 l 1273 420 q 600 283 1016 408 q 62 59 208 161 q 44 43 52 52 q 36 31 36 35 q 39 28 36 30 q 104 20 58 20 z "},"T":{"ha":901,"x_min":1,"x_max":1854,"o":"m 472 -39 l 468 -38 q 453 -20 453 -33 q 522 178 453 -7 l 562 284 q 600 392 585 348 q 642 595 642 520 q 627 673 642 640 q 559 734 608 713 q 452 758 519 752 q 405 758 441 758 l 351 758 l 275 754 l 267 751 q 140 705 222 736 q 50 672 80 682 q 6 662 20 662 l 1 675 l 1 675 q 38 697 9 684 q 104 726 66 711 q 703 921 407 839 q 869 965 806 949 l 878 968 q 887 984 884 978 q 891 990 891 989 q 892 991 891 991 l 924 979 q 947 985 927 979 q 1386 1076 1166 1038 q 1697 1123 1603 1114 q 1785 1128 1745 1128 q 1853 1121 1841 1128 q 1854 1084 1854 1103 l 1851 1083 q 1784 1074 1845 1078 l 1693 1067 l 1685 1067 q 1446 1038 1595 1060 q 1292 1015 1352 1025 q 947 947 1139 989 q 924 942 928 943 q 919 940 919 941 q 912 919 919 939 q 857 781 892 856 l 840 743 l 822 703 q 802 659 814 687 l 781 611 q 739 517 745 529 q 720 475 726 488 l 684 393 l 656 330 q 576 150 637 286 q 501 -9 515 14 q 493 -23 496 -18 q 487 -33 491 -28 q 472 -39 481 -39 m 623 358 l 633 383 q 659 444 653 432 l 703 551 l 830 859 q 853 912 847 899 q 859 927 859 925 l 779 907 q 479 823 644 873 l 383 791 l 404 791 q 616 737 553 791 q 673 596 673 690 q 643 425 673 528 q 623 361 635 398 l 623 358 z "},"U":{"ha":1361,"x_min":3,"x_max":1566,"o":"m 1017 -110 l 1016 -110 q 1011 -109 1015 -110 q 1002 -108 1007 -108 l 1002 -105 q 1000 -86 1000 -100 q 1016 3 1000 -53 q 1197 413 1065 177 q 1276 545 1257 517 l 1268 537 q 1196 464 1236 503 q 764 94 953 220 q 654 28 705 54 q 543 -7 585 -6 l 538 -7 q 491 10 506 -7 q 473 60 473 27 q 518 200 473 111 q 667 435 562 289 q 752 566 722 511 q 821 771 821 690 q 772 867 821 838 q 677 890 736 890 q 639 888 654 890 q 373 797 513 873 q 66 538 210 707 l 33 500 q 14 513 15 513 q 3 525 3 522 q 8 536 3 529 l 9 539 q 75 629 33 580 q 215 757 134 697 q 623 932 423 908 q 670 935 644 935 q 695 934 685 935 q 718 932 706 933 q 860 806 841 911 q 863 774 863 791 q 718 442 863 645 l 688 402 q 507 59 507 153 q 511 37 507 45 q 527 26 515 28 q 539 26 530 26 q 718 102 599 26 q 1164 476 912 225 q 1341 663 1239 551 q 1379 703 1368 692 q 1409 739 1398 724 q 1539 869 1503 863 q 1547 863 1541 869 q 1566 841 1552 857 l 1564 838 q 1507 772 1560 827 q 1455 716 1479 745 l 1443 702 q 1410 661 1436 694 q 1187 325 1290 511 q 1040 -33 1078 127 q 1025 -90 1029 -79 q 1019 -107 1020 -107 q 1017 -108 1017 -107 q 1017 -110 1017 -109 z "},"V":{"ha":890,"x_min":0,"x_max":1314,"o":"m 514 -77 l 498 -73 q 477 -68 481 -70 q 431 -21 447 -60 q 418 76 418 12 q 431 236 418 140 q 465 446 442 317 l 481 534 q 512 781 512 711 q 496 843 512 835 q 477 846 490 846 q 308 777 422 846 q 102 601 183 698 q 76 568 87 584 q 51 531 65 553 q 34 510 37 510 l 0 526 l 1 530 q 16 575 2 545 q 144 718 48 639 q 386 865 268 818 q 475 886 439 886 q 518 875 501 886 q 549 791 549 857 q 539 680 549 747 q 505 486 530 612 q 467 268 479 349 q 451 128 454 187 q 450 72 450 108 q 450 45 450 54 q 475 -35 456 -16 q 478 -38 477 -38 q 479 -35 479 -38 q 483 -18 479 -33 l 486 -7 q 591 235 503 65 q 644 333 632 314 l 660 360 q 711 448 682 400 l 726 471 q 799 586 743 503 q 1115 1003 987 871 q 1263 1102 1209 1102 q 1303 1077 1290 1102 q 1314 1055 1314 1059 q 1312 1053 1314 1055 q 1308 1050 1310 1052 q 1302 1046 1303 1046 q 1300 1048 1301 1046 q 1285 1061 1298 1048 q 1266 1072 1274 1072 l 1261 1071 q 1099 940 1206 1059 q 798 517 956 777 q 709 363 756 448 l 703 351 q 633 214 680 309 l 628 203 q 596 133 607 160 l 590 119 q 552 20 570 72 l 531 -41 q 514 -77 517 -77 z "},"W":{"ha":1557,"x_min":0,"x_max":2061,"o":"m 469 -40 q 457 -30 467 -40 l 441 -14 l 441 -12 q 444 -6 442 -9 q 447 0 446 -2 q 448 2 448 1 q 447 3 448 3 q 434 5 442 3 q 408 45 408 16 q 427 110 408 69 q 526 300 446 155 q 734 698 682 580 q 783 846 783 808 q 781 858 783 854 q 737 873 777 873 q 620 852 694 873 q 362 752 500 818 q 127 618 224 686 q 49 550 70 577 l 33 531 q 0 551 0 549 l 1 553 q 5 569 1 557 q 77 650 21 608 q 239 746 135 694 q 456 840 344 798 q 703 908 605 897 q 732 909 714 909 q 749 909 744 909 q 757 908 755 909 q 761 908 760 908 q 813 876 801 901 q 818 852 817 867 q 817 836 818 844 q 694 543 810 762 q 577 328 666 489 q 495 175 521 224 q 439 41 439 68 q 447 29 439 33 q 452 27 449 28 q 459 24 456 25 q 464 23 463 23 l 475 35 l 526 87 q 774 338 636 197 l 986 555 q 1079 647 1065 634 q 1088 656 1088 653 q 1097 677 1089 659 q 1183 833 1139 776 q 1194 846 1193 846 l 1217 832 l 1227 826 l 1225 823 q 1205 777 1220 807 q 1166 696 1166 697 q 1164 691 1166 695 q 1055 406 1098 547 q 979 64 994 205 q 977 24 977 41 l 977 21 q 992 37 979 21 q 1271 395 1048 102 l 1471 658 q 1942 1216 1820 1111 q 2025 1261 1996 1261 l 2030 1261 q 2056 1236 2049 1257 q 2060 1214 2060 1221 q 2060 1210 2060 1213 l 2061 1208 l 2047 1203 q 2044 1208 2047 1205 l 2037 1221 q 2027 1234 2031 1234 q 1973 1200 2013 1234 q 1500 643 1830 1076 q 1369 469 1442 567 l 1215 263 q 1052 47 1103 112 q 987 -27 1002 -17 q 968 -34 977 -34 q 937 7 941 -34 q 937 33 937 12 q 937 52 937 45 q 937 67 937 59 q 939 88 938 75 q 1002 398 954 219 q 1057 574 1029 494 l 1060 583 q 1012 536 1059 583 q 747 256 897 420 q 547 33 656 157 l 513 -6 q 475 -38 488 -31 q 473 -39 474 -38 q 469 -40 471 -40 z "},"X":{"ha":1286,"x_min":-43,"x_max":1322,"o":"m 201 -49 l 165 -39 l 166 -32 q 187 17 171 -14 q 313 190 221 79 l 348 232 l 360 246 q 656 565 488 397 l 673 583 l 675 609 q 679 662 677 640 q 687 812 687 774 l 687 829 q 677 895 686 878 q 634 916 667 916 q 465 857 576 916 q 123 585 282 755 q 28 474 82 540 l 7 450 l -11 432 l -43 448 l -38 458 q 85 616 -3 526 q 425 880 245 779 q 643 956 564 956 q 711 928 690 956 q 727 838 727 905 q 718 680 727 793 l 712 622 l 758 666 q 1156 1004 1005 904 q 1279 1059 1237 1059 q 1316 1037 1308 1059 q 1322 1015 1322 1022 q 1322 1013 1322 1013 q 1312 1006 1314 1008 q 1308 1004 1309 1004 q 1305 1005 1308 1005 q 1291 1019 1303 1005 q 1285 1025 1289 1023 q 1275 1028 1282 1028 q 1140 960 1239 1028 q 732 598 971 838 l 709 574 q 707 529 708 566 l 707 492 q 791 222 707 288 q 916 184 839 184 q 1079 210 985 184 q 1206 257 1114 220 l 1297 293 q 1305 295 1301 295 q 1312 292 1312 295 q 1301 281 1312 288 q 1283 269 1297 278 q 1250 250 1269 260 q 1212 230 1230 239 q 996 159 1100 178 q 912 151 955 151 q 884 152 895 151 q 709 270 760 163 q 673 447 678 336 q 671 522 671 467 l 672 534 l 671 535 q 661 524 670 535 l 640 502 q 580 437 613 473 l 503 351 l 475 318 q 404 233 447 285 q 265 44 317 125 l 227 -14 q 221 -22 222 -21 q 216 -30 219 -24 q 202 -47 205 -44 q 201 -48 201 -47 l 201 -49 z "},"Y":{"ha":1400,"x_min":0,"x_max":1530,"o":"m 979 -324 l 977 -323 q 949 -310 959 -317 q 935 -261 935 -298 q 936 -237 935 -248 q 1123 305 961 -77 q 1265 615 1190 462 q 1394 865 1342 772 q 1402 880 1398 874 q 1330 803 1398 876 q 1204 663 1299 770 l 1126 576 l 1017 454 q 781 220 865 289 q 693 170 728 177 q 674 169 686 169 q 664 170 667 169 q 635 184 651 173 q 627 188 633 186 l 627 194 q 647 272 627 224 q 698 370 659 299 q 782 534 755 471 q 825 707 825 633 q 793 818 825 771 q 729 854 775 848 q 699 856 720 856 q 680 855 688 856 q 467 785 589 845 q 335 711 408 758 q 271 669 290 682 l 255 658 q 130 559 191 613 q 111 543 123 555 q 31 480 49 490 q 27 478 28 479 q 24 479 25 478 q 10 494 22 481 l 0 506 q 80 591 20 541 q 229 699 142 642 q 675 890 494 871 q 700 892 686 892 q 805 857 770 892 q 824 833 817 847 q 857 705 857 780 q 771 438 857 601 q 726 353 755 406 q 686 277 701 309 q 661 224 661 229 l 672 222 l 676 222 q 956 449 751 242 l 1076 572 q 1244 756 1190 696 l 1357 878 q 1457 978 1428 955 q 1472 994 1466 985 q 1493 1017 1492 1017 l 1498 1022 q 1530 1000 1530 1001 q 1529 991 1529 995 l 1529 987 q 1528 986 1529 987 q 1527 985 1527 986 q 1526 984 1526 985 q 1518 971 1525 984 q 1470 888 1501 938 q 1378 734 1421 811 q 1310 610 1338 664 q 1297 588 1303 597 q 1137 253 1204 409 l 1118 208 l 1094 151 q 965 -274 970 -157 q 966 -286 965 -283 q 968 -291 966 -290 q 973 -296 970 -293 q 979 -302 977 -299 q 984 -307 982 -304 q 986 -310 986 -309 q 986 -310 986 -310 q 987 -311 987 -311 q 987 -312 987 -311 q 985 -316 987 -313 q 984 -319 985 -317 q 981 -322 983 -321 q 979 -324 980 -324 z "},"Z":{"ha":1178,"x_min":0,"x_max":1076,"o":"m 15 -42 l 8 -38 q 7 -36 8 -36 q 4 -33 6 -35 l 2 -30 q 0 -26 0 -27 q 1 -25 1 -25 l 1 -24 q 14 -9 1 -22 q 28 8 18 -5 q 52 36 39 21 q 391 390 147 146 l 466 465 l 250 408 q 227 407 241 407 q 210 410 214 407 l 209 410 q 207 412 208 411 q 206 421 207 414 q 203 450 205 429 l 205 451 q 227 460 210 456 l 243 464 q 374 486 291 471 q 515 513 446 498 l 545 542 l 620 617 q 846 844 718 713 l 857 854 q 885 883 873 871 q 904 903 897 895 q 926 925 912 911 l 930 930 l 865 917 q 372 819 686 880 l 351 815 q 322 809 328 811 q 288 803 316 808 q 111 775 140 775 q 77 781 87 775 q 56 795 59 789 l 54 797 l 68 832 q 88 831 82 832 q 99 829 94 829 q 123 832 108 831 l 159 834 l 199 838 q 550 889 347 854 q 915 960 753 924 q 973 971 952 970 q 989 976 982 972 q 1015 948 1015 949 l 1015 947 q 1008 935 1015 944 q 953 873 991 912 q 838 766 931 852 l 769 702 q 714 651 732 667 l 685 623 q 583 527 583 530 l 730 559 q 768 568 763 568 q 789 570 781 570 q 804 564 802 570 q 806 554 806 557 q 794 544 806 550 q 743 530 772 534 q 534 481 589 496 l 513 461 q 111 54 273 234 q 106 48 106 50 l 132 61 q 559 220 294 134 q 1009 332 909 332 q 1068 309 1053 332 q 1076 296 1076 299 q 1076 282 1076 294 l 1053 260 q 1034 272 1046 263 q 1029 275 1031 274 q 1004 276 1026 276 q 939 271 968 275 q 587 191 795 252 q 207 59 378 131 q 68 -9 136 31 q 37 -27 43 -22 q 23 -37 31 -31 q 18 -41 19 -41 q 15 -42 16 -41 z "},"a":{"ha":465,"x_min":-14,"x_max":489,"o":"m 269 183 l 257 183 q 212 214 222 184 q 208 239 208 224 q 220 297 208 265 l 221 301 q 210 298 217 301 q 52 237 94 250 q 24 233 38 233 q 10 234 13 233 q -14 262 -14 241 q -8 281 -14 272 q 12 304 -3 291 q 101 366 53 346 q 171 381 134 381 q 232 354 214 381 q 237 346 237 347 q 237 345 237 345 q 237 345 237 345 l 242 347 l 258 355 q 279 363 269 363 q 284 362 283 363 q 288 361 286 361 q 291 359 290 360 q 294 353 292 359 q 297 345 297 347 q 306 330 297 343 q 305 327 305 329 q 303 324 304 325 q 302 322 302 323 q 288 308 297 315 q 267 284 278 302 q 249 231 249 252 q 252 220 249 222 q 268 219 255 219 q 435 277 330 219 l 469 294 q 475 296 472 296 q 485 293 481 296 q 489 286 489 290 q 427 239 489 273 l 390 219 q 269 183 315 185 m 31 267 l 36 268 q 127 298 55 271 q 183 321 165 313 l 183 327 q 156 330 174 330 q 63 297 115 330 q 30 270 43 283 l 26 267 l 31 267 z "},"b":{"ha":420,"x_min":-47,"x_max":436,"o":"m -9 132 q -28 142 -14 132 q -41 150 -35 147 q -47 155 -47 153 q -47 157 -47 156 q -45 170 -47 162 q -43 180 -43 178 q -39 197 -43 183 q 37 387 -24 256 q 137 586 83 486 l 177 659 l 242 770 l 251 785 q 286 843 277 831 q 313 876 299 863 l 330 889 l 346 889 l 368 867 q 348 833 366 854 l 331 811 q 299 766 319 796 l 251 695 l 220 648 q 214 640 216 642 q 208 630 212 637 q 198 614 203 623 q 15 258 81 427 q 26 268 16 258 q 147 330 88 330 q 163 329 156 330 q 211 289 201 321 q 212 281 212 285 q 213 277 212 277 l 227 279 q 380 288 300 288 q 433 279 427 288 l 433 278 q 436 270 436 276 q 432 262 435 264 l 431 262 q 417 256 428 258 q 331 255 411 256 q 256 250 304 255 q 196 243 227 248 l 191 239 q 170 227 182 233 q 119 214 142 215 q 96 226 103 214 q 94 233 94 229 q 110 254 94 246 q 174 271 126 261 q 178 278 178 273 q 165 290 178 286 q 161 292 163 291 q 150 292 159 292 q 71 250 111 292 q 15 168 40 220 l 6 153 q 2 145 2 147 q -2 137 2 142 q -9 132 -7 132 z "},"c":{"ha":412,"x_min":-38,"x_max":431,"o":"m 62 188 q -6 197 25 188 q -38 235 -38 207 q 5 308 -38 266 q 104 368 56 357 q 121 370 113 370 l 130 370 q 166 339 154 365 q 170 326 170 330 q 170 324 170 325 q 159 315 170 323 l 153 309 q 141 301 142 302 q 138 300 139 300 q 122 311 132 302 q 115 315 117 315 l 109 314 q 64 294 89 309 q 20 260 39 279 q 3 239 8 248 l 2 234 q 16 229 3 233 q 77 222 42 222 q 254 252 147 222 q 330 275 283 260 q 415 297 412 297 q 427 294 422 297 q 431 286 431 290 q 416 269 431 277 q 383 257 405 263 l 364 252 q 145 195 205 205 q 62 188 98 188 z "},"d":{"ha":530,"x_min":-34,"x_max":552,"o":"m 266 121 q 187 149 215 121 q 146 252 153 181 q 144 312 144 261 q 125 315 131 315 q 113 313 114 315 q 107 304 112 310 q -3 201 35 201 q -33 223 -24 201 q -34 233 -34 227 l -33 241 q -16 279 -28 262 q 24 323 0 302 q 105 366 68 358 q 157 444 112 378 l 161 450 q 168 461 168 460 q 169 466 168 463 q 173 482 171 472 q 210 602 186 537 q 256 720 233 667 q 323 828 292 798 q 345 846 334 838 q 366 857 359 857 q 367 856 367 857 q 380 841 368 854 q 384 822 384 834 q 380 787 384 806 q 217 475 359 699 q 212 466 214 470 q 208 456 210 463 q 185 353 193 403 q 201 337 193 347 q 212 323 209 328 q 212 321 212 322 q 213 318 213 319 q 203 305 213 315 q 186 289 188 289 q 182 290 184 289 q 179 291 180 291 q 178 276 178 291 l 179 254 q 204 178 183 203 q 264 153 224 153 q 307 159 284 153 q 434 217 365 174 q 505 269 460 234 q 543 291 533 291 q 549 289 547 291 q 552 282 552 286 q 523 244 552 273 q 469 202 505 226 q 279 122 361 131 l 266 121 m 151 368 l 151 371 l 149 368 l 151 368 m 260 606 q 264 612 260 606 q 326 730 300 674 q 334 751 334 749 l 324 736 q 267 621 299 696 l 260 606 z "},"e":{"ha":334,"x_min":0,"x_max":352,"o":"m 121 235 q 14 265 41 235 q 0 298 0 281 q 12 334 0 313 q 36 362 22 350 q 87 388 60 382 q 98 389 93 389 q 131 375 117 389 q 146 341 146 360 q 137 312 146 326 q 79 275 121 287 q 73 273 73 273 q 78 271 73 272 q 127 267 98 267 q 292 287 194 267 q 337 295 320 294 q 352 286 352 295 q 336 266 352 275 q 317 259 329 262 q 279 252 304 256 q 121 235 182 235 m 62 326 q 89 334 79 329 q 99 343 99 340 q 96 345 99 345 q 85 343 92 345 q 65 334 75 340 q 55 326 55 327 l 62 326 z "},"f":{"ha":295,"x_min":-136,"x_max":317,"o":"m -104 -98 l -106 -98 l -133 -71 l -134 -68 q -135 -59 -134 -62 q -136 -46 -136 -56 q -131 -16 -136 -34 q -43 216 -110 66 l -33 237 l -45 235 q -55 245 -52 235 q -57 258 -57 254 q -52 266 -57 262 q -39 269 -52 267 q -17 273 -26 271 l -5 297 q 62 435 28 371 q 92 490 77 463 q 206 652 176 644 q 217 653 211 653 q 227 652 222 653 q 243 624 243 644 q 233 569 243 610 q 202 494 219 515 l 165 505 l 165 512 q 165 519 165 515 q 165 526 165 524 l 166 528 l 165 528 l 160 520 q 43 317 92 416 q 26 285 26 286 q 76 302 28 285 q 83 304 81 304 q 91 298 89 304 q 94 281 92 293 l 154 288 q 296 299 258 299 q 317 289 317 299 q 264 266 317 269 l 184 260 q 93 249 109 252 l 85 248 l 42 241 q 25 141 42 208 q -62 -64 -9 5 q -84 -86 -73 -77 q -104 -98 -96 -96 m -98 -20 l -94 -15 q -21 125 -53 34 q 6 222 0 186 q 7 235 7 231 q 6 239 7 238 l 4 240 q -18 192 2 237 q -92 3 -70 77 q -98 -20 -98 -17 z "},"g":{"ha":465,"x_min":-513,"x_max":481,"o":"m -416 -669 l -420 -669 q -509 -592 -490 -662 q -513 -545 -513 -571 q -510 -498 -513 -522 q -463 -355 -498 -421 q -190 -37 -374 -189 q 52 129 -82 52 q 68 138 61 134 l 79 144 l 108 247 l 113 266 q -3 191 61 227 l -12 186 q -43 172 -30 176 q -57 170 -48 170 q -68 171 -64 170 q -76 176 -72 172 q -83 193 -83 182 l -83 197 q -37 265 -83 218 q 28 323 1 302 q 91 352 66 352 q 107 348 100 352 q 121 321 121 340 q 122 315 121 315 q 124 316 122 315 q 130 320 128 318 q 133 326 131 322 q 135 330 134 330 l 172 321 q 149 189 172 283 l 146 179 l 155 182 q 233 218 186 199 q 316 252 279 238 q 449 292 369 271 q 465 296 461 295 q 473 298 469 298 q 481 290 481 298 q 470 277 481 283 q 412 253 437 263 l 387 243 q 229 182 278 203 l 186 162 q 135 136 135 138 l 115 73 q -77 -371 33 -174 q -252 -605 -170 -536 q -387 -667 -314 -658 q -416 -669 -402 -669 m -402 -632 q -306 -597 -353 -629 q -51 -218 -186 -516 q 44 30 2 -100 l 66 100 q 28 79 64 100 q -338 -229 -196 -54 q -458 -427 -429 -340 q -479 -542 -479 -489 q -415 -632 -479 -632 l -402 -632 m -33 213 l -28 216 q 93 291 50 255 l 95 292 l 77 293 l 52 280 q 18 256 38 271 q -25 220 -6 238 q -33 213 -33 214 z "},"h":{"ha":383,"x_min":-33,"x_max":399,"o":"m -18 199 l -21 199 q -33 216 -33 203 q -30 232 -33 223 q -19 260 -27 241 l 7 321 l 9 326 q 79 482 36 388 l 115 562 q 121 576 121 574 q 163 661 130 595 q 227 782 203 744 q 256 821 243 808 q 274 836 264 829 q 294 845 284 843 l 304 833 q 318 815 318 817 l 317 814 q 303 795 315 809 q 250 716 291 781 l 243 704 l 214 654 q 140 515 182 595 q 77 388 104 444 l 64 361 l 14 253 q 28 261 16 253 q 77 287 52 275 q 151 313 130 313 q 179 301 169 313 l 189 285 q 199 273 193 277 q 233 264 208 264 q 290 273 250 264 q 384 296 358 288 l 389 296 q 397 294 395 296 q 399 288 399 291 q 311 245 399 269 q 233 233 264 233 q 172 254 193 233 q 160 272 166 261 q 156 279 157 277 q 149 282 154 282 q 132 277 144 281 q 10 212 83 260 l -3 203 q -18 199 -12 199 z "},"i":{"ha":286,"x_min":-29,"x_max":313,"o":"m 31 192 l 24 192 q -21 211 -8 194 q -29 237 -29 222 q 2 307 -29 263 q 39 339 26 339 q 69 312 43 339 l 69 311 q 61 292 69 303 q 45 275 57 286 q 16 239 22 252 l 15 234 q 21 232 16 233 q 31 231 26 231 q 42 230 37 230 q 189 260 92 230 q 277 292 247 277 q 297 298 290 298 q 309 294 304 298 q 313 284 313 290 q 304 270 313 277 q 300 268 304 270 q 288 261 296 265 q 253 248 279 256 q 31 192 98 194 m 87 387 q 73 392 79 387 q 66 407 66 398 q 69 419 66 412 q 82 439 72 425 q 119 476 101 464 q 133 485 131 484 q 138 485 136 485 q 143 484 141 485 q 159 454 145 483 q 162 445 162 448 q 149 431 162 436 q 144 427 145 430 q 126 408 138 418 q 87 387 103 387 z "},"j":{"ha":355,"x_min":-841,"x_max":369,"o":"m -616 -668 l -625 -668 q -781 -617 -721 -666 q -841 -491 -841 -568 q -822 -401 -841 -448 q -666 -187 -783 -302 q -235 110 -496 -21 q -43 195 -142 157 l -38 197 l -26 228 q 34 360 14 332 q 39 367 38 366 q 41 368 40 368 l 58 361 q 73 354 71 355 q 75 352 75 353 l 74 347 q 37 238 73 336 q 32 222 32 224 l 51 228 q 296 289 189 273 q 354 294 334 294 q 362 293 358 294 q 367 290 366 293 q 369 285 369 288 q 364 277 369 280 q 306 262 361 274 q 160 227 218 242 q 17 183 96 210 l -3 132 l -22 85 q -211 -338 -133 -202 q -398 -583 -305 -505 q -514 -651 -454 -630 q -604 -667 -558 -666 q -616 -668 -611 -667 m -622 -630 l -608 -629 q -384 -513 -484 -624 q -172 -150 -277 -394 l -157 -118 q -65 123 -119 -25 l -53 157 q -93 140 -56 157 q -435 -42 -281 61 q -785 -399 -703 -225 q -807 -490 -807 -449 q -769 -580 -807 -543 q -711 -616 -746 -604 q -640 -629 -680 -627 l -622 -630 m 73 435 l 66 435 q 52 450 56 439 q 51 456 51 453 q 67 487 51 465 q 92 515 86 511 l 101 522 q 117 532 115 531 q 122 534 120 534 q 129 532 126 534 q 139 513 131 530 q 148 494 148 496 q 144 485 148 489 q 133 479 140 481 q 130 476 130 478 q 113 457 126 469 q 73 435 87 435 z "},"k":{"ha":543,"x_min":-94,"x_max":570,"o":"m -79 93 l -93 98 l -93 99 q -94 106 -94 100 q -92 126 -94 114 q -83 152 -90 138 q -61 190 -77 165 l -15 271 q 104 473 60 399 q 132 520 121 502 l 222 671 q 269 747 255 727 q 310 785 291 777 q 314 787 313 787 q 342 762 315 787 l 342 760 q 307 705 342 749 q 267 649 291 684 q 224 587 242 614 q 54 327 119 436 l 34 292 l 36 292 q 91 324 43 297 q 145 355 138 351 q 194 370 172 370 q 201 368 199 370 l 214 332 l 210 328 q 119 281 203 321 l 92 269 l 95 268 l 218 270 q 499 285 393 275 l 540 288 q 570 275 570 288 q 546 258 570 264 q 495 252 530 254 q 358 244 418 246 l 216 236 q 44 225 163 233 q 28 224 35 224 q 2 237 12 224 l -33 176 q -61 122 -51 145 q -79 93 -74 93 z "},"l":{"ha":307,"x_min":-113,"x_max":331,"o":"m -67 8 l -70 8 q -110 37 -100 12 q -113 56 -113 45 q -111 69 -113 62 q -75 164 -105 108 l -31 245 q 128 534 68 422 q 185 642 144 564 l 210 690 l 252 772 l 269 804 q 280 825 273 811 q 295 846 292 846 l 331 831 l 331 828 q 320 780 331 808 q 262 669 307 747 q 245 640 254 656 l 201 566 q 189 545 199 560 l 79 359 l 17 254 l 5 232 l -32 169 q -69 95 -58 124 q -80 51 -80 65 q -77 41 -80 42 q -68 41 -74 41 q 66 106 -28 44 q 222 228 135 153 q 262 260 243 245 q 296 282 282 274 l 309 291 q 317 294 313 294 q 323 289 322 294 q 318 277 323 285 q 313 269 318 277 q 219 181 291 239 q 18 39 98 82 q -67 8 -38 8 z "},"m":{"ha":739,"x_min":-68,"x_max":753,"o":"m -44 181 l -48 182 q -66 196 -60 184 q -68 206 -68 199 l -68 212 q -36 256 -67 217 q 16 319 -1 300 q 46 346 33 338 q 71 359 62 356 l 73 359 q 76 358 75 359 q 80 353 77 357 q 88 343 83 350 q 95 333 93 336 q 97 328 97 330 q 83 310 96 323 q 65 290 65 292 q 70 292 66 290 q 102 309 82 300 q 162 323 137 323 q 197 294 191 321 q 199 279 198 289 q 200 267 199 269 q 207 265 201 265 q 221 264 213 264 q 252 268 237 264 q 297 279 267 271 q 332 288 319 286 q 373 293 356 293 q 415 281 400 293 q 428 269 418 279 q 445 255 437 258 q 484 251 453 251 q 513 252 498 251 q 652 277 566 256 q 745 294 720 294 q 753 283 753 293 q 747 274 753 278 l 745 273 q 655 245 720 260 q 574 229 606 234 q 490 220 525 220 q 450 222 466 220 q 421 232 434 224 l 407 245 q 396 256 400 252 q 387 260 391 259 q 375 260 382 260 q 345 258 362 260 l 305 247 q 239 231 262 234 q 215 229 229 229 l 202 229 q 163 262 170 231 l 161 277 q 159 284 161 284 l 153 283 q 92 256 126 277 q 60 236 74 245 q -44 181 -23 181 z "},"n":{"ha":655,"x_min":-44,"x_max":674,"o":"m 378 166 l 361 166 q 275 201 309 168 q 228 288 248 229 l 224 300 q 184 287 213 300 q 85 232 155 275 q 5 188 22 194 q -14 184 -5 184 q -24 186 -22 184 q -43 203 -37 191 q -44 214 -44 208 q -27 263 -44 233 q -11 288 -20 275 q 34 346 12 323 q 80 380 56 368 q 94 385 90 385 q 95 384 95 385 q 99 378 96 382 q 107 367 102 374 q 117 353 112 361 l 112 345 q 90 323 107 340 q 26 250 49 283 l 23 247 l 61 267 q 157 316 122 300 q 222 336 201 336 q 254 320 245 336 q 259 306 257 315 q 321 208 281 227 q 370 198 339 199 q 581 265 441 198 q 661 295 641 295 q 671 292 667 295 q 674 283 674 288 q 665 272 674 277 q 611 243 647 261 q 502 197 553 215 q 378 166 427 169 z "},"o":{"ha":341,"x_min":-65,"x_max":362,"o":"m -35 162 q -43 163 -39 162 q -63 179 -58 167 q -65 193 -65 184 q -52 236 -65 211 q -16 286 -39 261 q 16 314 -1 301 q 44 331 33 327 q 47 332 45 331 q 51 333 49 332 q 58 333 54 333 q 86 325 73 333 q 95 315 94 320 l 92 302 q 90 294 90 296 q 82 264 90 283 l 80 258 q 99 254 82 256 q 141 252 117 252 q 259 263 199 252 q 326 281 302 271 q 347 288 340 288 q 357 284 353 287 q 361 278 360 281 q 362 271 362 274 q 334 250 361 260 q 245 229 301 239 q 101 212 154 212 q 52 218 66 212 q 33 197 49 212 q 1 173 17 182 q -35 162 -19 162 m -26 198 q -18 201 -24 198 q 19 228 1 210 q 26 235 26 235 l 24 239 q 21 247 22 242 q 19 254 20 251 q 14 250 18 254 q -22 209 -9 230 l -27 199 q -26 198 -27 198 z "},"p":{"ha":429,"x_min":-136,"x_max":450,"o":"m -101 -264 l -136 -248 l -136 -244 q -133 -227 -136 -239 q -125 -203 -130 -214 q -60 41 -102 -136 l -44 111 q 9 322 -5 283 q 22 347 14 335 q 35 360 31 358 q 64 347 39 360 q 71 343 70 344 q 71 338 71 342 q 57 292 71 326 q 8 155 36 243 q -41 -20 -12 86 q -47 -39 -44 -33 l -47 -43 q 20 94 -46 -43 q 101 256 85 231 q 180 347 138 319 q 192 353 185 351 q 224 363 211 363 q 248 353 239 363 q 258 329 258 343 q 241 283 258 309 q 216 252 231 268 l 210 245 q 302 264 212 245 q 400 280 364 276 q 436 283 435 283 q 438 283 437 283 q 450 275 450 283 q 438 261 450 267 l 269 224 q 157 203 166 203 q 154 204 155 203 q 151 205 153 205 l 151 205 q 142 218 143 209 q 144 225 142 222 q 152 233 146 229 q 222 318 209 283 q 225 329 225 325 q 208 323 218 329 q 114 200 157 297 l 105 180 q 54 65 87 140 l -60 -195 q -101 -264 -83 -246 z "},"q":{"ha":392,"x_min":-45,"x_max":416,"o":"m -23 -275 l -24 -275 q -37 -262 -28 -274 q -45 -241 -45 -250 q 12 -39 -45 -224 l 24 -1 q 71 149 38 44 q 111 271 104 254 l 96 263 q -6 215 20 215 q -28 223 -20 215 q -36 243 -36 231 q -12 289 -36 260 q 28 326 5 309 q 77 349 58 348 l 81 349 q 97 345 90 349 q 116 315 113 337 l 125 319 q 129 321 127 320 q 134 327 131 322 q 153 345 146 344 q 180 331 156 345 q 187 327 186 328 q 188 322 188 326 q 186 311 188 318 q 184 307 185 309 q 180 297 183 304 q 171 278 178 291 l 142 214 l 210 224 q 355 253 320 240 q 380 264 372 258 q 407 275 398 275 q 416 267 416 275 q 406 249 416 260 q 379 227 394 234 q 329 213 364 220 q 204 191 300 207 q 129 176 130 178 q 124 140 128 174 q 111 37 117 82 q 43 -229 85 -165 q -3 -267 26 -258 q -10 -270 -8 -270 q -23 -275 -22 -275 m -3 -199 q 0 -195 -3 -199 l 1 -193 q 67 10 38 -139 q 71 30 71 27 l 56 -12 q 1 -185 26 -97 q -3 -199 -3 -198 l -3 -199 m 9 253 l 10 254 q 39 267 14 254 q 68 283 57 275 l 64 290 q 62 292 64 292 q 30 273 45 283 q 9 253 10 257 z "},"r":{"ha":372,"x_min":-46,"x_max":277,"o":"m -24 156 q -33 158 -28 156 q -46 180 -46 164 q -28 232 -46 192 l 12 317 q 41 370 31 359 q 47 373 44 373 q 65 366 50 373 l 82 358 q 83 353 83 357 q 79 331 83 344 q 66 305 74 317 l 31 249 q 48 263 36 252 q 106 318 60 275 l 117 329 q 179 365 155 365 q 193 363 186 365 q 213 356 200 361 q 231 353 220 353 q 273 349 266 352 q 275 348 275 349 q 275 347 275 347 q 276 347 275 347 q 277 343 277 347 q 277 335 277 340 l 277 332 q 259 323 273 327 q 231 320 245 320 q 189 330 213 321 q 178 333 183 333 q 152 319 168 332 q 123 291 145 313 q 75 244 100 269 q 35 204 50 219 q 6 173 15 182 q -10 160 -3 164 q -24 156 -16 156 z "},"s":{"ha":306,"x_min":-129,"x_max":326,"o":"m 44 46 q 1 50 18 47 q -129 114 -129 63 q -115 138 -129 134 l -92 142 q 2 159 -38 150 q 12 162 9 161 q 16 163 16 163 l 12 172 q -14 256 -14 218 q -3 302 -14 280 q 18 330 5 317 q 79 374 39 353 q 126 390 104 386 q 149 391 132 391 q 173 387 173 391 q 174 378 174 386 l 176 362 l 177 353 q 173 348 177 349 l 172 347 q 151 340 167 345 l 128 334 q 39 273 53 307 q 34 250 34 262 q 44 205 34 230 l 58 174 l 82 182 q 192 226 140 200 q 269 272 223 242 q 296 289 287 283 q 315 297 310 297 q 322 294 319 297 q 326 286 326 292 q 310 264 326 279 q 211 200 277 233 q 98 154 159 174 l 75 146 l 88 125 q 101 103 97 111 q 107 90 106 95 q 109 79 109 85 q 69 47 106 52 q 44 46 56 46 m 54 83 q 64 84 62 84 q 66 85 66 85 q 51 110 66 87 q 33 134 35 133 l 21 132 q -93 109 -34 118 q -60 94 -83 101 q 24 83 -27 85 l 54 83 z "},"t":{"ha":214,"x_min":-468,"x_max":610,"o":"m -401 -747 q -422 -728 -416 -747 q -427 -686 -427 -713 q -334 -387 -427 -564 q -159 -102 -254 -231 l -144 -81 q -118 -15 -125 -33 l -71 102 l 20 336 l 47 404 q 90 515 64 452 q 123 598 113 572 q 132 623 132 621 l 21 603 q -208 558 -109 579 q -302 538 -259 548 l -326 532 q -414 513 -404 514 q -458 509 -432 509 q -462 523 -459 509 l -468 547 q -401 572 -448 562 q -232 601 -362 581 l -197 606 q -52 629 -109 621 q -14 635 -43 631 l 139 658 q 146 659 145 659 q 185 759 147 659 q 266 955 243 909 l 280 956 l 302 948 q 304 946 304 947 l 304 941 q 294 901 302 929 q 220 697 269 815 q 210 670 210 671 q 210 669 210 669 l 236 673 q 475 708 399 697 q 583 720 563 720 l 593 720 q 606 715 602 719 q 610 705 610 711 q 599 690 610 694 l 590 688 q 574 686 581 686 q 565 686 567 686 q 509 680 557 686 q 315 652 425 669 q 194 633 199 635 q 182 604 191 625 l 127 473 q 94 392 105 421 l -33 83 q -48 46 -44 59 l -54 31 l -50 37 q 178 265 73 180 l 214 290 q 227 296 221 296 q 234 290 233 296 q 231 279 234 286 q 184 233 221 267 l 141 193 q 20 67 56 106 q -91 -64 -44 -4 q -101 -82 -98 -72 l -122 -133 q -154 -210 -136 -168 l -180 -275 l -210 -347 q -380 -735 -349 -695 q -392 -746 -387 -744 q -401 -747 -397 -747 m -393 -692 q -385 -677 -393 -692 q -241 -327 -347 -600 q -203 -231 -222 -281 l -194 -208 q -220 -250 -195 -208 q -288 -368 -254 -304 q -391 -636 -377 -533 q -395 -686 -395 -663 q -393 -692 -395 -692 z "},"u":{"ha":582,"x_min":-47,"x_max":604,"o":"m -14 180 l -21 181 q -46 203 -40 185 q -47 210 -47 206 q -44 228 -47 218 q -26 262 -41 238 q 71 376 31 347 q 101 388 84 385 q 112 389 107 389 q 117 389 116 389 q 125 370 119 388 q 132 353 132 357 q 128 347 132 351 q 110 334 125 343 q 8 235 67 312 q -1 221 -1 224 q 86 262 5 221 q 226 340 146 291 q 272 367 256 358 q 307 381 297 381 q 325 371 320 381 q 327 363 327 368 q 323 346 327 357 q 309 318 317 331 l 298 302 q 288 269 288 288 q 289 264 288 267 q 355 246 298 246 q 559 284 431 246 q 587 290 579 290 q 594 289 591 290 q 600 287 596 289 q 604 277 604 285 q 599 267 604 270 q 588 260 595 263 q 528 243 581 256 q 341 211 404 211 q 312 212 321 211 q 246 261 257 220 q 244 279 244 269 q 250 316 244 295 l 250 317 q 250 317 250 317 l 249 317 q 245 315 248 317 l 226 304 q 64 212 132 248 l 45 201 q -14 180 9 180 z "},"v":{"ha":418,"x_min":-39,"x_max":444,"o":"m -4 167 l -12 167 q -27 172 -20 168 q -39 197 -39 180 q -35 218 -39 208 q -7 279 -28 235 q 11 317 5 306 l 19 333 q 29 353 27 348 q 52 396 45 388 q 57 401 55 400 q 75 395 59 401 l 92 389 q 95 380 95 389 q 67 309 95 353 l 47 277 q 26 241 45 275 q 14 218 14 220 q 79 264 18 220 q 168 313 144 313 q 184 309 174 313 q 350 283 286 283 l 366 283 q 399 286 378 283 q 423 287 413 287 q 435 286 432 287 q 441 281 439 285 q 444 275 444 278 q 441 270 444 272 l 429 262 q 368 252 409 252 l 354 252 q 168 280 280 252 q 28 180 134 265 l 15 174 q -4 167 3 168 z "},"w":{"ha":634,"x_min":-26,"x_max":654,"o":"m 9 162 l 1 163 q -21 180 -13 167 q -26 201 -26 189 q -3 289 -26 221 q 16 341 7 317 q 22 360 22 355 q 28 382 24 376 q 65 382 63 382 q 66 381 66 382 q 67 379 66 380 q 69 373 68 378 q 73 351 73 357 q 56 289 73 332 l 41 252 q 37 237 37 239 q 56 255 37 237 q 117 319 101 299 q 137 339 128 332 q 155 346 145 346 q 176 333 168 346 q 178 322 178 329 q 173 292 178 313 q 163 250 165 261 q 162 233 162 243 q 162 225 162 226 q 164 225 163 225 q 169 224 165 224 q 240 256 193 226 q 255 266 245 259 q 264 273 264 273 l 263 275 q 259 290 259 280 q 288 342 259 313 q 327 369 307 361 q 336 370 330 370 q 352 362 347 370 q 358 345 358 355 q 335 294 358 326 l 320 276 q 336 273 321 275 q 412 266 370 266 q 558 279 475 266 q 645 289 625 288 q 652 286 650 289 q 654 279 654 283 q 648 271 654 275 q 623 260 633 264 q 536 243 595 251 q 415 235 468 235 q 298 251 339 235 l 294 252 q 288 248 293 252 q 165 187 212 187 q 123 236 123 187 q 125 253 123 243 l 125 262 l 122 258 q 115 250 119 256 q 37 173 56 188 q 9 162 21 162 m 293 297 q 309 315 301 305 q 315 323 315 321 q 301 309 313 323 q 293 297 296 302 z "},"x":{"ha":387,"x_min":-142,"x_max":415,"o":"m -125 111 q -131 113 -128 111 q -142 125 -140 116 q -134 148 -142 136 q -106 178 -119 172 q -101 180 -103 180 q -96 178 -98 180 q -92 175 -93 176 l -90 174 q -44 216 -88 174 l 7 264 l -1 303 q -6 328 -6 319 q -4 342 -6 340 q 33 353 -3 344 l 35 352 q 54 309 46 346 q 139 388 119 372 q 176 410 163 408 q 189 412 182 412 q 216 405 209 412 q 218 402 218 403 l 217 374 q 216 366 216 369 q 212 361 216 363 q 194 357 206 358 q 182 353 189 356 l 180 353 q 89 287 152 337 q 56 257 56 261 l 57 253 q 69 227 60 235 q 100 220 78 220 q 136 223 116 220 q 199 235 172 229 q 362 281 284 254 q 400 290 386 290 q 411 286 408 290 q 415 276 415 281 q 388 256 415 265 q 312 232 380 252 l 290 226 q 145 188 208 203 q 91 181 114 181 q 20 222 41 181 q 20 225 20 223 q 18 227 19 227 q 13 222 17 227 l -34 182 q -107 118 -98 125 q -125 111 -117 111 z "},"y":{"ha":450,"x_min":-562,"x_max":473,"o":"m -418 -776 l -433 -776 q -517 -745 -481 -774 q -562 -628 -562 -706 l -562 -612 q -507 -431 -554 -529 q -482 -387 -498 -412 q -92 6 -368 -191 q 111 138 14 81 q 115 141 115 140 q 118 152 115 141 q 134 205 128 184 l 150 260 l 161 296 l 172 335 q 164 327 170 335 q 105 263 137 296 q 57 218 73 230 q 23 205 38 205 q 16 206 19 205 q -4 222 3 211 q -9 246 -9 232 q 11 328 -7 289 q 22 343 16 337 q 33 349 28 349 q 49 340 34 349 q 66 330 64 332 q 68 323 68 328 q 64 308 68 317 q 56 296 62 304 q 38 256 43 277 l 37 252 q 67 275 40 252 q 170 387 128 326 l 177 397 q 193 410 186 409 l 235 408 q 193 209 235 355 q 185 181 185 183 l 190 184 q 442 288 343 267 l 465 292 q 471 289 469 292 q 473 281 473 285 q 472 278 473 279 q 466 275 471 277 q 456 270 457 271 q 455 270 456 270 q 449 267 454 269 q 435 261 444 264 q 343 223 372 236 l 336 220 q 267 187 306 206 q 178 140 216 162 q 171 137 172 137 q 166 123 170 136 q 137 36 151 77 q 119 -15 122 -6 q 113 -31 115 -24 q 54 -189 85 -112 q -74 -458 -5 -334 q -232 -676 -152 -600 q -372 -767 -301 -745 q -418 -776 -393 -774 m -429 -740 q -356 -721 -394 -740 q -258 -648 -307 -697 q -79 -376 -170 -562 q 22 -139 -18 -252 q 30 -116 28 -122 q 52 -53 33 -110 l 56 -43 q 81 35 64 -18 q 98 86 94 72 q 101 95 100 94 q 11 39 98 95 q -458 -408 -329 -184 q -519 -564 -502 -485 q -528 -631 -528 -602 q -526 -657 -528 -643 q -499 -713 -522 -691 q -429 -740 -473 -740 z "},"z":{"ha":538,"x_min":-26,"x_max":551,"o":"m 79 -262 q 28 -233 44 -262 q 22 -204 22 -220 q 28 -172 22 -189 q 114 -32 51 -109 q 248 97 164 26 q 321 157 292 134 q 324 159 322 158 q 326 163 326 160 q 324 171 326 167 q 273 204 319 204 q 172 178 231 204 q 44 97 107 149 q 18 77 26 81 l -10 103 l 17 162 q 73 296 46 210 q 87 343 87 339 l 81 334 q 34 247 50 293 q 13 215 24 220 q 4 217 8 215 q -6 221 -1 219 q -16 225 -12 224 q -20 228 -19 227 q -26 232 -25 230 q -26 238 -26 234 q -12 279 -26 254 q 59 374 16 328 q 98 398 82 398 q 126 361 126 398 q 111 300 126 340 l 109 294 q 102 279 104 286 q 66 190 82 223 l 62 181 q 70 185 64 181 q 220 248 140 230 q 268 254 246 254 q 300 250 285 254 q 365 197 349 239 l 367 191 q 429 235 374 198 q 509 281 473 264 q 541 294 532 293 q 549 292 546 294 q 551 286 551 289 q 547 278 551 281 q 439 202 532 262 q 405 179 418 189 l 371 155 q 363 104 369 127 q 291 -60 342 26 q 256 -115 275 -87 q 151 -230 203 -191 q 79 -262 110 -262 m 77 -229 q 89 -227 82 -229 q 180 -152 126 -213 q 260 -35 224 -102 q 318 104 298 35 l 321 116 q 309 106 319 116 q 170 -16 224 39 q 73 -150 105 -85 q 55 -205 55 -184 q 57 -216 55 -212 q 77 -229 63 -229 z "},"ª":{"ha":291,"x_min":-14,"x_max":318,"o":"m 172 964 l 165 964 q 135 983 142 964 q 133 997 133 988 q 141 1035 133 1011 q 134 1033 138 1035 q 29 996 58 1004 q 11 994 20 994 q 2 994 4 994 q -14 1011 -14 999 q -10 1023 -14 1017 q 3 1037 -6 1028 q 62 1074 30 1061 q 108 1082 83 1082 q 149 1067 136 1082 q 151 1062 151 1063 q 152 1061 151 1061 l 152 1061 q 165 1067 153 1061 q 180 1072 173 1072 q 183 1072 182 1072 q 185 1070 184 1071 q 187 1070 186 1070 q 190 1066 188 1069 q 191 1061 191 1063 q 197 1052 191 1059 l 195 1047 q 185 1039 191 1042 q 172 1025 179 1035 q 159 992 159 1005 q 161 986 159 987 q 172 985 163 985 q 282 1021 213 985 q 309 1031 306 1031 q 318 1025 318 1031 q 260 989 318 1016 l 253 985 q 172 964 203 965 m 12 1014 l 19 1015 q 79 1033 31 1017 l 116 1046 l 116 1050 q 98 1053 110 1053 q 37 1032 71 1053 q 15 1016 23 1024 l 12 1014 m 79 836 q 72 840 75 837 q 68 848 68 843 q 69 884 68 869 q 79 892 71 892 q 86 891 82 892 q 97 889 90 890 q 121 888 104 888 q 207 897 161 888 l 225 900 q 235 893 234 900 l 236 878 q 230 870 233 871 q 219 867 227 868 q 155 855 186 863 l 97 839 l 90 838 l 79 836 z "},"¹":{"ha":515,"x_min":-75,"x_max":562,"o":"m -53 71 q -64 72 -62 71 q -68 81 -65 73 q -71 92 -68 85 q -74 104 -73 99 q -75 111 -75 110 q -66 121 -75 116 q -44 128 -57 125 q 107 150 -18 133 l 123 152 l 123 153 l 124 154 q 147 209 130 172 l 190 298 l 323 581 l 373 684 l 437 820 q 444 835 444 832 l 444 835 q 372 777 418 812 q 223 688 289 715 q 181 676 201 680 l 174 691 l 165 711 q 180 724 170 716 q 220 746 189 729 l 252 764 l 298 790 q 377 844 345 821 q 422 879 408 867 q 429 884 426 882 q 511 964 483 928 q 517 972 513 967 l 517 972 q 542 989 528 989 q 556 984 550 989 q 562 968 562 978 q 544 935 562 960 q 410 684 519 904 q 263 380 339 541 q 192 228 214 277 l 166 174 q 157 156 157 159 l 274 170 q 354 180 349 180 q 365 178 361 180 q 371 175 370 177 q 373 167 372 172 q 374 160 374 162 q 374 158 374 159 q 369 153 374 156 q 358 149 363 151 l 352 147 q 314 143 340 145 q 175 124 239 135 q 130 115 132 117 l 126 114 q 115 113 122 114 l 82 105 q -24 77 17 90 l -43 71 l -53 71 z "},"²":{"ha":563,"x_min":-67,"x_max":507,"o":"m -56 71 q -63 75 -60 71 q -67 86 -67 81 q -36 112 -64 98 l -28 117 q -28 123 -28 117 q -26 140 -27 132 q 10 199 -21 160 q 92 290 35 229 l 185 387 q 352 568 322 528 q 401 640 374 597 q 469 820 469 742 q 447 892 469 868 q 393 916 428 913 l 389 916 q 348 911 369 916 q 298 888 318 903 q 213 764 238 850 q 193 656 203 736 l 192 652 q 191 644 191 646 q 190 637 190 643 q 183 614 186 621 l 180 614 q 163 615 172 614 q 146 616 154 616 q 140 659 140 618 q 143 703 140 680 q 196 852 155 787 q 372 959 261 951 l 382 960 q 475 921 439 960 q 507 833 506 887 l 507 813 q 429 620 503 730 q 384 556 407 587 q 285 445 357 520 l 208 364 q 94 245 130 285 q 30 171 58 206 l 25 165 q 5 139 16 155 l 1 132 l 33 148 q 173 218 129 197 q 417 304 353 304 q 452 296 446 304 q 452 283 452 294 q 451 256 452 259 q 410 248 445 248 q 321 233 370 246 q -14 87 186 196 q -56 71 -43 71 z "},"³":{"ha":563,"x_min":-95,"x_max":496,"o":"m -29 115 q -79 125 -59 115 q -92 138 -88 130 l -93 138 q -95 150 -95 143 q -94 161 -95 157 q -31 238 -85 191 q 71 311 12 275 q 247 391 157 363 q 357 414 307 410 q 359 416 358 414 q 365 425 361 417 q 401 529 399 480 l 401 536 q 385 579 401 565 q 304 604 359 604 q 266 601 286 604 q 136 562 216 595 q 91 544 98 547 q 79 542 83 542 l 61 575 l 63 578 q 103 606 77 590 q 134 624 113 610 l 149 633 q 273 718 202 667 q 389 806 345 769 q 431 850 410 824 q 460 909 460 887 l 460 913 q 436 935 458 928 q 398 940 424 940 q 328 929 366 940 q 205 860 252 906 q 172 804 180 836 l 170 799 q 166 781 168 793 q 157 753 161 753 q 151 754 156 753 q 138 755 146 754 q 126 756 131 755 q 120 756 121 756 q 117 762 119 756 q 114 788 114 770 q 200 921 114 861 q 359 978 269 967 q 390 979 372 979 q 414 979 404 979 q 492 934 477 971 q 496 911 496 922 q 430 799 495 863 l 416 787 q 370 750 406 777 q 254 665 317 710 l 232 650 l 241 651 q 294 654 266 654 q 408 623 370 654 q 446 540 446 591 q 406 412 446 477 l 408 412 q 409 408 408 412 q 410 401 409 405 l 410 398 q 407 396 410 396 q 404 395 405 395 q 400 393 404 394 q 394 392 396 392 q 391 389 393 391 q 217 220 328 300 q 3 117 98 136 q -29 115 -14 115 m -19 147 l -7 149 q 195 249 82 165 q 323 366 267 302 q 334 380 334 378 q 298 372 330 380 q 63 269 174 341 q -56 166 -23 212 q -62 152 -62 156 q -56 150 -61 151 q -47 148 -52 149 q -34 147 -43 147 l -19 147 z "},"º":{"ha":194,"x_min":-66,"x_max":216,"o":"m -46 980 l -52 981 q -64 990 -61 983 q -66 999 -66 994 q -33 1055 -66 1019 q -13 1071 -24 1063 q 6 1082 -1 1079 l 16 1083 q 24 1082 20 1083 q 40 1073 37 1078 l 37 1059 q 31 1041 37 1053 l 30 1038 q 42 1036 31 1037 q 70 1034 54 1034 q 148 1041 109 1034 q 192 1052 176 1046 q 206 1055 201 1055 q 213 1053 210 1055 q 216 1046 216 1050 q 197 1033 216 1039 q 139 1020 176 1026 q 43 1010 79 1010 q 12 1014 20 1010 q -2 1001 9 1010 q -46 980 -26 980 m -41 1002 q -35 1004 -39 1002 q -11 1020 -22 1009 l -6 1024 l -11 1035 l -14 1033 q -37 1008 -29 1021 l -41 1002 l -41 1002 m 7 853 l 2 853 q -6 856 -3 853 q -9 864 -9 859 q -8 901 -9 886 q 3 909 -7 909 q 8 907 5 909 q 19 905 12 906 q 45 905 26 905 q 130 913 83 905 l 149 917 q 158 910 157 917 q 159 895 159 908 q 153 886 156 888 q 142 884 149 884 q 78 871 109 879 l 20 856 l 7 853 z "},"%":{"ha":790,"x_min":3,"x_max":688,"o":"m 35 33 q 28 34 31 33 q 3 68 3 41 q 67 220 3 112 q 218 447 119 304 l 292 553 q 534 884 446 770 l 585 949 q 574 945 584 949 q 418 901 494 911 l 408 900 q 409 897 408 899 q 420 858 420 879 q 334 725 420 800 q 239 656 290 688 q 96 600 146 600 q 63 612 74 600 q 52 642 52 623 q 90 731 52 677 q 127 779 102 749 q 269 920 201 867 q 313 949 292 939 q 363 961 338 960 l 372 961 q 383 959 382 961 q 384 953 383 958 q 386 943 385 948 q 388 935 387 939 q 389 930 389 930 q 390 930 389 930 q 416 933 397 930 q 577 982 496 944 l 614 999 q 663 1019 654 1018 l 670 1019 l 688 995 l 688 982 q 642 930 664 956 l 563 836 l 548 817 q 473 724 534 802 q 340 551 429 669 q 266 450 292 486 l 252 431 q 71 160 113 239 q 35 71 35 94 l 35 64 l 38 65 q 274 224 89 71 l 292 239 q 349 286 329 271 q 362 298 358 292 q 434 376 400 349 q 502 402 469 402 l 506 392 l 513 391 q 552 378 535 390 q 586 305 586 357 q 531 180 586 247 q 460 113 501 144 q 330 54 383 54 q 279 79 296 54 q 269 111 269 92 q 296 196 269 144 l 301 205 l 294 199 q 52 35 109 48 q 35 33 42 33 m 334 92 q 439 138 374 92 q 541 252 511 192 q 554 306 554 277 q 553 326 554 319 q 541 347 549 338 q 511 360 528 360 q 506 357 509 360 q 498 352 503 355 q 444 311 473 338 q 358 210 399 269 q 309 112 311 142 l 309 106 q 324 94 311 97 q 334 92 328 92 m 96 640 l 104 640 q 235 696 153 647 l 283 728 q 379 826 354 780 q 389 859 389 844 q 381 882 389 872 q 353 890 375 888 q 332 894 340 892 l 330 895 q 299 873 328 895 q 136 720 220 817 q 94 647 100 676 l 93 642 q 96 640 93 640 z "},"$":{"ha":1587,"x_min":1,"x_max":1481,"o":"m 488 -237 l 475 -234 l 475 -227 q 498 -136 477 -195 l 526 -67 q 567 34 550 -5 l 573 51 q 532 41 569 49 q 101 -24 240 -24 q 3 5 17 -24 l 3 7 q 1 19 1 12 q 155 138 1 63 q 436 252 267 193 q 680 328 566 297 q 691 331 690 331 q 703 359 692 332 q 745 460 714 386 l 751 477 l 724 477 l 589 474 q 475 473 553 473 l 414 473 q 173 523 201 475 q 163 553 163 536 q 175 589 163 570 q 211 628 186 604 q 562 836 332 744 q 917 944 718 897 l 945 950 l 970 1017 q 1016 1118 1004 1103 l 1032 1118 l 1055 1109 l 1055 1103 q 1015 979 1055 1072 l 1008 963 l 1027 966 q 1297 995 1187 995 q 1428 978 1381 995 q 1481 918 1481 958 q 1478 899 1481 908 q 1452 862 1470 880 l 1441 851 l 1411 874 q 1417 886 1414 882 q 1423 896 1420 891 q 1432 915 1432 911 q 1414 927 1432 920 q 1354 937 1390 935 q 1304 939 1331 939 q 1019 911 1186 939 q 981 903 982 905 l 960 854 l 876 668 q 861 635 867 648 l 809 519 q 818 518 809 518 q 881 518 827 518 l 913 518 q 1125 510 1052 518 q 1257 484 1211 501 q 1310 440 1297 467 q 1312 437 1311 439 q 1313 435 1312 436 q 1316 433 1314 433 q 1352 427 1339 430 q 1366 421 1356 425 q 1378 417 1377 418 q 1382 414 1379 416 q 1385 413 1385 413 q 1389 411 1385 412 q 1392 409 1392 410 q 1391 406 1392 408 q 1390 402 1391 404 q 1389 398 1390 399 q 1386 396 1388 396 q 1382 397 1385 397 q 1373 398 1378 397 q 1361 400 1368 399 l 1346 404 q 1316 406 1331 406 q 1262 325 1310 366 q 951 163 1171 245 q 723 90 848 126 q 622 63 672 76 q 612 60 612 60 q 564 -57 610 57 q 530 -146 547 -99 q 493 -233 502 -219 q 488 -237 488 -237 m 98 7 l 124 8 q 517 71 273 15 q 589 88 585 86 l 669 281 q 673 289 671 286 q 674 294 674 292 q 632 281 673 294 q 236 141 402 213 q 43 33 88 77 q 32 18 32 22 q 37 16 33 17 q 98 7 56 7 m 627 98 l 655 105 q 1194 316 1025 206 q 1274 391 1254 356 q 1280 408 1280 401 q 796 326 1095 402 q 715 305 720 307 q 652 158 713 300 q 628 100 628 101 l 627 98 m 732 343 l 751 348 q 1195 433 1027 421 q 1248 436 1229 436 l 1270 437 l 1265 439 q 1011 480 1215 475 l 931 481 q 805 479 851 481 q 792 479 793 479 q 788 471 791 479 l 732 343 m 523 513 q 670 515 583 513 q 768 517 757 517 l 842 695 l 918 881 l 921 891 q 908 888 919 891 q 853 876 882 883 q 716 838 777 857 q 690 829 711 836 q 513 763 597 800 q 234 588 328 682 q 208 552 208 562 q 244 532 208 543 q 423 515 297 517 q 523 513 448 513 z "},"€":{"ha":1139,"x_min":-69,"x_max":1157,"o":"m 68 290 q 56 288 62 289 q 55 255 55 271 q 58 210 55 232 q 151 39 72 102 q 243 -10 194 6 q 329 -22 281 -22 q 406 -16 365 -22 q 842 139 572 10 q 903 170 864 150 q 972 205 943 189 q 1021 229 993 215 q 1072 255 1048 243 q 1104 270 1096 267 l 1140 288 q 1149 290 1145 290 q 1152 290 1151 290 q 1157 283 1157 288 q 1147 273 1156 279 q 1082 230 1107 245 q 1058 215 1061 217 q 1057 214 1058 214 q 1023 195 1038 203 q 980 172 1008 187 q 947 155 970 167 q 899 131 924 144 q 858 111 874 119 q 457 -38 615 -4 q 372 -52 414 -47 q 342 -52 359 -52 q 318 -52 326 -52 l 304 -52 q 205 -29 250 -49 q 59 100 105 14 q 22 258 22 173 q 23 283 22 271 q -24 277 -10 279 q -38 277 -31 277 q -48 277 -45 277 l -53 277 q -63 280 -59 277 q -68 285 -68 282 q -69 291 -69 286 q -68 303 -69 296 q -67 316 -68 311 q -66 324 -67 322 q -58 330 -65 328 q -46 332 -51 332 q -35 331 -41 332 q -11 329 -26 330 q 28 328 1 328 q 48 414 35 370 q 45 414 47 414 q -24 404 -6 406 q -40 404 -31 404 q -53 404 -50 404 q -63 407 -59 405 q -68 412 -68 410 q -69 418 -69 413 q -68 431 -69 424 q -67 444 -68 438 q -66 451 -67 450 q -58 457 -65 456 q -44 459 -50 459 q -35 458 -40 459 q -11 456 -26 456 q 39 456 4 456 l 63 456 q 92 524 75 489 q 332 829 178 696 q 578 981 447 927 q 746 1026 667 1016 q 772 1028 757 1027 q 796 1027 787 1028 q 868 995 843 1021 q 894 940 888 973 q 896 930 895 935 q 896 915 896 925 q 896 899 896 904 q 894 888 895 894 q 889 863 892 874 q 883 838 887 852 q 791 654 857 753 q 646 480 726 556 q 496 391 563 404 q 475 389 487 389 q 456 391 464 389 q 405 425 423 397 q 399 433 403 427 q 393 445 396 439 q 389 455 390 451 q 387 458 387 457 q 388 460 387 459 q 393 463 389 460 q 403 470 397 466 q 413 476 409 473 q 418 479 418 479 q 424 474 419 479 q 433 463 428 470 q 451 446 443 450 q 469 441 458 441 q 576 494 510 442 q 709 630 642 546 q 836 848 801 747 q 849 914 849 886 l 849 920 q 835 964 849 949 q 819 975 828 972 q 772 983 801 983 q 662 965 729 983 q 377 817 513 924 q 138 537 228 697 q 100 456 116 496 q 158 460 133 458 q 210 464 183 462 q 230 466 222 465 q 241 467 237 467 q 247 467 245 467 q 251 467 249 467 q 265 462 260 466 q 266 460 266 461 q 267 457 267 459 q 267 452 267 456 l 267 445 l 265 442 q 255 437 262 439 q 233 434 248 435 q 105 422 167 430 q 92 420 98 421 q 85 419 88 420 q 61 328 69 372 q 100 329 88 328 q 158 333 133 331 q 210 337 183 334 q 230 338 222 338 q 241 339 237 339 q 247 340 245 340 q 251 340 249 340 q 265 334 260 338 q 266 333 266 334 q 267 331 267 332 q 267 326 267 329 l 267 317 l 265 315 q 255 310 262 311 q 233 307 248 308 q 105 295 167 302 q 92 293 98 294 q 82 292 85 292 q 68 290 79 292 z "},"¥":{"ha":1231,"x_min":0,"x_max":1300,"o":"m 977 -31 q 869 -41 921 -35 q 821 -274 823 -198 q 821 -286 821 -282 q 823 -292 822 -290 q 827 -296 825 -293 q 831 -301 829 -298 q 836 -307 834 -304 q 838 -309 837 -308 l 838 -309 l 838 -309 q 839 -310 838 -310 q 839 -311 839 -311 l 840 -312 q 839 -314 840 -313 q 836 -318 838 -315 l 834 -322 q 833 -323 833 -323 q 833 -324 833 -323 q 832 -323 832 -324 l 831 -323 q 817 -317 824 -321 q 806 -310 810 -313 q 795 -279 798 -301 q 794 -259 794 -271 q 795 -237 794 -247 q 839 -45 805 -164 l 837 -45 q 827 -46 830 -45 q 812 -48 823 -46 q 789 -51 802 -50 q 720 -60 738 -58 q 706 -61 713 -61 q 696 -61 700 -61 l 691 -61 q 681 -58 685 -60 q 675 -53 677 -56 l 675 -47 q 676 -34 675 -41 q 676 -21 676 -27 q 677 -14 677 -16 q 686 -7 680 -9 q 698 -5 693 -5 q 709 -7 703 -5 q 733 -9 718 -8 q 783 -9 748 -9 q 844 -9 827 -9 l 850 -9 q 880 87 863 37 q 849 84 864 86 q 837 82 843 83 q 827 81 830 81 q 812 79 823 81 q 789 76 802 78 q 720 66 738 68 q 704 66 713 66 q 691 66 695 66 q 681 70 685 67 q 675 74 677 72 l 675 81 q 676 93 675 86 q 676 106 676 100 q 677 113 677 112 q 687 120 680 118 q 700 121 694 121 q 709 121 704 121 q 733 118 718 119 q 783 118 748 118 q 844 119 827 118 q 890 121 869 120 q 954 305 918 205 q 1075 615 1011 462 q 1133 750 1103 682 q 1185 865 1163 819 q 1188 873 1187 869 q 1191 878 1190 876 l 1192 880 l 1190 878 q 1177 862 1187 874 q 1154 833 1167 850 q 1131 803 1141 817 q 1023 663 1088 749 q 1008 644 1017 655 q 989 618 998 630 q 972 595 981 608 q 957 576 963 583 q 943 558 951 568 q 928 538 935 547 q 914 520 922 530 q 901 503 907 510 q 890 489 896 496 q 881 477 885 481 q 880 475 880 475 q 872 465 876 470 q 864 454 867 459 q 664 220 736 289 q 589 170 618 177 q 576 169 584 169 q 564 170 568 169 q 553 175 559 172 q 541 184 546 179 q 538 186 539 185 q 536 187 536 186 l 534 188 l 533 194 q 550 272 533 225 q 567 312 555 286 q 593 370 578 338 q 665 534 642 471 q 701 709 701 634 q 696 758 701 734 q 675 818 690 791 q 620 854 659 848 q 600 856 613 856 q 578 855 586 856 q 396 785 501 845 q 321 737 357 762 q 311 731 316 734 l 309 728 q 284 711 300 723 q 254 688 269 700 q 231 669 238 676 q 226 666 229 668 q 220 661 223 663 l 217 658 q 163 610 193 637 q 111 559 134 583 q 105 554 109 558 q 94 543 100 549 q 26 480 41 490 q 24 479 25 480 q 23 478 23 479 q 22 478 22 478 q 20 479 21 479 q 16 485 20 481 q 8 494 13 489 q 1 504 4 500 l 0 506 l 1 509 q 26 545 7 522 q 68 591 45 568 q 127 644 93 615 q 194 699 161 673 q 574 890 420 871 q 595 891 583 891 q 614 890 608 891 q 684 857 660 885 q 693 846 690 851 q 701 833 697 840 q 726 744 721 793 q 728 715 728 732 q 727 685 728 698 q 655 438 721 586 q 639 402 648 421 q 617 353 631 383 q 583 277 596 309 q 568 240 574 255 q 562 224 562 225 l 562 224 q 563 224 562 224 q 566 223 564 223 q 571 222 570 222 q 574 222 572 222 q 627 255 593 228 q 813 449 694 309 q 895 549 854 498 q 903 559 898 553 q 913 572 908 565 q 914 572 913 572 q 1058 756 958 627 q 1149 874 1118 835 q 1202 937 1181 913 q 1239 978 1227 966 q 1245 985 1243 982 q 1252 994 1248 988 q 1258 1004 1255 999 q 1265 1014 1262 1010 q 1269 1017 1268 1017 l 1270 1018 q 1271 1020 1270 1019 l 1273 1022 l 1287 1012 q 1300 1000 1300 1002 q 1299 995 1299 996 q 1299 992 1299 994 l 1299 990 q 1299 987 1299 988 q 1299 986 1299 987 q 1298 985 1298 985 q 1297 984 1297 984 l 1297 983 q 1296 983 1296 983 q 1295 981 1295 982 q 1291 971 1293 977 q 1272 932 1283 954 q 1250 888 1261 909 q 1220 832 1238 867 q 1192 777 1202 798 q 1171 735 1180 753 q 1151 692 1162 717 q 1140 668 1147 684 q 1124 635 1132 652 q 1114 610 1117 619 q 1108 598 1111 605 q 1103 588 1105 592 q 1064 498 1088 554 q 1025 405 1041 443 q 966 253 991 319 q 960 237 963 245 q 957 227 958 230 l 956 226 q 949 206 954 220 q 939 177 944 192 q 930 151 933 161 l 920 123 q 954 126 937 125 q 974 128 966 127 q 985 129 981 129 q 991 130 989 130 q 995 129 993 130 q 1009 124 1005 128 q 1010 122 1010 123 q 1011 120 1010 121 q 1011 115 1011 118 l 1012 107 l 1009 104 q 999 99 1006 101 q 977 96 992 97 q 909 91 943 94 q 879 -7 892 39 q 902 -5 891 -6 q 954 -1 927 -3 q 974 1 966 0 q 985 2 981 1 q 991 2 989 2 q 995 2 993 2 q 1009 -3 1005 1 q 1010 -5 1010 -4 q 1011 -7 1010 -5 q 1011 -12 1011 -9 l 1012 -20 l 1009 -22 q 999 -28 1006 -26 q 977 -31 992 -30 z "},"£":{"ha":909,"x_min":0,"x_max":800,"o":"m 10 -89 q 7 -88 8 -89 q 0 -78 7 -87 l 1 -75 q 16 -56 3 -68 q 125 10 41 -33 q 153 25 151 22 q 172 47 154 27 q 216 110 197 76 q 268 334 257 186 q 271 386 271 377 q 271 387 271 387 l 255 381 q 186 353 220 368 l 125 326 q 85 314 98 314 q 78 315 79 314 q 68 336 76 317 q 63 352 63 351 q 68 358 63 354 q 159 393 81 372 l 253 422 q 274 430 274 429 q 279 514 274 435 q 340 774 291 678 q 488 922 393 875 q 623 954 551 954 q 648 953 637 954 q 767 893 726 943 q 800 795 800 850 q 781 709 800 751 q 762 677 770 686 q 757 672 758 672 l 722 686 l 722 692 q 730 726 722 700 q 743 779 741 758 q 745 802 745 790 q 744 821 745 814 q 740 836 743 828 q 693 890 728 871 q 611 910 658 910 q 543 900 578 910 q 395 793 453 872 q 313 527 330 705 q 310 496 312 515 q 308 460 309 477 q 307 439 307 443 l 307 438 l 327 444 q 518 488 431 473 q 529 490 525 490 q 545 491 534 491 q 563 489 560 491 q 566 480 566 486 q 567 474 567 475 q 566 470 567 471 q 527 457 557 462 q 323 407 433 444 q 311 402 317 404 q 304 400 304 400 q 302 376 304 399 q 275 178 295 246 q 222 60 256 105 l 218 53 l 222 54 q 321 94 260 71 q 640 189 523 171 q 692 193 670 193 q 751 174 732 193 q 760 163 756 170 q 767 135 767 146 q 767 133 767 134 q 764 130 766 131 q 750 122 762 128 q 732 114 734 114 q 718 128 726 116 q 714 133 716 132 q 703 138 712 135 q 672 140 693 140 q 528 120 620 140 q 477 107 489 111 l 466 104 q 243 29 356 75 q 57 -65 128 -18 q 10 -89 20 -89 z "},"¢":{"ha":417,"x_min":-115,"x_max":431,"o":"m 129 304 q 66 222 96 262 l 75 222 q 254 252 146 222 q 285 261 268 256 q 330 275 302 267 l 409 296 q 416 297 412 297 q 426 294 422 297 q 431 286 431 290 l 431 283 q 416 269 429 275 q 403 263 410 265 q 383 257 395 260 q 355 249 373 254 q 306 235 338 244 q 145 195 200 203 q 64 188 101 188 q 44 189 54 188 l 41 189 q -31 85 1 133 q -58 43 -47 61 q -79 6 -69 25 q -93 -17 -88 -9 q -100 -28 -98 -24 q -103 -30 -102 -28 q -104 -31 -104 -31 q -105 -32 -105 -31 l -106 -32 q -107 -31 -106 -31 q -111 -29 -109 -31 l -115 -27 l -115 -22 q -114 -13 -115 -18 q -109 1 -112 -6 q -26 134 -96 33 q 12 188 -9 158 q 14 193 13 190 q -6 197 3 194 q -30 212 -22 202 q -37 235 -37 222 q 5 308 -37 266 q 104 368 56 357 q 117 370 110 370 q 130 370 124 370 q 140 366 135 368 l 144 372 q 161 395 150 380 q 183 425 172 410 q 201 449 195 440 q 218 473 208 458 q 238 499 229 487 q 250 514 247 511 q 255 521 252 516 q 263 532 259 526 q 309 582 296 575 l 310 582 q 313 583 311 583 q 316 581 314 583 q 324 575 319 579 q 325 574 324 574 l 336 565 l 335 563 q 327 547 334 557 q 316 532 323 540 q 298 509 310 524 q 162 347 227 428 l 168 337 q 171 326 171 330 q 170 323 171 325 q 165 319 170 323 q 155 311 161 316 q 146 305 149 307 q 141 301 143 302 q 139 300 140 300 q 137 300 138 300 q 129 304 134 301 m 26 227 q 37 225 31 226 q 46 237 42 231 q 53 246 48 240 q 62 260 57 252 q 73 274 67 267 q 81 286 78 281 l 100 311 q 64 294 83 306 q 20 260 39 279 q 3 239 7 248 q 2 236 2 237 q 2 234 2 235 q 7 232 3 233 q 16 229 11 231 q 26 227 21 228 z "},"&":{"ha":612,"x_min":0,"x_max":510,"o":"m 171 72 q 93 123 111 72 q 89 138 90 131 q 88 160 88 146 q 94 201 88 182 l 95 208 l 79 197 q 49 176 56 180 q 25 168 34 168 q 20 169 22 168 q 10 183 18 171 q 0 201 0 199 q 10 215 0 206 q 27 228 17 222 q 82 258 38 235 q 102 269 92 263 q 118 277 113 274 q 126 281 123 279 q 131 286 129 283 q 151 317 134 293 q 221 397 179 357 l 237 412 l 229 413 l 217 415 q 172 455 180 422 q 171 467 171 460 q 172 481 171 475 q 290 613 186 546 q 359 650 327 637 q 431 667 401 667 q 469 654 458 666 q 477 635 477 646 q 403 552 477 602 q 315 513 345 513 q 311 515 313 513 q 307 522 309 516 q 304 528 304 527 q 348 557 304 536 q 406 593 380 574 q 442 627 432 612 q 446 633 446 631 q 429 635 446 635 q 313 586 380 632 q 217 478 231 528 q 216 469 216 473 q 217 465 216 467 q 236 463 218 463 q 320 479 267 463 l 328 481 q 344 486 340 485 q 357 489 347 487 q 372 465 363 477 q 376 456 376 458 l 376 455 q 304 397 371 445 q 247 350 272 373 q 231 334 231 335 l 239 338 q 457 414 393 414 q 502 397 485 414 q 510 385 510 389 q 505 374 510 382 q 499 370 503 370 q 476 377 492 370 q 465 381 469 380 q 453 382 461 382 q 422 378 439 382 q 185 266 336 357 q 162 251 164 253 q 157 244 160 248 q 128 154 128 191 q 131 134 128 143 q 171 109 138 109 q 243 127 200 109 q 379 225 319 161 q 422 302 422 272 q 422 307 422 305 q 409 311 419 311 q 387 309 399 311 q 264 252 336 296 l 254 245 q 189 210 201 212 q 186 211 187 210 q 184 213 185 212 q 178 221 183 215 q 197 243 183 230 q 295 306 236 277 q 408 343 368 343 q 452 315 443 342 q 454 301 454 312 q 388 189 454 254 q 233 85 316 117 q 171 72 197 72 z "},"*":{"ha":232,"x_min":109,"x_max":239,"o":"m 220 667 l 218 668 q 199 686 214 669 q 171 718 185 700 l 168 721 q 165 708 168 721 q 161 688 163 696 q 156 675 160 677 l 153 675 q 147 676 149 675 q 144 682 144 677 l 151 718 q 153 728 153 726 l 153 729 l 120 713 l 116 712 q 110 716 112 712 q 109 722 109 720 q 111 725 109 723 q 129 735 113 727 q 147 744 146 743 q 149 746 149 745 q 147 749 149 747 q 136 763 145 751 q 115 793 117 789 q 113 801 113 798 q 123 808 113 804 q 133 813 131 813 q 145 796 138 813 l 151 785 q 159 767 159 768 q 161 766 160 766 q 161 768 161 766 q 174 815 172 811 q 180 825 176 823 q 190 821 182 825 q 200 817 198 818 q 201 813 201 816 q 195 796 201 809 q 182 766 184 773 q 214 789 205 779 q 217 793 216 792 q 219 795 218 794 q 222 795 220 795 q 225 794 223 795 q 239 781 227 793 l 238 778 q 220 761 238 771 q 201 752 214 758 q 184 745 188 747 q 175 741 180 743 l 180 734 q 216 690 197 711 q 227 675 227 679 q 225 670 227 673 q 220 667 222 667 z "},"@":{"ha":749,"x_min":0,"x_max":642,"o":"m 197 35 l 193 35 q 172 36 174 35 l 172 35 q 64 91 106 43 q 8 212 23 138 q 0 297 0 250 q 7 377 0 339 q 136 666 35 541 q 281 791 199 743 q 439 842 368 842 q 526 822 488 842 q 604 743 575 797 q 642 576 642 671 q 625 457 642 517 q 522 245 590 329 q 503 226 514 237 q 418 180 457 180 q 398 183 408 180 q 347 290 347 200 q 364 420 347 350 l 365 424 l 361 419 q 310 364 333 385 q 235 326 269 327 q 205 339 217 326 q 189 382 189 353 q 205 459 189 411 q 244 547 221 508 q 324 618 279 606 q 336 619 330 619 q 348 618 343 619 q 391 559 381 608 l 395 535 q 396 532 395 532 l 412 570 q 424 597 418 588 q 435 616 429 610 l 437 618 q 441 623 439 623 l 476 610 q 473 597 476 608 q 467 570 471 585 q 447 506 463 555 q 412 388 421 425 q 397 283 397 324 q 405 239 397 255 q 408 233 406 235 q 412 230 410 231 q 414 229 413 229 q 418 229 416 229 q 478 267 441 229 q 585 465 547 340 q 602 576 602 519 l 602 585 q 592 672 602 634 q 460 806 562 791 q 438 807 450 807 q 296 762 374 807 q 73 497 146 673 q 32 296 32 393 q 33 260 32 274 q 134 78 47 119 q 212 60 163 62 q 244 57 231 59 l 244 54 q 245 46 245 52 q 243 42 245 42 q 240 41 241 42 q 238 41 239 41 q 236 40 237 41 q 229 39 234 40 q 197 35 216 36 m 237 359 q 267 371 249 359 q 334 436 293 389 q 332 438 334 437 q 329 439 330 439 q 328 444 328 440 q 333 468 328 451 q 339 492 336 477 q 343 532 342 513 q 338 566 343 552 q 334 572 336 572 l 332 572 q 287 536 311 566 q 251 474 267 511 q 227 401 234 436 q 224 379 224 389 q 231 360 224 363 l 237 359 z "},"#":{"ha":522,"x_min":0,"x_max":419,"o":"m 184 58 q 172 64 174 62 q 169 71 170 65 q 184 117 169 83 q 227 219 204 161 q 241 254 241 251 q 189 245 237 254 q 140 236 141 237 q 138 234 139 235 q 133 221 137 232 l 90 115 q 61 69 71 69 q 54 71 58 69 q 47 75 49 73 q 45 82 45 77 q 49 101 45 90 q 65 140 53 113 l 101 227 l 100 227 q 89 224 98 227 q 28 214 50 214 q 1 223 4 214 l 0 228 l 1 242 q 3 263 1 260 q 23 269 7 269 l 67 269 q 95 272 76 269 l 119 275 q 122 280 119 275 q 157 379 157 376 l 151 379 q 115 374 122 374 q 96 378 106 374 q 75 395 75 386 q 82 414 75 398 q 92 432 90 431 q 99 434 94 434 l 106 433 l 108 433 q 116 430 113 431 q 121 428 119 429 q 130 427 123 427 q 147 426 138 426 l 173 427 l 174 431 q 203 541 191 484 q 214 572 207 566 l 216 574 q 253 569 234 571 l 254 567 q 258 545 258 562 q 257 529 258 534 q 252 511 256 523 q 223 437 243 482 l 220 429 l 271 434 q 309 439 306 437 q 320 469 311 441 q 339 541 332 504 q 355 578 346 577 l 374 574 q 393 569 392 570 q 396 552 396 564 q 393 530 396 542 q 382 497 391 519 q 364 453 374 475 l 361 446 l 366 447 q 402 452 392 452 q 416 447 413 452 q 419 433 419 442 q 404 420 419 425 l 371 416 q 345 412 347 412 l 334 388 q 306 324 321 360 l 293 294 q 361 304 299 294 q 380 305 372 305 q 391 304 387 305 q 396 300 395 302 q 398 294 397 298 q 399 288 398 290 l 399 286 q 395 280 399 283 q 386 275 391 277 q 353 270 380 273 l 322 267 l 279 260 q 278 259 279 260 q 277 256 277 258 q 245 179 277 255 q 203 81 211 97 l 197 71 q 186 59 188 59 q 184 58 184 59 m 157 278 l 167 279 q 254 289 229 286 l 296 404 q 250 396 294 404 q 203 388 205 389 l 157 278 z "},"|":{"ha":380,"x_min":1,"x_max":477,"o":"m 14 -71 q 1 -66 13 -69 l 1 -60 q 6 -28 1 -49 q 20 12 12 -8 q 73 130 35 47 q 187 370 127 247 l 210 417 l 257 516 q 327 666 290 586 l 359 735 l 404 838 q 432 896 418 872 q 441 907 439 907 l 477 895 l 477 888 q 454 815 475 861 q 381 673 439 782 l 319 555 q 50 1 119 169 q 14 -71 26 -58 z "},"à":{"ha":465,"x_min":-14,"x_max":489,"o":"m 269 183 l 257 183 q 212 214 222 184 q 208 239 208 224 q 220 297 208 265 l 221 301 q 210 298 217 301 q 52 237 94 250 q 24 233 38 233 q 10 234 13 233 q -14 262 -14 241 q -8 281 -14 272 q 12 304 -3 291 q 101 366 53 346 q 171 381 134 381 q 232 354 214 381 q 237 346 237 347 q 237 345 237 345 q 237 345 237 345 l 242 347 l 258 355 q 279 363 269 363 q 284 362 283 363 q 288 361 286 361 q 291 359 290 360 q 294 353 292 359 q 297 345 297 347 q 306 330 297 343 q 305 327 305 329 q 303 324 304 325 q 302 322 302 323 q 288 308 297 315 q 267 284 278 302 q 249 231 249 252 q 252 220 249 222 q 268 219 255 219 q 435 277 330 219 l 469 294 q 475 296 472 296 q 485 293 481 296 q 489 286 489 290 q 427 239 489 273 l 390 219 q 269 183 315 185 m 31 267 l 36 268 q 127 298 55 271 q 183 321 165 313 l 183 327 q 156 330 174 330 q 63 297 115 330 q 30 270 43 283 l 26 267 l 31 267 m 182 424 q 161 439 174 424 q 108 489 125 477 q 96 498 100 495 q 92 507 92 502 q 94 511 92 509 q 107 526 95 513 q 125 541 122 541 q 140 533 133 541 q 151 519 144 528 l 166 496 q 183 471 177 479 q 196 451 192 458 q 199 440 199 445 q 194 429 199 433 q 182 424 189 424 z "},"á":{"ha":465,"x_min":-14,"x_max":489,"o":"m 269 183 l 257 183 q 212 214 222 184 q 208 239 208 224 q 220 297 208 265 l 221 301 q 210 298 217 301 q 52 237 94 250 q 24 233 38 233 q 10 234 13 233 q -14 262 -14 241 q -8 281 -14 272 q 12 304 -3 291 q 101 366 53 346 q 171 381 134 381 q 232 354 214 381 q 237 346 237 347 q 237 345 237 345 q 237 345 237 345 l 242 347 l 258 355 q 279 363 269 363 q 284 362 283 363 q 288 361 286 361 q 291 359 290 360 q 294 353 292 359 q 297 345 297 347 q 306 330 297 343 q 305 327 305 329 q 303 324 304 325 q 302 322 302 323 q 288 308 297 315 q 267 284 278 302 q 249 231 249 252 q 252 220 249 222 q 268 219 255 219 q 435 277 330 219 l 469 294 q 475 296 472 296 q 485 293 481 296 q 489 286 489 290 q 427 239 489 273 l 390 219 q 269 183 315 185 m 31 267 l 36 268 q 127 298 55 271 q 183 321 165 313 l 183 327 q 156 330 174 330 q 63 297 115 330 q 30 270 43 283 l 26 267 l 31 267 m 144 430 q 131 437 136 430 q 127 448 127 442 q 128 454 127 451 l 129 455 q 132 460 129 456 q 147 482 134 465 q 193 542 183 534 q 204 548 199 548 q 211 544 206 548 q 231 522 215 540 q 235 517 235 518 q 236 514 236 516 q 234 507 236 511 q 222 496 233 503 l 211 487 q 178 456 202 479 q 155 433 159 435 q 144 430 151 430 z "},"â":{"ha":465,"x_min":-14,"x_max":489,"o":"m 269 183 l 257 183 q 212 214 222 184 q 208 239 208 224 q 220 297 208 265 l 221 301 q 210 298 217 301 q 52 237 94 250 q 24 233 38 233 q 10 234 13 233 q -14 262 -14 241 q -8 281 -14 272 q 12 304 -3 291 q 101 366 53 346 q 171 381 134 381 q 232 354 214 381 q 237 346 237 347 q 237 345 237 345 q 237 345 237 345 l 242 347 l 258 355 q 279 363 269 363 q 284 362 283 363 q 288 361 286 361 q 291 359 290 360 q 294 353 292 359 q 297 345 297 347 q 306 330 297 343 q 305 327 305 329 q 303 324 304 325 q 302 322 302 323 q 288 308 297 315 q 267 284 278 302 q 249 231 249 252 q 252 220 249 222 q 268 219 255 219 q 435 277 330 219 l 469 294 q 475 296 472 296 q 485 293 481 296 q 489 286 489 290 q 427 239 489 273 l 390 219 q 269 183 315 185 m 31 267 l 36 268 q 127 298 55 271 q 183 321 165 313 l 183 327 q 156 330 174 330 q 63 297 115 330 q 30 270 43 283 l 26 267 l 31 267 m 217 425 l 216 425 l 214 427 q 210 434 212 429 q 205 460 208 438 q 196 534 201 499 l 193 531 q 141 454 161 487 l 136 446 q 120 431 127 431 l 117 433 q 108 439 113 435 q 98 447 103 443 l 97 450 q 109 472 97 458 q 137 505 123 490 q 184 560 149 522 q 203 572 196 572 l 208 572 q 216 562 214 569 l 223 500 l 229 447 l 230 437 q 228 428 229 430 q 222 426 226 427 q 217 425 218 426 z "},"ã":{"ha":465,"x_min":-14,"x_max":489,"o":"m 269 183 l 257 183 q 212 214 222 184 q 208 239 208 224 q 220 297 208 265 l 221 301 q 210 298 217 301 q 52 237 94 250 q 24 233 38 233 q 10 234 13 233 q -14 262 -14 241 q -8 281 -14 272 q 12 304 -3 291 q 101 366 53 346 q 171 381 134 381 q 232 354 214 381 q 237 346 237 347 q 237 345 237 345 q 237 345 237 345 l 242 347 l 258 355 q 279 363 269 363 q 284 362 283 363 q 288 361 286 361 q 291 359 290 360 q 294 353 292 359 q 297 345 297 347 q 306 330 297 343 q 305 327 305 329 q 303 324 304 325 q 302 322 302 323 q 288 308 297 315 q 267 284 278 302 q 249 231 249 252 q 252 220 249 222 q 268 219 255 219 q 435 277 330 219 l 469 294 q 475 296 472 296 q 485 293 481 296 q 489 286 489 290 q 427 239 489 273 l 390 219 q 269 183 315 185 m 31 267 l 36 268 q 127 298 55 271 q 183 321 165 313 l 183 327 q 156 330 174 330 q 63 297 115 330 q 30 270 43 283 l 26 267 l 31 267 m 119 449 q 94 473 114 449 q 90 480 90 478 q 97 491 90 486 l 100 493 q 123 506 110 500 q 136 507 128 507 q 152 505 146 507 q 172 496 159 503 q 193 488 188 488 q 198 489 195 488 q 208 495 200 490 q 215 500 212 498 q 222 503 218 503 q 228 501 226 503 q 233 495 229 500 q 237 486 237 490 q 235 481 237 484 q 228 475 234 479 q 209 464 216 467 q 191 460 202 460 q 172 464 182 460 q 145 471 150 471 q 141 470 142 471 q 137 466 140 469 q 132 460 134 463 q 119 449 124 449 z "},"ä":{"ha":465,"x_min":-14,"x_max":489,"o":"m 269 183 l 257 183 q 212 214 222 184 q 208 239 208 224 q 220 297 208 265 l 221 301 q 210 298 217 301 q 52 237 94 250 q 24 233 38 233 q 10 234 13 233 q -14 262 -14 241 q -8 281 -14 272 q 12 304 -3 291 q 101 366 53 346 q 171 381 134 381 q 232 354 214 381 q 237 346 237 347 q 237 345 237 345 q 237 345 237 345 l 242 347 l 258 355 q 279 363 269 363 q 284 362 283 363 q 288 361 286 361 q 291 359 290 360 q 294 353 292 359 q 297 345 297 347 q 306 330 297 343 q 305 327 305 329 q 303 324 304 325 q 302 322 302 323 q 288 308 297 315 q 267 284 278 302 q 249 231 249 252 q 252 220 249 222 q 268 219 255 219 q 435 277 330 219 l 469 294 q 475 296 472 296 q 485 293 481 296 q 489 286 489 290 q 427 239 489 273 l 390 219 q 269 183 315 185 m 31 267 l 36 268 q 127 298 55 271 q 183 321 165 313 l 183 327 q 156 330 174 330 q 63 297 115 330 q 30 270 43 283 l 26 267 l 31 267 m 114 452 q 93 463 98 452 q 92 473 92 467 q 94 484 92 478 q 118 509 104 502 q 134 513 127 513 q 148 508 142 513 q 151 505 150 505 q 157 500 153 505 q 161 489 161 496 q 146 463 161 475 q 114 452 130 452 m 189 454 q 180 455 184 454 q 172 460 176 456 q 168 468 169 464 l 167 475 q 181 501 167 487 q 210 515 195 515 q 223 510 218 515 q 227 507 225 507 q 232 502 229 507 q 236 490 236 497 q 220 464 236 475 q 189 454 203 454 z "},"å":{"ha":465,"x_min":-14,"x_max":489,"o":"m 269 183 l 257 183 q 212 214 222 184 q 208 239 208 224 q 220 297 208 265 l 221 301 q 210 298 217 301 q 52 237 94 250 q 24 233 38 233 q 10 234 13 233 q -14 262 -14 241 q -8 281 -14 272 q 12 304 -3 291 q 101 366 53 346 q 171 381 134 381 q 232 354 214 381 q 237 346 237 347 q 237 345 237 345 q 237 345 237 345 l 242 347 l 258 355 q 279 363 269 363 q 284 362 283 363 q 288 361 286 361 q 291 359 290 360 q 294 353 292 359 q 297 345 297 347 q 306 330 297 343 q 305 327 305 329 q 303 324 304 325 q 302 322 302 323 q 288 308 297 315 q 267 284 278 302 q 249 231 249 252 q 252 220 249 222 q 268 219 255 219 q 435 277 330 219 l 469 294 q 475 296 472 296 q 485 293 481 296 q 489 286 489 290 q 427 239 489 273 l 390 219 q 269 183 315 185 m 31 267 l 36 268 q 127 298 55 271 q 183 321 165 313 l 183 327 q 156 330 174 330 q 63 297 115 330 q 30 270 43 283 l 26 267 l 31 267 m 195 446 q 186 448 191 446 q 174 469 174 454 q 176 479 174 474 q 195 515 181 497 q 237 542 216 542 q 251 538 245 542 q 252 536 252 538 l 252 527 q 268 520 264 527 q 269 513 269 517 q 258 491 269 505 q 230 463 245 475 q 195 446 209 446 m 200 469 q 222 482 214 476 q 236 495 226 486 q 245 505 245 504 l 245 505 q 233 500 243 505 q 219 495 222 496 q 215 494 216 494 q 203 478 210 490 q 199 470 199 472 q 200 469 199 469 z "},"æ":{"ha":572,"x_min":-18,"x_max":595,"o":"m 198 206 q 188 209 194 206 q 179 215 181 212 q 178 221 178 217 q 179 228 178 224 q 191 248 181 231 q 210 284 203 273 q 216 296 216 294 l 216 297 q 203 292 214 297 q 108 254 157 273 q 43 231 58 235 q 20 228 31 228 q -1 233 7 228 q -18 258 -18 241 q -14 274 -18 265 q 6 299 -9 283 q 27 319 18 311 q 165 377 98 377 q 227 353 210 377 q 233 340 229 350 q 254 350 249 347 q 262 355 260 353 q 274 361 269 361 q 281 357 278 361 q 334 384 304 376 q 344 385 339 385 q 377 371 363 385 q 392 336 392 356 q 374 297 392 314 q 325 271 356 279 q 319 269 319 269 q 324 267 319 268 q 372 263 345 263 q 536 283 440 263 q 574 288 560 288 q 595 277 595 288 q 547 252 594 260 q 367 231 435 231 q 261 259 289 231 q 250 275 254 268 q 248 277 249 277 q 214 226 227 253 q 204 208 206 210 q 198 206 201 206 m 22 262 l 29 262 q 88 281 42 264 q 174 314 143 300 q 180 317 180 316 q 180 318 180 317 q 180 321 180 319 q 178 323 180 323 q 154 326 169 326 q 120 321 136 326 q 27 267 70 307 l 22 262 m 304 322 q 317 325 306 322 q 337 331 329 327 q 345 339 345 336 q 342 341 345 341 l 338 340 q 308 328 322 338 q 302 323 302 324 q 304 322 302 322 z "},"œ":{"ha":411,"x_min":-39,"x_max":433,"o":"m -7 180 q -16 180 -12 180 q -39 210 -37 186 q -17 268 -39 233 q 52 337 9 308 q 71 349 61 345 q 84 351 75 351 q 109 345 95 351 q 112 345 111 345 q 116 349 113 346 q 172 378 141 372 q 184 380 178 380 q 203 375 194 380 q 230 332 230 358 q 214 294 230 311 q 161 264 196 274 q 157 263 157 264 q 212 258 176 258 q 372 277 275 258 q 408 283 399 282 q 427 280 422 283 q 430 278 429 280 q 432 273 431 276 q 433 269 433 271 q 431 265 433 266 q 415 255 427 260 q 393 248 403 250 q 373 244 384 247 q 205 227 270 227 q 100 254 128 227 q 96 257 97 257 q 96 256 96 257 l 87 245 q 44 201 68 219 q -7 180 16 180 m 1 216 q 8 218 4 216 q 80 294 53 239 l 77 292 q 9 233 35 269 l 0 216 q 1 216 0 216 l 1 216 m 141 317 q 156 319 145 317 q 175 326 166 321 q 183 334 183 330 q 182 335 183 335 q 179 336 182 336 q 163 332 173 336 q 146 323 153 328 q 140 317 140 318 q 141 317 140 317 z "},"ç":{"ha":412,"x_min":-37,"x_max":431,"o":"m 12 191 l 12 193 q -6 197 2 195 q -30 212 -22 202 q -37 235 -37 222 q 5 308 -37 266 q 104 368 56 357 q 117 370 110 370 q 130 370 124 370 q 156 355 146 366 q 167 338 163 347 q 171 326 171 330 q 170 323 171 325 q 165 319 170 323 q 155 311 161 316 q 146 305 149 307 q 141 301 143 302 q 139 300 140 300 q 137 300 138 300 q 122 311 132 302 q 118 314 119 313 q 115 315 117 315 q 109 314 113 315 q 64 294 89 309 q 20 260 39 279 q 3 239 7 248 q 2 236 2 237 q 2 234 2 235 q 7 232 3 233 q 16 229 11 231 q 26 227 21 228 q 76 222 48 222 q 254 252 146 222 q 285 261 268 256 q 330 275 302 267 l 409 296 q 416 297 412 297 q 426 294 422 297 q 431 286 431 290 l 431 283 q 416 269 429 275 q 403 263 410 265 q 383 257 395 260 q 355 249 373 254 q 306 235 338 244 q 145 195 200 203 q 64 188 101 188 q 44 189 54 188 q 40 189 42 189 q 38 183 39 186 q 35 176 37 180 q 33 169 34 172 q 30 162 31 165 q 29 159 29 159 l 30 159 l 30 159 l 31 159 q 35 161 33 160 q 55 165 47 165 q 62 164 59 165 q 77 144 77 159 l 76 140 q 75 134 76 138 q 72 128 73 131 q 50 106 64 116 q 20 94 36 97 q 11 93 16 93 q 3 93 6 93 q -5 96 -3 94 l -6 97 l -6 101 q -6 103 -6 102 q -6 104 -6 104 q -5 106 -5 105 q 10 109 -3 109 q 22 111 17 110 q 33 115 27 113 q 60 144 56 128 q 60 145 60 144 q 59 146 60 146 q 59 146 59 146 q 57 147 58 147 q 52 146 55 147 q 26 135 43 145 q 19 131 22 133 q 16 130 16 130 q 12 129 14 129 q 9 130 10 129 q 5 132 7 130 q 3 135 3 134 q 2 140 2 137 q 3 146 2 143 q 7 168 4 156 q 12 191 9 180 z "},"è":{"ha":334,"x_min":0,"x_max":352,"o":"m 121 235 q 14 265 41 235 q 0 298 0 281 q 12 334 0 313 q 36 362 22 350 q 87 388 60 382 q 98 389 93 389 q 131 375 117 389 q 146 341 146 360 q 137 312 146 326 q 79 275 121 287 q 73 273 73 273 q 78 271 73 272 q 127 267 98 267 q 292 287 194 267 q 337 295 320 294 q 352 286 352 295 q 336 266 352 275 q 317 259 329 262 q 279 252 304 256 q 121 235 182 235 m 62 326 q 89 334 79 329 q 99 343 99 340 q 96 345 99 345 q 85 343 92 345 q 65 334 75 340 q 55 326 55 327 l 62 326 m 113 431 q 92 446 104 431 q 39 496 56 485 q 27 506 31 503 q 23 514 23 509 q 24 518 23 516 q 38 533 26 521 q 56 549 53 549 q 71 541 64 549 q 81 526 75 536 l 97 504 q 114 478 108 486 q 126 459 123 465 q 130 448 130 452 q 125 436 130 441 q 113 431 119 431 z "},"é":{"ha":334,"x_min":0,"x_max":352,"o":"m 121 235 q 14 265 41 235 q 0 298 0 281 q 12 334 0 313 q 36 362 22 350 q 87 388 60 382 q 98 389 93 389 q 131 375 117 389 q 146 341 146 360 q 137 312 146 326 q 79 275 121 287 q 73 273 73 273 q 78 271 73 272 q 127 267 98 267 q 292 287 194 267 q 337 295 320 294 q 352 286 352 295 q 336 266 352 275 q 317 259 329 262 q 279 252 304 256 q 121 235 182 235 m 62 326 q 89 334 79 329 q 99 343 99 340 q 96 345 99 345 q 85 343 92 345 q 65 334 75 340 q 55 326 55 327 l 62 326 m 75 437 q 62 445 66 437 q 58 455 58 450 q 59 461 58 458 l 60 463 q 62 468 60 464 q 78 490 65 472 q 123 549 114 541 q 135 555 130 555 q 141 551 137 555 q 161 530 146 547 q 166 525 165 526 q 167 522 167 524 q 165 514 167 518 q 153 503 163 510 l 142 494 q 109 463 133 487 q 85 440 90 443 q 75 437 81 437 z "},"ê":{"ha":334,"x_min":0,"x_max":352,"o":"m 121 235 q 14 265 41 235 q 0 298 0 281 q 12 334 0 313 q 36 362 22 350 q 87 388 60 382 q 98 389 93 389 q 131 375 117 389 q 146 341 146 360 q 137 312 146 326 q 79 275 121 287 q 73 273 73 273 q 78 271 73 272 q 127 267 98 267 q 292 287 194 267 q 337 295 320 294 q 352 286 352 295 q 336 266 352 275 q 317 259 329 262 q 279 252 304 256 q 121 235 182 235 m 62 326 q 89 334 79 329 q 99 343 99 340 q 96 345 99 345 q 85 343 92 345 q 65 334 75 340 q 55 326 55 327 l 62 326 m 148 433 l 146 433 l 144 435 q 141 441 142 437 q 136 468 139 446 q 127 542 132 507 l 123 538 q 72 461 92 494 l 67 454 q 51 439 58 439 l 47 441 q 39 447 44 443 q 28 454 34 450 l 28 457 q 39 479 28 465 q 68 513 54 497 q 115 568 80 529 q 134 580 127 580 l 138 579 q 146 569 144 576 l 154 507 l 160 454 l 161 444 q 158 436 160 437 q 153 434 157 434 q 148 433 149 433 z "},"ë":{"ha":334,"x_min":0,"x_max":352,"o":"m 121 235 q 14 265 41 235 q 0 298 0 281 q 12 334 0 313 q 36 362 22 350 q 87 388 60 382 q 98 389 93 389 q 131 375 117 389 q 146 341 146 360 q 137 312 146 326 q 79 275 121 287 q 73 273 73 273 q 78 271 73 272 q 127 267 98 267 q 292 287 194 267 q 337 295 320 294 q 352 286 352 295 q 336 266 352 275 q 317 259 329 262 q 279 252 304 256 q 121 235 182 235 m 62 326 q 89 334 79 329 q 99 343 99 340 q 96 345 99 345 q 85 343 92 345 q 65 334 75 340 q 55 326 55 327 l 62 326 m 45 459 q 24 471 29 460 q 22 480 22 474 q 24 491 22 486 q 49 516 35 509 q 65 521 58 521 q 79 515 73 521 q 82 513 81 513 q 87 508 83 513 q 92 496 92 503 q 77 471 92 483 q 45 459 60 459 m 120 461 q 111 463 115 461 q 103 468 106 464 q 98 475 100 471 l 98 482 q 112 509 98 494 q 141 523 126 523 q 154 517 149 523 q 158 515 156 515 q 163 510 159 515 q 167 498 167 505 q 151 471 167 483 q 120 461 134 461 z "},"ì":{"ha":286,"x_min":-35,"x_max":313,"o":"m 20 193 q -21 211 -9 195 q -29 237 -29 222 q -14 282 -29 256 q 2 306 -7 293 q 18 326 12 319 q 31 336 25 334 q 39 339 36 339 q 42 338 41 339 q 53 328 46 334 q 64 317 59 322 q 69 312 68 313 l 69 310 q 68 303 69 307 q 61 292 65 297 q 55 285 60 290 q 45 275 51 280 q 20 246 28 258 q 18 241 19 243 q 16 237 16 239 q 15 235 15 235 l 15 234 q 21 232 16 233 q 32 231 26 231 l 42 231 q 189 260 94 231 q 261 285 229 272 q 275 290 269 288 q 289 296 283 294 q 298 298 294 298 q 306 296 302 298 q 313 288 313 292 l 313 283 q 304 270 313 276 l 301 268 q 288 260 296 265 q 253 248 279 256 q 196 229 227 239 q 140 212 165 219 q 39 193 75 194 q 31 192 34 192 q 26 192 27 192 l 25 192 q 20 193 23 192 m 54 382 q 33 397 46 382 q -20 447 -3 435 q -32 456 -28 453 q -35 465 -35 460 q -34 469 -35 467 q -20 484 -33 471 q -2 499 -5 499 q 12 491 5 499 q 23 477 16 486 l 39 454 q 56 429 50 437 q 68 409 64 416 q 72 398 72 403 q 66 387 72 391 q 54 382 61 382 z "},"í":{"ha":286,"x_min":-29,"x_max":313,"o":"m 20 193 q -21 211 -9 195 q -29 237 -29 222 q -14 282 -29 256 q 2 306 -7 293 q 18 326 12 319 q 31 336 25 334 q 39 339 36 339 q 42 338 41 339 q 53 328 46 334 q 64 317 59 322 q 69 312 68 313 l 69 310 q 68 303 69 307 q 61 292 65 297 q 55 285 60 290 q 45 275 51 280 q 20 246 28 258 q 18 241 19 243 q 16 237 16 239 q 15 235 15 235 l 15 234 q 21 232 16 233 q 32 231 26 231 l 42 231 q 189 260 94 231 q 261 285 229 272 q 275 290 269 288 q 289 296 283 294 q 298 298 294 298 q 306 296 302 298 q 313 288 313 292 l 313 283 q 304 270 313 276 l 301 268 q 288 260 296 265 q 253 248 279 256 q 196 229 227 239 q 140 212 165 219 q 39 193 75 194 q 31 192 34 192 q 26 192 27 192 l 25 192 q 20 193 23 192 m 17 388 q 3 395 8 388 q 0 406 0 400 q 1 412 0 409 l 1 413 q 4 418 1 414 q 20 440 7 422 q 65 500 56 492 q 77 506 71 506 q 83 502 79 506 q 103 480 87 498 q 108 475 107 476 q 109 472 109 474 q 107 465 109 469 q 95 454 105 460 l 83 445 q 51 414 75 437 q 27 391 31 393 q 17 388 23 388 z "},"î":{"ha":286,"x_min":-31,"x_max":313,"o":"m 20 193 q -21 211 -9 195 q -29 237 -29 222 q -14 282 -29 256 q 2 306 -7 293 q 18 326 12 319 q 31 336 25 334 q 39 339 36 339 q 42 338 41 339 q 53 328 46 334 q 64 317 59 322 q 69 312 68 313 l 69 310 q 68 303 69 307 q 61 292 65 297 q 55 285 60 290 q 45 275 51 280 q 20 246 28 258 q 18 241 19 243 q 16 237 16 239 q 15 235 15 235 l 15 234 q 21 232 16 233 q 32 231 26 231 l 42 231 q 189 260 94 231 q 261 285 229 272 q 275 290 269 288 q 289 296 283 294 q 298 298 294 298 q 306 296 302 298 q 313 288 313 292 l 313 283 q 304 270 313 276 l 301 268 q 288 260 296 265 q 253 248 279 256 q 196 229 227 239 q 140 212 165 219 q 39 193 75 194 q 31 192 34 192 q 26 192 27 192 l 25 192 q 20 193 23 192 m 90 383 l 88 383 l 86 385 q 82 392 84 387 q 78 418 81 396 q 68 492 74 457 l 65 489 q 14 412 34 445 l 9 404 q -7 389 -1 389 l -11 391 q -19 397 -14 393 q -30 405 -24 401 l -31 408 q -19 430 -31 416 q 9 463 -5 448 q 57 518 22 479 q 76 530 68 530 l 80 530 q 88 519 86 527 l 96 458 l 102 405 l 102 395 q 100 386 102 388 q 95 384 98 385 q 90 383 91 384 z "},"ï":{"ha":286,"x_min":-36,"x_max":313,"o":"m 20 193 q -21 211 -9 195 q -29 237 -29 222 q -14 282 -29 256 q 2 306 -7 293 q 18 326 12 319 q 31 336 25 334 q 39 339 36 339 q 42 338 41 339 q 53 328 46 334 q 64 317 59 322 q 69 312 68 313 l 69 310 q 68 303 69 307 q 61 292 65 297 q 55 285 60 290 q 45 275 51 280 q 20 246 28 258 q 18 241 19 243 q 16 237 16 239 q 15 235 15 235 l 15 234 q 21 232 16 233 q 32 231 26 231 l 42 231 q 189 260 94 231 q 261 285 229 272 q 275 290 269 288 q 289 296 283 294 q 298 298 294 298 q 306 296 302 298 q 313 288 313 292 l 313 283 q 304 270 313 276 l 301 268 q 288 260 296 265 q 253 248 279 256 q 196 229 227 239 q 140 212 165 219 q 39 193 75 194 q 31 192 34 192 q 26 192 27 192 l 25 192 q 20 193 23 192 m -14 410 q -35 421 -29 410 q -36 431 -36 425 q -34 441 -36 436 q -9 467 -24 460 q 7 471 0 471 q 20 466 15 471 q 24 463 22 463 q 29 458 25 463 q 33 447 33 454 q 19 421 33 433 q -14 410 2 410 m 62 412 q 53 413 57 412 q 45 418 48 414 q 40 426 41 422 l 39 433 q 54 459 39 445 q 83 473 68 473 q 96 468 90 473 q 99 465 98 465 q 105 460 101 465 q 109 448 109 455 q 93 422 109 433 q 62 412 76 412 z "},"ı":{"ha":286,"x_min":-29,"x_max":313,"o":"m 20 193 q -21 211 -9 195 q -29 237 -29 222 q -14 282 -29 256 q 2 306 -7 293 q 18 326 12 319 q 31 336 25 334 q 39 339 36 339 q 42 338 41 339 q 53 328 46 334 q 64 317 59 322 q 69 312 68 313 l 69 310 q 68 303 69 307 q 61 292 65 297 q 55 285 60 290 q 45 275 51 280 q 20 246 28 258 q 18 241 19 243 q 16 237 16 239 q 15 235 15 235 l 15 234 q 21 232 16 233 q 32 231 26 231 l 42 231 q 189 260 94 231 q 261 285 229 272 q 275 290 269 288 q 289 296 283 294 q 298 298 294 298 q 306 296 302 298 q 313 288 313 292 l 313 283 q 304 270 313 276 l 301 268 q 288 260 296 265 q 253 248 279 256 q 196 229 227 239 q 140 212 165 219 q 39 193 75 194 q 31 192 34 192 q 26 192 27 192 l 25 192 q 20 193 23 192 z "},"ð":{"ha":435,"x_min":1,"x_max":333,"o":"m 66 102 l 55 102 q 43 103 47 102 q 2 142 9 110 q 1 153 1 146 q 66 271 1 208 q 170 332 121 323 q 175 333 171 332 q 191 333 178 333 q 190 351 191 342 q 183 379 186 368 q 176 395 177 395 l 165 389 q 60 319 102 351 q 41 305 47 309 q 27 301 35 301 q 23 301 24 301 q 19 306 22 302 q 1 337 1 332 l 2 341 q 14 354 6 348 q 137 416 31 364 l 156 425 l 151 431 q 77 469 126 456 q 42 483 49 477 l 40 484 l 43 498 q 52 501 45 500 l 63 501 q 125 486 94 501 q 182 442 159 471 l 186 439 l 301 496 q 320 502 312 502 q 325 501 323 502 q 329 498 327 500 q 332 492 330 495 q 333 486 333 488 q 328 476 333 481 q 304 463 322 471 q 240 430 272 447 q 204 411 208 414 l 211 393 q 223 324 223 363 q 214 258 223 292 q 170 171 199 210 q 66 102 121 106 m 60 141 q 127 176 94 141 q 175 245 157 205 l 179 257 q 185 278 185 275 l 184 278 q 165 273 180 278 q 81 217 123 260 q 43 155 45 182 q 45 144 43 148 q 60 141 47 141 z "},"ñ":{"ha":655,"x_min":-44,"x_max":674,"o":"m 378 166 l 361 166 q 275 201 309 168 q 228 288 248 229 l 224 300 q 184 287 213 300 q 85 232 155 275 q 5 188 22 194 q -14 184 -5 184 q -24 186 -22 184 q -43 203 -37 191 q -44 214 -44 208 q -27 263 -44 233 q -11 288 -20 275 q 34 346 12 323 q 80 380 56 368 q 94 385 90 385 q 95 384 95 385 q 99 378 96 382 q 107 367 102 374 q 117 353 112 361 l 112 345 q 90 323 107 340 q 26 250 49 283 l 23 247 l 61 267 q 157 316 122 300 q 222 336 201 336 q 254 320 245 336 q 259 306 257 315 q 321 208 281 227 q 370 198 339 199 q 581 265 441 198 q 661 295 641 295 q 671 292 667 295 q 674 283 674 288 q 665 272 674 277 q 611 243 647 261 q 502 197 553 215 q 378 166 427 169 m 270 452 q 245 475 265 452 q 241 483 241 481 q 248 494 241 488 l 251 496 q 275 509 261 503 q 288 510 279 510 q 303 508 297 510 q 323 499 310 506 q 345 491 339 491 q 349 492 347 491 q 359 498 351 492 q 367 503 363 501 q 374 505 370 505 q 379 504 377 505 q 384 497 380 503 q 388 489 388 492 q 387 484 388 487 q 379 477 385 481 q 360 466 367 469 q 342 463 353 463 q 323 467 333 463 q 296 474 301 474 q 292 473 294 474 q 288 469 291 472 q 283 463 286 466 q 270 452 275 452 z "},"ò":{"ha":341,"x_min":-65,"x_max":362,"o":"m -35 162 q -43 163 -39 162 q -63 179 -58 167 q -65 193 -65 184 q -52 236 -65 211 q -16 286 -39 261 q 16 314 -1 301 q 44 331 33 327 q 47 332 45 331 q 51 333 49 332 q 58 333 54 333 q 86 325 73 333 q 95 315 94 320 l 92 302 q 90 294 90 296 q 82 264 90 283 l 80 258 q 99 254 82 256 q 141 252 117 252 q 259 263 199 252 q 326 281 302 271 q 347 288 340 288 q 357 284 353 287 q 361 278 360 281 q 362 271 362 274 q 334 250 361 260 q 245 229 301 239 q 101 212 154 212 q 52 218 66 212 q 33 197 49 212 q 1 173 17 182 q -35 162 -19 162 m -26 198 q -18 201 -24 198 q 19 228 1 210 q 26 235 26 235 l 24 239 q 21 247 22 242 q 19 254 20 251 q 14 250 18 254 q -22 209 -9 230 l -27 199 q -26 198 -27 198 m 167 376 q 146 391 159 376 q 93 441 110 429 q 81 450 85 447 q 77 458 77 454 q 79 463 77 460 q 92 477 80 465 q 111 493 107 493 q 125 485 118 493 q 136 471 129 480 l 151 448 q 168 422 162 431 q 181 403 177 410 q 184 392 184 397 q 179 380 184 385 q 167 376 174 376 z "},"ó":{"ha":341,"x_min":-65,"x_max":362,"o":"m -35 162 q -43 163 -39 162 q -63 179 -58 167 q -65 193 -65 184 q -52 236 -65 211 q -16 286 -39 261 q 16 314 -1 301 q 44 331 33 327 q 47 332 45 331 q 51 333 49 332 q 58 333 54 333 q 86 325 73 333 q 95 315 94 320 l 92 302 q 90 294 90 296 q 82 264 90 283 l 80 258 q 99 254 82 256 q 141 252 117 252 q 259 263 199 252 q 326 281 302 271 q 347 288 340 288 q 357 284 353 287 q 361 278 360 281 q 362 271 362 274 q 334 250 361 260 q 245 229 301 239 q 101 212 154 212 q 52 218 66 212 q 33 197 49 212 q 1 173 17 182 q -35 162 -19 162 m -26 198 q -18 201 -24 198 q 19 228 1 210 q 26 235 26 235 l 24 239 q 21 247 22 242 q 19 254 20 251 q 14 250 18 254 q -22 209 -9 230 l -27 199 q -26 198 -27 198 m 130 382 q 116 389 121 382 q 113 399 113 394 q 113 406 113 403 l 114 407 q 117 412 114 408 q 132 434 119 416 q 178 494 168 486 q 189 500 184 500 q 196 496 191 500 q 216 474 200 492 q 220 469 220 470 q 221 466 221 468 q 219 458 221 463 q 208 448 218 454 l 196 439 q 163 408 187 431 q 140 385 144 387 q 130 382 136 382 z "},"ô":{"ha":341,"x_min":-65,"x_max":362,"o":"m -35 162 q -43 163 -39 162 q -63 179 -58 167 q -65 193 -65 184 q -52 236 -65 211 q -16 286 -39 261 q 16 314 -1 301 q 44 331 33 327 q 47 332 45 331 q 51 333 49 332 q 58 333 54 333 q 86 325 73 333 q 95 315 94 320 l 92 302 q 90 294 90 296 q 82 264 90 283 l 80 258 q 99 254 82 256 q 141 252 117 252 q 259 263 199 252 q 326 281 302 271 q 347 288 340 288 q 357 284 353 287 q 361 278 360 281 q 362 271 362 274 q 334 250 361 260 q 245 229 301 239 q 101 212 154 212 q 52 218 66 212 q 33 197 49 212 q 1 173 17 182 q -35 162 -19 162 m -26 198 q -18 201 -24 198 q 19 228 1 210 q 26 235 26 235 l 24 239 q 21 247 22 242 q 19 254 20 251 q 14 250 18 254 q -22 209 -9 230 l -27 199 q -26 198 -27 198 m 202 377 l 201 377 l 199 379 q 195 386 197 381 q 191 412 193 390 q 181 486 186 451 l 178 483 q 126 406 146 439 l 121 398 q 105 383 112 383 l 102 385 q 93 391 98 387 q 83 399 88 395 l 82 401 q 94 424 82 410 q 122 457 108 441 q 170 512 134 473 q 189 524 181 524 l 193 524 q 201 513 199 521 l 208 452 l 214 399 l 215 389 q 213 380 214 382 q 207 378 211 378 q 202 377 203 378 z "},"õ":{"ha":341,"x_min":-65,"x_max":362,"o":"m -35 162 q -43 163 -39 162 q -63 179 -58 167 q -65 193 -65 184 q -52 236 -65 211 q -16 286 -39 261 q 16 314 -1 301 q 44 331 33 327 q 47 332 45 331 q 51 333 49 332 q 58 333 54 333 q 86 325 73 333 q 95 315 94 320 l 92 302 q 90 294 90 296 q 82 264 90 283 l 80 258 q 99 254 82 256 q 141 252 117 252 q 259 263 199 252 q 326 281 302 271 q 347 288 340 288 q 357 284 353 287 q 361 278 360 281 q 362 271 362 274 q 334 250 361 260 q 245 229 301 239 q 101 212 154 212 q 52 218 66 212 q 33 197 49 212 q 1 173 17 182 q -35 162 -19 162 m -26 198 q -18 201 -24 198 q 19 228 1 210 q 26 235 26 235 l 24 239 q 21 247 22 242 q 19 254 20 251 q 14 250 18 254 q -22 209 -9 230 l -27 199 q -26 198 -27 198 m 104 401 q 79 425 99 401 q 75 432 75 430 q 82 443 75 437 l 85 445 q 109 458 95 452 q 121 459 113 459 q 137 457 131 459 q 157 448 144 455 q 178 440 173 440 q 183 441 180 440 q 193 447 185 441 q 200 452 197 450 q 208 454 203 454 q 213 453 211 454 q 218 447 214 452 q 222 438 222 441 q 220 433 222 436 q 213 427 219 431 q 194 415 201 418 q 176 412 187 412 q 157 416 167 412 q 130 423 135 423 q 126 422 127 423 q 122 418 125 421 q 117 412 119 415 q 104 401 109 401 z "},"ö":{"ha":341,"x_min":-65,"x_max":362,"o":"m -35 162 q -43 163 -39 162 q -63 179 -58 167 q -65 193 -65 184 q -52 236 -65 211 q -16 286 -39 261 q 16 314 -1 301 q 44 331 33 327 q 47 332 45 331 q 51 333 49 332 q 58 333 54 333 q 86 325 73 333 q 95 315 94 320 l 92 302 q 90 294 90 296 q 82 264 90 283 l 80 258 q 99 254 82 256 q 141 252 117 252 q 259 263 199 252 q 326 281 302 271 q 347 288 340 288 q 357 284 353 287 q 361 278 360 281 q 362 271 362 274 q 334 250 361 260 q 245 229 301 239 q 101 212 154 212 q 52 218 66 212 q 33 197 49 212 q 1 173 17 182 q -35 162 -19 162 m -26 198 q -18 201 -24 198 q 19 228 1 210 q 26 235 26 235 l 24 239 q 21 247 22 242 q 19 254 20 251 q 14 250 18 254 q -22 209 -9 230 l -27 199 q -26 198 -27 198 m 99 404 q 78 415 83 404 q 77 425 77 418 q 79 435 77 430 q 103 460 89 454 q 119 465 113 465 q 133 460 127 465 q 136 457 135 457 q 142 452 138 457 q 146 441 146 448 q 132 415 146 427 q 99 404 115 404 m 174 406 q 165 407 170 406 q 157 412 161 408 q 153 420 154 416 l 152 427 q 166 453 152 439 q 195 467 180 467 q 208 462 203 467 q 212 459 210 459 q 217 454 214 459 q 221 442 221 449 q 205 416 221 427 q 174 406 189 406 z "},"ø":{"ha":341,"x_min":-257,"x_max":363,"o":"m -88 130 q -58 172 -72 153 q -62 179 -61 176 q -65 189 -64 183 l -65 194 q -54 233 -65 210 q -16 286 -40 259 q 16 314 -1 301 q 44 331 33 327 q 51 332 48 332 q 58 333 53 333 q 73 354 67 347 l 79 362 q 89 376 85 372 q 111 407 96 387 q 141 447 126 427 q 164 478 156 467 q 188 510 174 491 q 214 545 202 529 q 230 565 227 561 q 237 575 232 568 q 248 589 242 581 q 309 656 292 646 l 310 656 q 314 657 312 657 q 318 655 315 657 q 329 646 321 652 q 330 646 329 646 l 344 633 l 343 630 q 333 609 342 623 q 318 589 327 600 q 294 559 310 578 q 94 318 189 439 l 95 317 q 95 315 95 316 q 95 312 95 314 q 93 306 94 310 q 90 294 90 297 q 82 264 90 282 q 81 260 81 261 q 80 258 81 259 l 80 258 q 86 256 81 257 q 100 254 92 255 q 115 252 107 253 q 141 252 124 252 q 170 252 157 252 q 259 263 217 255 q 326 281 302 271 q 339 287 334 286 q 347 288 343 288 q 358 283 355 287 q 362 276 361 279 q 363 271 363 273 q 362 269 363 270 q 351 257 360 263 q 340 252 348 256 q 324 247 332 249 q 245 229 294 237 q 149 215 197 220 q 100 212 122 212 q 56 216 74 212 l 52 218 l 50 214 q 38 202 46 210 q 23 189 29 193 q 1 173 12 180 q -20 164 -11 166 q -24 163 -22 163 q -144 -7 -93 71 q -180 -63 -165 -39 q -209 -113 -195 -87 q -227 -143 -220 -133 q -237 -157 -233 -153 q -240 -160 -239 -159 q -243 -161 -242 -161 q -244 -162 -243 -162 l -245 -162 l -246 -161 q -251 -159 -248 -161 l -257 -156 l -257 -151 q -255 -138 -257 -145 q -248 -119 -252 -129 q -138 58 -231 -77 q -88 130 -116 90 z "},"š":{"ha":306,"x_min":-129,"x_max":326,"o":"m 44 46 q 1 50 18 47 q -129 114 -129 63 q -115 138 -129 134 l -92 142 q 2 159 -38 150 q 12 162 9 161 q 16 163 16 163 l 12 172 q -14 256 -14 218 q -3 302 -14 280 q 18 330 5 317 q 79 374 39 353 q 126 390 104 386 q 149 391 132 391 q 173 387 173 391 q 174 378 174 386 l 176 362 l 177 353 q 173 348 177 349 l 172 347 q 151 340 167 345 l 128 334 q 39 273 53 307 q 34 250 34 262 q 44 205 34 230 l 58 174 l 82 182 q 192 226 140 200 q 269 272 223 242 q 296 289 287 283 q 315 297 310 297 q 322 294 319 297 q 326 286 326 292 q 310 264 326 279 q 211 200 277 233 q 98 154 159 174 l 75 146 l 88 125 q 101 103 97 111 q 107 90 106 95 q 109 79 109 85 q 69 47 106 52 q 44 46 56 46 m 54 83 q 64 84 62 84 q 66 85 66 85 q 51 110 66 87 q 33 134 35 133 l 21 132 q -93 109 -34 118 q -60 94 -83 101 q 24 83 -27 85 l 54 83 m 60 412 q 51 416 54 412 q 46 431 47 420 l 42 465 q 37 508 41 476 q 33 546 33 541 q 35 557 33 555 q 45 559 38 559 q 53 549 51 559 q 57 522 54 544 q 66 450 64 460 q 86 477 67 450 q 125 536 101 497 l 132 546 q 142 553 137 553 q 145 552 143 553 q 164 539 147 551 l 164 532 q 163 524 164 528 q 146 502 161 520 q 71 417 79 424 q 60 412 64 412 z "},"ß":{"ha":767,"x_min":0,"x_max":664,"o":"m 37 -26 l 36 -26 l 0 -14 l 0 -9 q 7 26 0 1 q 24 79 14 52 q 99 247 45 135 q 221 486 162 373 q 417 814 329 694 q 544 920 495 920 q 585 890 571 920 q 591 851 591 876 q 515 602 591 775 q 426 420 477 515 q 423 414 423 416 l 433 418 q 519 444 479 439 q 551 446 532 446 l 561 446 q 650 391 624 439 q 664 338 664 367 q 652 275 664 304 q 445 81 605 159 q 380 55 414 67 q 292 35 321 35 q 279 39 279 35 l 276 50 q 342 77 276 58 q 498 147 433 103 q 615 275 584 204 q 627 330 627 305 q 599 391 627 370 q 553 403 581 403 q 386 329 484 403 q 363 313 366 313 l 361 312 q 349 309 355 309 q 336 311 342 309 q 322 328 326 315 q 321 335 321 330 q 322 345 321 342 q 324 347 323 347 q 340 363 328 355 q 366 382 353 374 l 374 395 q 441 518 414 463 q 553 804 529 694 q 559 851 559 830 l 559 863 q 554 879 558 870 q 544 888 551 888 l 538 887 q 440 787 503 876 q 224 396 347 655 l 177 296 q 85 83 117 166 q 58 16 71 46 q 39 -22 44 -15 q 37 -24 37 -24 l 37 -26 z "},"ù":{"ha":582,"x_min":-47,"x_max":604,"o":"m -14 180 l -21 181 q -46 203 -40 185 q -47 210 -47 206 q -44 228 -47 218 q -26 262 -41 238 q 71 376 31 347 q 101 388 84 385 q 112 389 107 389 q 117 389 116 389 q 125 370 119 388 q 132 353 132 357 q 128 347 132 351 q 110 334 125 343 q 8 235 67 312 q -1 221 -1 224 q 86 262 5 221 q 226 340 146 291 q 272 367 256 358 q 307 381 297 381 q 325 371 320 381 q 327 363 327 368 q 323 346 327 357 q 309 318 317 331 l 298 302 q 288 269 288 288 q 289 264 288 267 q 355 246 298 246 q 559 284 431 246 q 587 290 579 290 q 594 289 591 290 q 600 287 596 289 q 604 277 604 285 q 599 267 604 270 q 588 260 595 263 q 528 243 581 256 q 341 211 404 211 q 312 212 321 211 q 246 261 257 220 q 244 279 244 269 q 250 316 244 295 l 250 317 q 250 317 250 317 l 249 317 q 245 315 248 317 l 226 304 q 64 212 132 248 l 45 201 q -14 180 9 180 m 296 432 q 275 447 288 432 q 222 497 239 486 q 211 507 214 503 q 207 515 207 510 q 208 519 207 517 q 222 534 210 522 q 240 549 237 549 q 254 541 248 549 q 265 527 258 536 l 281 505 q 298 479 292 487 q 310 459 307 466 q 314 448 314 453 q 309 437 314 441 q 296 432 303 432 z "},"ú":{"ha":582,"x_min":-47,"x_max":604,"o":"m -14 180 l -21 181 q -46 203 -40 185 q -47 210 -47 206 q -44 228 -47 218 q -26 262 -41 238 q 71 376 31 347 q 101 388 84 385 q 112 389 107 389 q 117 389 116 389 q 125 370 119 388 q 132 353 132 357 q 128 347 132 351 q 110 334 125 343 q 8 235 67 312 q -1 221 -1 224 q 86 262 5 221 q 226 340 146 291 q 272 367 256 358 q 307 381 297 381 q 325 371 320 381 q 327 363 327 368 q 323 346 327 357 q 309 318 317 331 l 298 302 q 288 269 288 288 q 289 264 288 267 q 355 246 298 246 q 559 284 431 246 q 587 290 579 290 q 594 289 591 290 q 600 287 596 289 q 604 277 604 285 q 599 267 604 270 q 588 260 595 263 q 528 243 581 256 q 341 211 404 211 q 312 212 321 211 q 246 261 257 220 q 244 279 244 269 q 250 316 244 295 l 250 317 q 250 317 250 317 l 249 317 q 245 315 248 317 l 226 304 q 64 212 132 248 l 45 201 q -14 180 9 180 m 259 438 q 245 446 250 438 q 242 456 242 450 q 243 462 242 459 l 243 463 q 246 469 243 465 q 262 490 249 473 q 307 550 298 542 q 319 556 313 556 q 325 552 321 556 q 345 530 330 548 q 350 525 349 526 q 351 522 351 524 q 349 515 351 519 q 337 504 347 511 l 326 495 q 293 464 317 488 q 269 441 273 444 q 259 438 265 438 z "},"û":{"ha":582,"x_min":-47,"x_max":604,"o":"m -14 180 l -21 181 q -46 203 -40 185 q -47 210 -47 206 q -44 228 -47 218 q -26 262 -41 238 q 71 376 31 347 q 101 388 84 385 q 112 389 107 389 q 117 389 116 389 q 125 370 119 388 q 132 353 132 357 q 128 347 132 351 q 110 334 125 343 q 8 235 67 312 q -1 221 -1 224 q 86 262 5 221 q 226 340 146 291 q 272 367 256 358 q 307 381 297 381 q 325 371 320 381 q 327 363 327 368 q 323 346 327 357 q 309 318 317 331 l 298 302 q 288 269 288 288 q 289 264 288 267 q 355 246 298 246 q 559 284 431 246 q 587 290 579 290 q 594 289 591 290 q 600 287 596 289 q 604 277 604 285 q 599 267 604 270 q 588 260 595 263 q 528 243 581 256 q 341 211 404 211 q 312 212 321 211 q 246 261 257 220 q 244 279 244 269 q 250 316 244 295 l 250 317 q 250 317 250 317 l 249 317 q 245 315 248 317 l 226 304 q 64 212 132 248 l 45 201 q -14 180 9 180 m 332 433 l 330 433 l 328 435 q 325 442 326 437 q 320 469 323 446 q 311 543 316 507 l 307 539 q 256 462 276 495 l 251 454 q 235 439 241 439 l 231 441 q 223 447 228 444 q 212 455 218 451 l 212 458 q 223 480 212 466 q 252 513 237 498 q 299 568 264 530 q 318 581 311 581 l 322 580 q 330 570 328 577 l 338 508 l 344 455 l 345 445 q 342 436 344 438 q 337 434 340 435 q 332 433 333 434 z "},"ü":{"ha":582,"x_min":-47,"x_max":604,"o":"m -14 180 l -21 181 q -46 203 -40 185 q -47 210 -47 206 q -44 228 -47 218 q -26 262 -41 238 q 71 376 31 347 q 101 388 84 385 q 112 389 107 389 q 117 389 116 389 q 125 370 119 388 q 132 353 132 357 q 128 347 132 351 q 110 334 125 343 q 8 235 67 312 q -1 221 -1 224 q 86 262 5 221 q 226 340 146 291 q 272 367 256 358 q 307 381 297 381 q 325 371 320 381 q 327 363 327 368 q 323 346 327 357 q 309 318 317 331 l 298 302 q 288 269 288 288 q 289 264 288 267 q 355 246 298 246 q 559 284 431 246 q 587 290 579 290 q 594 289 591 290 q 600 287 596 289 q 604 277 604 285 q 599 267 604 270 q 588 260 595 263 q 528 243 581 256 q 341 211 404 211 q 312 212 321 211 q 246 261 257 220 q 244 279 244 269 q 250 316 244 295 l 250 317 q 250 317 250 317 l 249 317 q 245 315 248 317 l 226 304 q 64 212 132 248 l 45 201 q -14 180 9 180 m 229 460 q 208 471 213 460 q 206 481 206 475 q 208 492 206 486 q 233 517 218 510 q 249 522 242 522 q 262 516 257 522 q 266 513 264 513 q 271 509 267 513 q 275 497 275 504 q 261 471 275 484 q 229 460 244 460 m 304 462 q 295 463 299 462 q 287 468 290 465 q 282 476 283 472 l 281 483 q 296 509 281 495 q 325 524 310 524 q 338 518 332 524 q 341 515 340 515 q 347 510 343 515 q 351 498 351 505 q 335 472 351 484 q 304 462 318 462 z "},"ý":{"ha":450,"x_min":-562,"x_max":473,"o":"m -418 -776 l -433 -776 q -517 -745 -481 -774 q -562 -628 -562 -706 l -562 -612 q -507 -431 -554 -529 q -482 -387 -498 -412 q -92 6 -368 -191 q 111 138 14 81 q 115 141 115 140 q 118 152 115 141 q 134 205 128 184 l 150 260 l 161 296 l 172 335 q 164 327 170 335 q 105 263 137 296 q 57 218 73 230 q 23 205 38 205 q 16 206 19 205 q -4 222 3 211 q -9 246 -9 232 q 11 328 -7 289 q 22 343 16 337 q 33 349 28 349 q 49 340 34 349 q 66 330 64 332 q 68 323 68 328 q 64 308 68 317 q 56 296 62 304 q 38 256 43 277 l 37 252 q 67 275 40 252 q 170 387 128 326 l 177 397 q 193 410 186 409 l 235 408 q 193 209 235 355 q 185 181 185 183 l 190 184 q 442 288 343 267 l 465 292 q 471 289 469 292 q 473 281 473 285 q 472 278 473 279 q 466 275 471 277 q 456 270 457 271 q 455 270 456 270 q 449 267 454 269 q 435 261 444 264 q 343 223 372 236 l 336 220 q 267 187 306 206 q 178 140 216 162 q 171 137 172 137 q 166 123 170 136 q 137 36 151 77 q 119 -15 122 -6 q 113 -31 115 -24 q 54 -189 85 -112 q -74 -458 -5 -334 q -232 -676 -152 -600 q -372 -767 -301 -745 q -418 -776 -393 -774 m -429 -740 q -356 -721 -394 -740 q -258 -648 -307 -697 q -79 -376 -170 -562 q 22 -139 -18 -252 q 30 -116 28 -122 q 52 -53 33 -110 l 56 -43 q 81 35 64 -18 q 98 86 94 72 q 101 95 100 94 q 11 39 98 95 q -458 -408 -329 -184 q -519 -564 -502 -485 q -528 -631 -528 -602 q -526 -657 -528 -643 q -499 -713 -522 -691 q -429 -740 -473 -740 m 92 479 q 78 487 83 479 q 75 497 75 492 q 75 503 75 500 l 76 505 q 79 510 76 506 q 94 532 81 514 q 140 591 130 583 q 151 597 146 597 q 158 593 153 597 q 178 572 162 589 q 182 567 182 568 q 183 564 183 566 q 181 556 183 560 q 170 545 180 552 l 158 536 q 125 505 149 529 q 102 482 106 485 q 92 479 98 479 z "},"ÿ":{"ha":450,"x_min":-562,"x_max":473,"o":"m -418 -776 l -433 -776 q -517 -745 -481 -774 q -562 -628 -562 -706 l -562 -612 q -507 -431 -554 -529 q -482 -387 -498 -412 q -92 6 -368 -191 q 111 138 14 81 q 115 141 115 140 q 118 152 115 141 q 134 205 128 184 l 150 260 l 161 296 l 172 335 q 164 327 170 335 q 105 263 137 296 q 57 218 73 230 q 23 205 38 205 q 16 206 19 205 q -4 222 3 211 q -9 246 -9 232 q 11 328 -7 289 q 22 343 16 337 q 33 349 28 349 q 49 340 34 349 q 66 330 64 332 q 68 323 68 328 q 64 308 68 317 q 56 296 62 304 q 38 256 43 277 l 37 252 q 67 275 40 252 q 170 387 128 326 l 177 397 q 193 410 186 409 l 235 408 q 193 209 235 355 q 185 181 185 183 l 190 184 q 442 288 343 267 l 465 292 q 471 289 469 292 q 473 281 473 285 q 472 278 473 279 q 466 275 471 277 q 456 270 457 271 q 455 270 456 270 q 449 267 454 269 q 435 261 444 264 q 343 223 372 236 l 336 220 q 267 187 306 206 q 178 140 216 162 q 171 137 172 137 q 166 123 170 136 q 137 36 151 77 q 119 -15 122 -6 q 113 -31 115 -24 q 54 -189 85 -112 q -74 -458 -5 -334 q -232 -676 -152 -600 q -372 -767 -301 -745 q -418 -776 -393 -774 m -429 -740 q -356 -721 -394 -740 q -258 -648 -307 -697 q -79 -376 -170 -562 q 22 -139 -18 -252 q 30 -116 28 -122 q 52 -53 33 -110 l 56 -43 q 81 35 64 -18 q 98 86 94 72 q 101 95 100 94 q 11 39 98 95 q -458 -408 -329 -184 q -519 -564 -502 -485 q -528 -631 -528 -602 q -526 -657 -528 -643 q -499 -713 -522 -691 q -429 -740 -473 -740 m 70 478 q 49 490 54 479 q 47 499 47 493 q 50 510 47 505 q 74 535 60 528 q 90 540 83 540 q 104 534 98 540 q 107 532 106 532 q 113 527 109 532 q 117 515 117 522 q 102 490 117 502 q 70 478 85 478 m 145 480 q 136 481 140 480 q 128 487 132 483 q 123 494 125 490 l 123 501 q 137 528 123 513 q 166 542 151 542 q 179 536 174 542 q 183 534 181 534 q 188 529 184 534 q 192 517 192 524 q 176 490 192 502 q 145 480 159 480 z "},"ž":{"ha":538,"x_min":-26,"x_max":551,"o":"m 79 -262 q 28 -233 44 -262 q 22 -204 22 -220 q 28 -172 22 -189 q 114 -32 51 -109 q 248 97 164 26 q 321 157 292 134 q 324 159 322 158 q 326 163 326 160 q 324 171 326 167 q 273 204 319 204 q 172 178 231 204 q 44 97 107 149 q 18 77 26 81 l -10 103 l 17 162 q 73 296 46 210 q 87 343 87 339 l 81 334 q 34 247 50 293 q 13 215 24 220 q 4 217 8 215 q -6 221 -1 219 q -16 225 -12 224 q -20 228 -19 227 q -26 232 -25 230 q -26 238 -26 234 q -12 279 -26 254 q 59 374 16 328 q 98 398 82 398 q 126 361 126 398 q 111 300 126 340 l 109 294 q 102 279 104 286 q 66 190 82 223 l 62 181 q 70 185 64 181 q 220 248 140 230 q 268 254 246 254 q 300 250 285 254 q 365 197 349 239 l 367 191 q 429 235 374 198 q 509 281 473 264 q 541 294 532 293 q 549 292 546 294 q 551 286 551 289 q 547 278 551 281 q 439 202 532 262 q 405 179 418 189 l 371 155 q 363 104 369 127 q 291 -60 342 26 q 256 -115 275 -87 q 151 -230 203 -191 q 79 -262 110 -262 m 77 -229 q 89 -227 82 -229 q 180 -152 126 -213 q 260 -35 224 -102 q 318 104 298 35 l 321 116 q 309 106 319 116 q 170 -16 224 39 q 73 -150 105 -85 q 55 -205 55 -184 q 57 -216 55 -212 q 77 -229 63 -229 m 117 449 q 108 453 111 449 q 104 467 105 457 l 100 501 q 94 545 98 513 q 90 583 90 577 q 93 593 90 591 q 102 595 96 595 q 111 586 109 595 q 115 558 112 581 q 124 487 121 497 q 144 513 125 487 q 183 573 159 534 l 189 583 q 199 589 195 589 q 203 588 201 589 q 222 576 205 587 l 222 568 q 220 561 222 565 q 203 538 219 557 q 128 454 136 460 q 117 449 122 449 z "},"þ":{"ha":631,"x_min":1,"x_max":528,"o":"m 17 -22 l 4 -20 l 3 -17 q 1 -1 1 -12 q 3 32 1 14 q 36 143 10 67 q 41 158 41 155 q 24 156 32 156 l 16 156 q 11 170 11 167 l 14 173 q 54 195 23 182 q 81 270 59 210 q 140 423 123 380 l 145 435 l 130 431 q 85 420 96 420 q 82 421 83 420 q 74 437 81 422 q 67 456 68 452 q 78 466 67 459 q 171 500 111 488 l 180 522 q 310 818 285 782 q 329 840 321 835 l 363 822 l 363 817 q 341 760 361 800 q 323 725 328 732 q 280 640 315 712 q 237 552 256 592 q 216 507 216 509 l 259 512 q 341 515 300 515 q 443 509 400 515 q 513 479 492 500 q 528 445 528 464 q 522 420 528 433 q 467 359 505 387 q 397 315 441 340 q 87 173 262 239 l 78 170 l 71 149 q 37 35 51 88 q 23 -13 27 -5 q 17 -22 20 -22 m 93 210 l 110 216 q 397 353 266 275 q 466 404 444 381 q 490 445 490 431 l 490 449 q 383 472 471 472 q 210 454 290 471 q 200 451 204 452 q 193 450 196 450 q 189 448 190 449 q 151 359 182 433 q 114 264 134 317 q 93 210 93 211 z "},"À":{"ha":1799,"x_min":1,"x_max":1816,"o":"m 109 -94 l 78 -94 q 4 -45 20 -87 q 1 -20 1 -33 l 1 -8 q 140 165 14 68 q 646 418 309 292 q 831 483 742 454 l 844 486 l 919 555 q 1375 945 1257 865 q 1492 1004 1456 1004 q 1516 995 1508 1004 q 1525 971 1525 986 q 1519 937 1525 958 q 1461 760 1509 899 q 1411 612 1411 614 q 1431 612 1411 612 l 1448 612 q 1468 611 1458 612 q 1503 608 1484 610 l 1512 607 l 1512 595 l 1511 568 l 1466 566 l 1425 562 q 1394 559 1395 559 q 1392 552 1394 559 q 1315 183 1315 308 q 1382 59 1315 66 l 1394 58 q 1616 157 1468 58 q 1731 237 1666 189 l 1764 262 q 1798 287 1780 273 q 1809 291 1804 291 q 1816 285 1815 291 q 1811 277 1816 281 q 1802 267 1807 272 q 1721 196 1775 240 q 1623 123 1674 158 q 1394 26 1480 26 q 1312 64 1341 26 q 1284 184 1284 102 q 1341 495 1284 296 q 1359 553 1356 543 l 1359 554 l 1333 550 q 985 473 1174 524 q 840 431 899 450 l 831 429 l 805 405 q 416 56 505 127 q 259 -49 339 -9 q 124 -94 188 -84 l 109 -94 m 97 -55 l 109 -54 q 378 73 227 -43 q 623 286 446 126 q 751 402 747 398 q 747 401 749 402 q 743 400 745 401 q 736 397 741 399 l 710 389 q 262 193 435 293 q 87 60 144 124 q 41 -22 41 9 q 97 -55 41 -53 m 920 510 l 925 512 q 1068 551 979 528 q 1376 609 1241 597 q 1413 715 1377 611 l 1434 777 q 1489 945 1480 911 q 1493 971 1493 965 q 1492 973 1493 973 q 1396 921 1468 973 q 956 544 1273 835 q 920 511 920 511 l 920 510 m 1503 1060 q 1482 1075 1495 1060 q 1430 1125 1447 1114 q 1418 1135 1421 1131 q 1414 1143 1414 1138 q 1415 1147 1414 1145 q 1429 1162 1417 1149 q 1447 1177 1444 1177 q 1461 1169 1455 1177 q 1472 1155 1466 1164 l 1488 1133 q 1505 1107 1499 1115 q 1517 1087 1514 1094 q 1521 1076 1521 1081 q 1516 1065 1521 1069 q 1503 1060 1510 1060 z "},"Á":{"ha":1799,"x_min":1,"x_max":1816,"o":"m 109 -94 l 78 -94 q 4 -45 20 -87 q 1 -20 1 -33 l 1 -8 q 140 165 14 68 q 646 418 309 292 q 831 483 742 454 l 844 486 l 919 555 q 1375 945 1257 865 q 1492 1004 1456 1004 q 1516 995 1508 1004 q 1525 971 1525 986 q 1519 937 1525 958 q 1461 760 1509 899 q 1411 612 1411 614 q 1431 612 1411 612 l 1448 612 q 1468 611 1458 612 q 1503 608 1484 610 l 1512 607 l 1512 595 l 1511 568 l 1466 566 l 1425 562 q 1394 559 1395 559 q 1392 552 1394 559 q 1315 183 1315 308 q 1382 59 1315 66 l 1394 58 q 1616 157 1468 58 q 1731 237 1666 189 l 1764 262 q 1798 287 1780 273 q 1809 291 1804 291 q 1816 285 1815 291 q 1811 277 1816 281 q 1802 267 1807 272 q 1721 196 1775 240 q 1623 123 1674 158 q 1394 26 1480 26 q 1312 64 1341 26 q 1284 184 1284 102 q 1341 495 1284 296 q 1359 553 1356 543 l 1359 554 l 1333 550 q 985 473 1174 524 q 840 431 899 450 l 831 429 l 805 405 q 416 56 505 127 q 259 -49 339 -9 q 124 -94 188 -84 l 109 -94 m 97 -55 l 109 -54 q 378 73 227 -43 q 623 286 446 126 q 751 402 747 398 q 747 401 749 402 q 743 400 745 401 q 736 397 741 399 l 710 389 q 262 193 435 293 q 87 60 144 124 q 41 -22 41 9 q 97 -55 41 -53 m 920 510 l 925 512 q 1068 551 979 528 q 1376 609 1241 597 q 1413 715 1377 611 l 1434 777 q 1489 945 1480 911 q 1493 971 1493 965 q 1492 973 1493 973 q 1396 921 1468 973 q 956 544 1273 835 q 920 511 920 511 l 920 510 m 1466 1066 q 1453 1074 1457 1066 q 1449 1084 1449 1078 q 1450 1090 1449 1087 l 1451 1091 q 1453 1097 1451 1093 q 1469 1118 1456 1101 q 1514 1178 1505 1170 q 1526 1184 1520 1184 q 1532 1180 1528 1184 q 1552 1158 1537 1176 q 1557 1153 1556 1154 q 1558 1150 1558 1152 q 1556 1143 1558 1147 q 1544 1132 1554 1139 l 1533 1123 q 1500 1092 1524 1116 q 1476 1069 1480 1072 q 1466 1066 1472 1066 z "},"Â":{"ha":1799,"x_min":1,"x_max":1816,"o":"m 109 -94 l 78 -94 q 4 -45 20 -87 q 1 -20 1 -33 l 1 -8 q 140 165 14 68 q 646 418 309 292 q 831 483 742 454 l 844 486 l 919 555 q 1375 945 1257 865 q 1492 1004 1456 1004 q 1516 995 1508 1004 q 1525 971 1525 986 q 1519 937 1525 958 q 1461 760 1509 899 q 1411 612 1411 614 q 1431 612 1411 612 l 1448 612 q 1468 611 1458 612 q 1503 608 1484 610 l 1512 607 l 1512 595 l 1511 568 l 1466 566 l 1425 562 q 1394 559 1395 559 q 1392 552 1394 559 q 1315 183 1315 308 q 1382 59 1315 66 l 1394 58 q 1616 157 1468 58 q 1731 237 1666 189 l 1764 262 q 1798 287 1780 273 q 1809 291 1804 291 q 1816 285 1815 291 q 1811 277 1816 281 q 1802 267 1807 272 q 1721 196 1775 240 q 1623 123 1674 158 q 1394 26 1480 26 q 1312 64 1341 26 q 1284 184 1284 102 q 1341 495 1284 296 q 1359 553 1356 543 l 1359 554 l 1333 550 q 985 473 1174 524 q 840 431 899 450 l 831 429 l 805 405 q 416 56 505 127 q 259 -49 339 -9 q 124 -94 188 -84 l 109 -94 m 97 -55 l 109 -54 q 378 73 227 -43 q 623 286 446 126 q 751 402 747 398 q 747 401 749 402 q 743 400 745 401 q 736 397 741 399 l 710 389 q 262 193 435 293 q 87 60 144 124 q 41 -22 41 9 q 97 -55 41 -53 m 920 510 l 925 512 q 1068 551 979 528 q 1376 609 1241 597 q 1413 715 1377 611 l 1434 777 q 1489 945 1480 911 q 1493 971 1493 965 q 1492 973 1493 973 q 1396 921 1468 973 q 956 544 1273 835 q 920 511 920 511 l 920 510 m 1539 1061 l 1537 1061 l 1535 1063 q 1532 1070 1533 1065 q 1527 1097 1530 1074 q 1518 1171 1523 1135 l 1514 1167 q 1463 1090 1483 1123 l 1458 1082 q 1442 1067 1449 1067 l 1438 1069 q 1430 1075 1435 1072 q 1419 1083 1425 1079 l 1419 1086 q 1430 1108 1419 1094 q 1459 1141 1444 1126 q 1506 1196 1471 1158 q 1525 1208 1518 1208 l 1529 1208 q 1537 1198 1535 1205 l 1545 1136 l 1551 1083 l 1552 1073 q 1549 1064 1551 1066 q 1544 1062 1548 1063 q 1539 1061 1540 1062 z "},"Ã":{"ha":1799,"x_min":1,"x_max":1816,"o":"m 109 -94 l 78 -94 q 4 -45 20 -87 q 1 -20 1 -33 l 1 -8 q 140 165 14 68 q 646 418 309 292 q 831 483 742 454 l 844 486 l 919 555 q 1375 945 1257 865 q 1492 1004 1456 1004 q 1516 995 1508 1004 q 1525 971 1525 986 q 1519 937 1525 958 q 1461 760 1509 899 q 1411 612 1411 614 q 1431 612 1411 612 l 1448 612 q 1468 611 1458 612 q 1503 608 1484 610 l 1512 607 l 1512 595 l 1511 568 l 1466 566 l 1425 562 q 1394 559 1395 559 q 1392 552 1394 559 q 1315 183 1315 308 q 1382 59 1315 66 l 1394 58 q 1616 157 1468 58 q 1731 237 1666 189 l 1764 262 q 1798 287 1780 273 q 1809 291 1804 291 q 1816 285 1815 291 q 1811 277 1816 281 q 1802 267 1807 272 q 1721 196 1775 240 q 1623 123 1674 158 q 1394 26 1480 26 q 1312 64 1341 26 q 1284 184 1284 102 q 1341 495 1284 296 q 1359 553 1356 543 l 1359 554 l 1333 550 q 985 473 1174 524 q 840 431 899 450 l 831 429 l 805 405 q 416 56 505 127 q 259 -49 339 -9 q 124 -94 188 -84 l 109 -94 m 97 -55 l 109 -54 q 378 73 227 -43 q 623 286 446 126 q 751 402 747 398 q 747 401 749 402 q 743 400 745 401 q 736 397 741 399 l 710 389 q 262 193 435 293 q 87 60 144 124 q 41 -22 41 9 q 97 -55 41 -53 m 920 510 l 925 512 q 1068 551 979 528 q 1376 609 1241 597 q 1413 715 1377 611 l 1434 777 q 1489 945 1480 911 q 1493 971 1493 965 q 1492 973 1493 973 q 1396 921 1468 973 q 956 544 1273 835 q 920 511 920 511 l 920 510 m 1440 1085 q 1416 1109 1436 1085 q 1411 1116 1411 1114 q 1419 1127 1411 1122 l 1421 1129 q 1445 1142 1432 1137 q 1458 1143 1450 1143 q 1474 1141 1468 1143 q 1493 1133 1480 1139 q 1515 1124 1510 1124 q 1519 1125 1517 1124 q 1529 1131 1522 1126 q 1537 1137 1534 1135 q 1544 1139 1540 1139 q 1549 1137 1548 1139 q 1555 1131 1551 1136 q 1558 1122 1558 1126 q 1557 1118 1558 1120 q 1550 1111 1556 1115 q 1531 1100 1537 1103 q 1513 1097 1524 1097 q 1493 1100 1503 1097 q 1467 1107 1472 1107 q 1463 1106 1464 1107 q 1459 1102 1461 1105 q 1454 1097 1456 1099 q 1440 1085 1446 1085 z "},"Ä":{"ha":1799,"x_min":1,"x_max":1816,"o":"m 109 -94 l 78 -94 q 4 -45 20 -87 q 1 -20 1 -33 l 1 -8 q 140 165 14 68 q 646 418 309 292 q 831 483 742 454 l 844 486 l 919 555 q 1375 945 1257 865 q 1492 1004 1456 1004 q 1516 995 1508 1004 q 1525 971 1525 986 q 1519 937 1525 958 q 1461 760 1509 899 q 1411 612 1411 614 q 1431 612 1411 612 l 1448 612 q 1468 611 1458 612 q 1503 608 1484 610 l 1512 607 l 1512 595 l 1511 568 l 1466 566 l 1425 562 q 1394 559 1395 559 q 1392 552 1394 559 q 1315 183 1315 308 q 1382 59 1315 66 l 1394 58 q 1616 157 1468 58 q 1731 237 1666 189 l 1764 262 q 1798 287 1780 273 q 1809 291 1804 291 q 1816 285 1815 291 q 1811 277 1816 281 q 1802 267 1807 272 q 1721 196 1775 240 q 1623 123 1674 158 q 1394 26 1480 26 q 1312 64 1341 26 q 1284 184 1284 102 q 1341 495 1284 296 q 1359 553 1356 543 l 1359 554 l 1333 550 q 985 473 1174 524 q 840 431 899 450 l 831 429 l 805 405 q 416 56 505 127 q 259 -49 339 -9 q 124 -94 188 -84 l 109 -94 m 97 -55 l 109 -54 q 378 73 227 -43 q 623 286 446 126 q 751 402 747 398 q 747 401 749 402 q 743 400 745 401 q 736 397 741 399 l 710 389 q 262 193 435 293 q 87 60 144 124 q 41 -22 41 9 q 97 -55 41 -53 m 920 510 l 925 512 q 1068 551 979 528 q 1376 609 1241 597 q 1413 715 1377 611 l 1434 777 q 1489 945 1480 911 q 1493 971 1493 965 q 1492 973 1493 973 q 1396 921 1468 973 q 956 544 1273 835 q 920 511 920 511 l 920 510 m 1436 1088 q 1415 1099 1420 1088 q 1413 1109 1413 1103 q 1415 1120 1413 1114 q 1440 1145 1426 1138 q 1456 1149 1449 1149 q 1470 1144 1464 1149 q 1473 1141 1472 1141 q 1478 1137 1474 1141 q 1482 1125 1482 1132 q 1468 1099 1482 1112 q 1436 1088 1451 1088 m 1511 1090 q 1502 1091 1506 1090 q 1494 1096 1497 1093 q 1489 1104 1491 1100 l 1489 1111 q 1503 1137 1489 1123 q 1532 1152 1517 1152 q 1545 1146 1539 1152 q 1549 1143 1547 1143 q 1554 1138 1550 1143 q 1558 1126 1558 1133 q 1542 1100 1558 1112 q 1511 1090 1525 1090 z "},"Å":{"ha":1799,"x_min":1,"x_max":1816,"o":"m 109 -94 l 78 -94 q 4 -45 20 -87 q 1 -20 1 -33 l 1 -8 q 140 165 14 68 q 646 418 309 292 q 831 483 742 454 l 844 486 l 919 555 q 1375 945 1257 865 q 1492 1004 1456 1004 q 1516 995 1508 1004 q 1525 971 1525 986 q 1519 937 1525 958 q 1461 760 1509 899 q 1411 612 1411 614 q 1431 612 1411 612 l 1448 612 q 1468 611 1458 612 q 1503 608 1484 610 l 1512 607 l 1512 595 l 1511 568 l 1466 566 l 1425 562 q 1394 559 1395 559 q 1392 552 1394 559 q 1315 183 1315 308 q 1382 59 1315 66 l 1394 58 q 1616 157 1468 58 q 1731 237 1666 189 l 1764 262 q 1798 287 1780 273 q 1809 291 1804 291 q 1816 285 1815 291 q 1811 277 1816 281 q 1802 267 1807 272 q 1721 196 1775 240 q 1623 123 1674 158 q 1394 26 1480 26 q 1312 64 1341 26 q 1284 184 1284 102 q 1341 495 1284 296 q 1359 553 1356 543 l 1359 554 l 1333 550 q 985 473 1174 524 q 840 431 899 450 l 831 429 l 805 405 q 416 56 505 127 q 259 -49 339 -9 q 124 -94 188 -84 l 109 -94 m 97 -55 l 109 -54 q 378 73 227 -43 q 623 286 446 126 q 751 402 747 398 q 747 401 749 402 q 743 400 745 401 q 736 397 741 399 l 710 389 q 262 193 435 293 q 87 60 144 124 q 41 -22 41 9 q 97 -55 41 -53 m 920 510 l 925 512 q 1068 551 979 528 q 1376 609 1241 597 q 1413 715 1377 611 l 1434 777 q 1489 945 1480 911 q 1493 971 1493 965 q 1492 973 1493 973 q 1396 921 1468 973 q 956 544 1273 835 q 920 511 920 511 l 920 510 m 1459 1082 q 1450 1084 1454 1082 q 1438 1105 1438 1090 q 1439 1115 1438 1110 q 1458 1151 1444 1133 q 1500 1178 1479 1178 q 1514 1175 1509 1178 q 1516 1172 1516 1174 l 1516 1163 q 1531 1156 1527 1163 q 1533 1149 1533 1153 q 1522 1127 1533 1141 q 1493 1099 1509 1112 q 1459 1082 1472 1082 m 1463 1105 q 1485 1118 1477 1112 q 1499 1131 1489 1122 q 1509 1141 1509 1140 l 1508 1141 q 1496 1137 1507 1141 q 1482 1131 1485 1132 q 1478 1130 1480 1131 q 1466 1114 1474 1126 q 1463 1106 1463 1108 q 1463 1105 1463 1105 z "},"Æ":{"ha":2528,"x_min":1,"x_max":2545,"o":"m 109 -54 q 378 73 227 -43 q 444 127 401 91 q 530 202 486 163 q 624 286 572 240 q 712 366 675 332 q 751 402 749 400 q 750 403 751 403 l 749 402 q 743 400 747 401 q 730 396 740 399 q 710 389 721 393 q 262 193 435 293 q 87 60 145 124 q 41 -22 41 10 q 43 -31 41 -26 q 97 -55 51 -54 q 101 -55 98 -55 q 109 -54 104 -55 m 1386 535 q 1348 400 1364 462 q 1349 401 1349 400 q 1384 413 1366 407 q 1411 423 1402 420 q 1430 431 1418 426 q 1444 436 1438 433 q 1480 449 1458 441 q 1523 465 1502 457 q 1554 476 1544 472 q 1613 497 1592 490 q 1624 501 1619 499 q 1630 503 1629 503 q 1633 505 1632 503 q 1639 512 1635 507 q 1706 599 1682 569 q 1800 690 1764 669 l 1804 692 l 1813 684 q 1820 676 1817 679 q 1825 670 1823 673 q 1828 667 1827 668 q 1830 665 1830 666 q 1830 664 1830 665 q 1830 664 1830 664 q 1829 663 1830 663 q 1828 661 1828 662 q 1807 633 1826 656 q 1789 611 1797 621 q 1770 588 1780 601 q 1758 574 1765 583 q 1744 556 1751 565 q 1732 543 1737 548 q 1729 538 1730 540 l 1727 536 l 1728 536 l 1729 537 l 1731 537 q 1746 542 1735 538 q 1770 550 1757 545 q 1793 557 1783 554 q 2006 608 1931 600 q 2033 609 2018 609 q 2057 608 2048 610 q 2106 578 2096 604 q 2108 566 2108 573 q 2107 553 2108 559 q 2092 522 2104 538 q 2086 514 2089 517 q 2081 509 2083 511 l 2079 507 l 2072 510 q 2067 512 2068 511 q 2066 514 2066 513 q 2066 517 2066 515 l 2066 518 q 2067 528 2066 522 q 2073 547 2069 534 q 2076 562 2076 556 l 2076 564 q 2043 578 2075 576 l 2038 578 q 1697 489 1939 578 l 1685 485 l 1680 479 q 1666 462 1676 474 q 1647 438 1657 450 q 1634 421 1638 427 q 1503 246 1540 302 q 1477 202 1490 227 q 1456 159 1464 178 q 1438 87 1438 117 q 1441 66 1438 75 l 1458 37 q 1466 31 1463 34 q 1559 9 1497 10 l 1574 9 q 1898 68 1691 9 q 2396 250 2117 132 q 2492 286 2451 272 q 2533 298 2528 297 l 2534 298 q 2538 300 2536 300 q 2542 298 2540 300 q 2545 292 2545 296 q 2539 285 2544 288 q 2517 271 2536 283 q 2473 248 2497 259 q 2324 185 2426 226 q 2124 109 2222 145 q 1606 -26 1786 -12 q 1587 -27 1600 -26 q 1565 -27 1574 -27 q 1552 -27 1556 -27 l 1544 -27 q 1428 14 1463 -23 q 1416 28 1421 20 q 1404 26 1410 26 l 1394 26 q 1358 31 1375 26 q 1312 65 1330 40 q 1285 146 1291 93 q 1284 165 1284 154 q 1284 184 1284 176 l 1284 200 q 1285 225 1284 216 q 1311 386 1289 269 q 1312 387 1312 386 q 1341 495 1324 437 q 1349 519 1345 507 q 1356 542 1353 532 q 1359 553 1358 551 l 1359 554 q 1358 554 1358 554 q 1355 554 1357 554 q 1351 553 1354 553 q 1344 552 1348 553 q 1335 551 1341 551 q 1333 550 1335 551 q 985 473 1174 524 q 908 452 949 464 q 840 431 867 440 l 831 429 l 805 405 q 416 56 505 127 q 259 -49 339 -9 q 124 -94 188 -85 q 110 -94 119 -94 q 92 -94 101 -94 q 78 -94 83 -94 q 4 -45 20 -87 q 1 -21 1 -33 q 1 -8 1 -15 q 140 165 14 68 q 646 418 308 292 q 831 483 742 454 l 844 486 l 849 492 q 870 511 852 494 q 913 549 888 527 l 919 555 q 1375 945 1257 864 q 1493 1004 1456 1004 q 1516 994 1509 1004 q 1525 972 1525 986 l 1525 968 q 1519 936 1525 957 q 1500 874 1514 916 q 1461 760 1487 833 l 1459 754 q 1474 760 1466 757 q 1544 787 1520 778 q 1564 795 1554 791 q 1581 802 1575 800 q 1596 808 1588 804 q 1612 814 1605 811 q 1628 820 1618 816 q 1648 827 1638 824 q 1651 829 1650 828 q 1934 927 1794 883 q 2003 948 1965 937 q 2072 966 2042 959 q 2154 985 2113 977 q 2222 997 2194 994 q 2228 998 2224 997 q 2239 998 2234 998 q 2274 1001 2258 1001 q 2298 1002 2290 1002 q 2322 1001 2312 1002 q 2391 984 2364 998 q 2404 976 2399 980 q 2416 966 2410 971 q 2439 924 2433 949 q 2441 904 2441 915 l 2441 898 q 2436 872 2439 883 l 2435 868 l 2397 868 l 2395 872 q 2393 880 2394 875 q 2391 895 2392 885 q 2378 925 2388 917 q 2275 950 2351 950 l 2267 950 q 2037 914 2178 948 q 1985 900 2011 907 q 1939 888 1958 893 q 1927 884 1935 886 q 1910 880 1919 882 q 1895 875 1902 877 q 1885 872 1888 873 q 1874 868 1883 871 q 1857 863 1866 866 q 1800 845 1835 857 q 1741 825 1764 833 q 1737 824 1740 825 q 1721 818 1730 821 q 1706 813 1712 815 q 1522 745 1630 787 q 1445 715 1483 730 l 1437 690 q 1418 635 1426 657 q 1411 612 1411 613 q 1431 612 1411 612 q 1451 612 1442 612 q 1468 611 1459 612 q 1487 610 1480 610 q 1506 608 1494 609 l 1512 607 l 1512 595 q 1512 585 1512 590 q 1512 576 1512 579 l 1511 568 l 1508 568 q 1505 568 1507 568 q 1501 568 1503 568 q 1492 567 1499 568 q 1478 566 1486 567 q 1461 565 1470 566 q 1447 564 1452 565 q 1425 562 1437 564 q 1403 560 1413 561 q 1394 559 1394 559 q 1392 552 1394 558 q 1386 535 1390 545 m 1382 59 q 1395 58 1388 58 l 1402 58 q 1401 62 1402 60 q 1398 89 1398 75 q 1426 195 1398 134 q 1445 234 1434 214 q 1466 270 1456 255 q 1517 345 1482 296 q 1586 441 1551 394 l 1591 448 l 1558 435 q 1477 402 1525 422 q 1387 363 1430 382 q 1348 345 1364 352 q 1335 339 1342 342 q 1315 183 1315 245 q 1316 152 1315 166 q 1382 59 1324 65 m 935 515 q 1068 551 999 534 q 1361 608 1240 596 q 1372 609 1367 608 l 1376 609 q 1381 624 1377 610 q 1393 659 1386 637 q 1412 713 1400 680 q 1434 777 1423 747 q 1473 890 1461 854 q 1489 945 1485 927 q 1492 962 1491 956 q 1493 970 1493 968 l 1493 972 q 1492 973 1493 972 q 1489 972 1491 973 q 1396 921 1463 969 q 956 544 1273 835 q 931 521 941 530 q 920 511 921 511 q 920 510 920 511 l 920 510 q 925 512 921 511 q 935 515 929 513 z "},"Œ":{"ha":2047,"x_min":9,"x_max":2070,"o":"m 1270 734 q 1224 589 1258 662 q 1232 599 1228 595 q 1325 690 1289 669 l 1329 692 l 1338 684 q 1345 676 1342 679 q 1350 670 1348 673 q 1354 667 1352 668 q 1355 665 1355 666 q 1356 664 1356 665 q 1355 664 1356 664 q 1354 663 1355 663 q 1354 661 1354 662 q 1333 633 1352 656 q 1314 611 1322 621 q 1295 588 1305 601 q 1283 574 1291 583 q 1269 556 1276 565 q 1257 543 1262 548 q 1255 538 1255 540 l 1253 536 l 1253 536 l 1254 537 l 1257 537 q 1272 542 1261 538 q 1295 550 1282 545 q 1318 557 1308 554 q 1531 608 1456 600 q 1558 609 1543 609 q 1582 608 1573 610 q 1631 578 1622 604 q 1633 566 1633 573 q 1632 553 1634 559 q 1617 522 1629 538 q 1611 514 1614 517 q 1606 509 1609 511 l 1604 507 l 1597 510 q 1593 512 1594 511 q 1591 514 1592 513 q 1591 517 1591 515 l 1591 518 q 1593 528 1591 522 q 1598 547 1594 534 q 1601 562 1601 556 l 1601 564 q 1569 578 1600 576 l 1563 578 q 1222 489 1464 578 l 1210 485 l 1205 479 q 1192 462 1201 474 q 1173 438 1182 450 q 1159 421 1163 427 q 1028 246 1065 302 q 1002 202 1015 227 q 981 159 989 178 q 964 87 964 117 q 975 46 964 62 q 983 38 978 42 q 991 31 987 34 q 1084 9 1022 10 l 1099 9 q 1423 68 1216 9 q 1921 250 1642 132 q 2018 286 1976 272 q 2058 298 2053 297 l 2059 298 q 2064 300 2062 300 q 2067 298 2066 300 q 2070 292 2070 296 q 2064 285 2070 288 q 2042 271 2062 283 q 1998 248 2022 259 q 1850 185 1952 226 q 1649 109 1748 145 q 1131 -26 1312 -12 q 1112 -27 1125 -26 q 1090 -27 1099 -27 q 1077 -27 1081 -27 l 1069 -27 q 953 14 988 -23 q 926 62 932 34 q 924 89 924 75 q 951 195 924 134 q 970 234 960 214 q 991 270 981 255 q 1027 323 1004 290 q 920 222 977 273 q 659 45 791 112 q 386 -37 517 -26 q 369 -39 380 -38 q 352 -39 359 -39 q 340 -39 345 -39 l 326 -39 q 158 -3 231 -36 q 43 101 81 33 q 9 243 9 165 q 18 325 9 282 q 90 505 37 414 q 115 546 100 523 q 142 585 130 568 q 288 733 202 663 q 696 918 479 885 q 781 926 736 924 l 792 926 l 806 932 q 1045 994 942 994 q 1102 989 1075 994 q 1188 953 1150 980 q 1261 860 1240 916 q 1459 927 1361 896 q 1529 948 1490 937 q 1597 966 1567 959 q 1679 985 1638 977 q 1747 997 1719 994 q 1754 998 1750 997 q 1764 998 1759 998 q 1799 1001 1783 1001 q 1823 1002 1815 1002 q 1847 1001 1837 1002 q 1916 984 1889 998 q 1930 976 1924 980 q 1942 966 1935 971 q 1964 924 1959 949 q 1966 904 1966 915 l 1966 898 q 1961 872 1965 883 l 1960 868 l 1922 868 l 1921 872 q 1918 880 1919 875 q 1916 895 1917 885 q 1904 925 1913 917 q 1801 950 1876 950 l 1792 950 q 1563 914 1703 948 q 1510 900 1537 907 q 1464 888 1483 893 q 1452 884 1460 886 q 1436 880 1444 882 q 1420 875 1428 877 q 1411 872 1413 873 q 1400 868 1408 871 q 1382 863 1392 866 q 1325 845 1360 857 q 1270 827 1292 833 q 1270 824 1270 825 q 1273 783 1273 804 q 1270 734 1273 760 m 664 856 l 663 856 q 661 855 663 856 q 658 854 660 855 q 643 851 651 853 q 627 848 634 849 q 414 758 517 820 q 193 572 284 680 q 160 528 178 553 q 127 479 142 502 q 60 313 77 394 q 55 282 56 296 q 52 252 53 268 l 52 241 q 89 106 52 161 q 138 55 109 77 q 326 0 208 5 l 342 0 q 366 0 354 0 q 383 1 377 1 q 512 26 448 6 q 777 157 642 65 q 1164 548 1022 329 q 1230 699 1208 620 q 1241 778 1241 741 l 1241 784 q 1171 927 1241 877 q 1071 962 1130 956 q 1045 962 1062 962 q 1019 962 1028 962 q 878 928 952 956 q 866 924 867 924 q 866 923 866 924 q 871 922 866 922 q 903 918 883 921 q 940 911 923 914 q 1070 868 1015 895 l 1079 863 l 1073 846 q 1068 833 1070 838 q 1067 830 1067 831 q 1066 829 1067 829 l 1066 828 l 1063 828 q 1060 829 1062 829 q 1057 829 1059 829 q 1021 839 1050 831 q 848 869 931 864 q 825 870 840 869 q 796 870 810 870 q 776 869 782 870 q 769 869 774 869 q 759 869 764 869 l 747 867 l 737 863 q 388 563 525 743 q 309 431 334 492 q 300 408 304 418 q 294 387 297 398 q 289 350 289 366 q 299 311 289 326 q 306 304 302 308 q 313 298 310 300 q 364 281 331 286 q 378 279 374 279 q 385 278 382 278 q 389 277 387 277 q 393 276 391 277 q 397 276 395 276 l 401 276 l 401 272 q 401 268 401 271 q 400 264 401 266 l 400 261 l 395 261 q 368 260 380 260 q 313 269 334 260 q 260 336 268 287 q 258 355 258 345 q 328 533 258 427 q 639 839 443 707 q 650 847 644 843 q 659 852 656 850 q 663 854 661 853 l 664 856 z "},"Ç":{"ha":1139,"x_min":22,"x_max":1157,"o":"m 285 -75 q 291 -51 288 -59 q 205 -29 244 -46 q 59 100 105 14 q 22 258 22 172 q 92 524 22 378 q 332 829 178 696 q 578 981 447 927 q 746 1026 667 1016 q 772 1028 757 1027 q 796 1027 787 1028 q 868 995 843 1021 q 894 940 888 973 q 896 930 895 935 q 896 915 896 925 q 896 899 896 904 q 894 888 895 894 q 889 863 892 874 q 883 838 887 852 q 791 654 857 753 q 646 480 726 556 q 496 391 563 404 q 475 389 487 389 q 456 391 464 389 q 405 425 423 397 q 399 433 403 427 q 393 445 396 439 q 389 455 390 451 q 387 458 387 457 q 388 460 387 459 q 393 463 389 460 q 403 470 397 466 q 413 476 409 473 q 418 479 418 479 q 424 474 419 479 q 433 463 428 470 q 451 446 443 450 q 469 441 458 441 q 576 494 510 442 q 709 630 642 546 q 836 848 801 747 q 849 914 849 886 l 849 920 q 835 964 849 949 q 819 975 828 972 q 772 983 801 983 q 662 965 729 983 q 377 817 513 924 q 138 537 228 697 q 55 255 55 384 q 58 210 55 232 q 151 39 72 102 q 243 -10 194 6 q 329 -22 281 -22 q 406 -16 365 -22 q 842 139 572 10 q 903 170 864 150 q 972 205 943 189 q 1021 229 993 215 q 1072 255 1048 243 q 1104 270 1096 267 l 1140 288 q 1149 290 1145 290 q 1152 290 1151 290 q 1157 283 1157 288 q 1147 273 1156 279 q 1082 230 1107 245 q 1058 215 1061 217 q 1057 214 1058 214 q 1023 195 1038 203 q 980 172 1008 187 q 947 155 970 167 q 899 131 924 144 q 858 111 874 119 q 457 -38 615 -4 q 372 -52 414 -47 q 346 -52 361 -52 q 345 -58 345 -56 q 341 -70 344 -62 q 334 -90 339 -77 q 329 -103 332 -96 q 323 -118 326 -111 q 319 -131 321 -125 q 317 -136 317 -136 q 321 -135 318 -136 q 328 -133 323 -134 q 366 -125 350 -125 q 379 -127 373 -125 q 406 -163 406 -135 q 406 -172 406 -168 q 402 -183 405 -177 q 397 -195 400 -189 q 357 -235 385 -217 q 300 -260 330 -253 q 285 -261 292 -261 q 275 -261 278 -261 l 268 -261 q 253 -256 257 -259 l 250 -254 l 250 -246 q 250 -242 250 -243 q 251 -239 250 -240 q 252 -237 252 -239 q 281 -230 258 -231 q 304 -227 294 -229 q 325 -218 314 -224 q 374 -165 370 -195 q 374 -162 374 -163 q 374 -161 374 -161 q 374 -160 374 -161 q 368 -159 372 -159 q 360 -159 365 -159 q 310 -182 345 -162 q 298 -189 303 -186 q 292 -192 292 -192 q 288 -193 290 -193 l 286 -193 q 279 -192 281 -193 q 272 -188 275 -191 q 267 -181 269 -184 q 266 -172 266 -178 q 267 -159 266 -167 q 275 -119 270 -142 q 285 -75 280 -96 z "},"È":{"ha":1440,"x_min":0,"x_max":1458,"o":"m 498 -27 l 473 -27 q 341 14 378 -26 q 312 88 312 41 q 339 195 312 134 q 379 270 360 240 q 500 441 417 330 q 503 445 501 443 q 505 448 504 448 q 389 401 500 448 q 277 352 317 370 l 215 323 l 182 309 q 131 295 146 295 q 127 296 129 295 q 121 309 126 297 l 113 330 l 115 332 q 149 355 121 341 q 203 378 167 364 l 224 386 q 324 423 267 402 l 467 476 l 515 493 l 526 497 q 543 503 541 501 q 553 512 545 504 q 620 599 595 569 q 713 690 678 669 l 718 692 l 737 672 q 744 665 744 665 q 743 663 744 664 q 742 661 742 663 q 721 633 740 656 q 684 588 702 610 l 641 536 l 645 537 l 707 557 q 946 610 876 610 q 970 608 961 610 q 1019 578 1010 604 q 1022 563 1022 572 q 1006 522 1022 545 q 994 509 1000 513 l 992 507 q 986 510 989 509 q 981 512 983 511 q 979 518 979 513 q 987 547 979 526 q 989 562 989 556 l 989 564 q 949 578 988 577 q 610 489 856 578 l 598 485 l 580 463 q 547 421 554 431 q 416 246 454 302 q 391 203 404 227 q 352 86 352 132 q 363 46 352 62 q 485 9 391 9 q 811 68 606 9 q 1310 250 1030 132 q 1406 285 1364 272 q 1448 299 1447 298 q 1451 299 1449 299 q 1456 297 1454 299 q 1458 292 1458 295 q 1453 285 1458 288 l 1442 279 q 1417 264 1433 273 q 1238 185 1375 239 q 519 -26 751 -8 l 498 -27 m 9 576 l 5 576 l 0 589 q 45 617 10 600 q 133 656 66 629 q 234 698 199 684 l 311 730 l 478 795 q 526 814 507 807 q 848 927 692 878 q 1135 997 1021 981 l 1144 998 q 1212 1002 1173 1002 q 1236 1001 1225 1002 q 1330 966 1300 995 q 1354 905 1354 941 q 1348 868 1354 885 l 1310 868 q 1304 895 1307 879 q 1292 925 1301 916 q 1187 950 1263 950 q 899 901 1080 949 q 841 884 869 893 l 770 863 q 654 825 709 844 l 620 813 q 436 745 544 787 q 123 617 267 680 q 9 576 37 580 m 747 1060 q 726 1075 739 1060 q 673 1125 690 1114 q 662 1135 665 1131 q 658 1143 658 1138 q 659 1147 658 1145 q 673 1162 661 1149 q 691 1177 688 1177 q 705 1169 699 1177 q 716 1155 709 1164 l 732 1133 q 749 1107 743 1115 q 761 1087 758 1094 q 765 1076 765 1081 q 760 1065 765 1069 q 747 1060 754 1060 z "},"É":{"ha":1440,"x_min":0,"x_max":1458,"o":"m 498 -27 l 473 -27 q 341 14 378 -26 q 312 88 312 41 q 339 195 312 134 q 379 270 360 240 q 500 441 417 330 q 503 445 501 443 q 505 448 504 448 q 389 401 500 448 q 277 352 317 370 l 215 323 l 182 309 q 131 295 146 295 q 127 296 129 295 q 121 309 126 297 l 113 330 l 115 332 q 149 355 121 341 q 203 378 167 364 l 224 386 q 324 423 267 402 l 467 476 l 515 493 l 526 497 q 543 503 541 501 q 553 512 545 504 q 620 599 595 569 q 713 690 678 669 l 718 692 l 737 672 q 744 665 744 665 q 743 663 744 664 q 742 661 742 663 q 721 633 740 656 q 684 588 702 610 l 641 536 l 645 537 l 707 557 q 946 610 876 610 q 970 608 961 610 q 1019 578 1010 604 q 1022 563 1022 572 q 1006 522 1022 545 q 994 509 1000 513 l 992 507 q 986 510 989 509 q 981 512 983 511 q 979 518 979 513 q 987 547 979 526 q 989 562 989 556 l 989 564 q 949 578 988 577 q 610 489 856 578 l 598 485 l 580 463 q 547 421 554 431 q 416 246 454 302 q 391 203 404 227 q 352 86 352 132 q 363 46 352 62 q 485 9 391 9 q 811 68 606 9 q 1310 250 1030 132 q 1406 285 1364 272 q 1448 299 1447 298 q 1451 299 1449 299 q 1456 297 1454 299 q 1458 292 1458 295 q 1453 285 1458 288 l 1442 279 q 1417 264 1433 273 q 1238 185 1375 239 q 519 -26 751 -8 l 498 -27 m 9 576 l 5 576 l 0 589 q 45 617 10 600 q 133 656 66 629 q 234 698 199 684 l 311 730 l 478 795 q 526 814 507 807 q 848 927 692 878 q 1135 997 1021 981 l 1144 998 q 1212 1002 1173 1002 q 1236 1001 1225 1002 q 1330 966 1300 995 q 1354 905 1354 941 q 1348 868 1354 885 l 1310 868 q 1304 895 1307 879 q 1292 925 1301 916 q 1187 950 1263 950 q 899 901 1080 949 q 841 884 869 893 l 770 863 q 654 825 709 844 l 620 813 q 436 745 544 787 q 123 617 267 680 q 9 576 37 580 m 710 1066 q 696 1074 701 1066 q 693 1084 693 1078 q 694 1090 693 1087 l 694 1091 q 697 1097 694 1093 q 713 1118 700 1101 q 758 1178 749 1170 q 770 1184 764 1184 q 776 1180 772 1184 q 796 1158 781 1176 q 801 1153 800 1154 q 802 1150 802 1152 q 800 1143 802 1147 q 788 1132 798 1139 l 777 1123 q 744 1092 768 1116 q 720 1069 724 1072 q 710 1066 716 1066 z "},"Ê":{"ha":1440,"x_min":0,"x_max":1458,"o":"m 498 -27 l 473 -27 q 341 14 378 -26 q 312 88 312 41 q 339 195 312 134 q 379 270 360 240 q 500 441 417 330 q 503 445 501 443 q 505 448 504 448 q 389 401 500 448 q 277 352 317 370 l 215 323 l 182 309 q 131 295 146 295 q 127 296 129 295 q 121 309 126 297 l 113 330 l 115 332 q 149 355 121 341 q 203 378 167 364 l 224 386 q 324 423 267 402 l 467 476 l 515 493 l 526 497 q 543 503 541 501 q 553 512 545 504 q 620 599 595 569 q 713 690 678 669 l 718 692 l 737 672 q 744 665 744 665 q 743 663 744 664 q 742 661 742 663 q 721 633 740 656 q 684 588 702 610 l 641 536 l 645 537 l 707 557 q 946 610 876 610 q 970 608 961 610 q 1019 578 1010 604 q 1022 563 1022 572 q 1006 522 1022 545 q 994 509 1000 513 l 992 507 q 986 510 989 509 q 981 512 983 511 q 979 518 979 513 q 987 547 979 526 q 989 562 989 556 l 989 564 q 949 578 988 577 q 610 489 856 578 l 598 485 l 580 463 q 547 421 554 431 q 416 246 454 302 q 391 203 404 227 q 352 86 352 132 q 363 46 352 62 q 485 9 391 9 q 811 68 606 9 q 1310 250 1030 132 q 1406 285 1364 272 q 1448 299 1447 298 q 1451 299 1449 299 q 1456 297 1454 299 q 1458 292 1458 295 q 1453 285 1458 288 l 1442 279 q 1417 264 1433 273 q 1238 185 1375 239 q 519 -26 751 -8 l 498 -27 m 9 576 l 5 576 l 0 589 q 45 617 10 600 q 133 656 66 629 q 234 698 199 684 l 311 730 l 478 795 q 526 814 507 807 q 848 927 692 878 q 1135 997 1021 981 l 1144 998 q 1212 1002 1173 1002 q 1236 1001 1225 1002 q 1330 966 1300 995 q 1354 905 1354 941 q 1348 868 1354 885 l 1310 868 q 1304 895 1307 879 q 1292 925 1301 916 q 1187 950 1263 950 q 899 901 1080 949 q 841 884 869 893 l 770 863 q 654 825 709 844 l 620 813 q 436 745 544 787 q 123 617 267 680 q 9 576 37 580 m 783 1061 l 781 1061 l 779 1063 q 775 1070 777 1065 q 771 1097 774 1074 q 762 1171 767 1135 l 758 1167 q 707 1090 727 1123 l 702 1082 q 686 1067 692 1067 l 682 1069 q 674 1075 679 1072 q 663 1083 669 1079 l 663 1086 q 674 1108 663 1094 q 703 1141 688 1126 q 750 1196 715 1158 q 769 1208 762 1208 l 773 1208 q 781 1198 779 1205 l 789 1136 l 795 1083 l 795 1073 q 793 1064 795 1066 q 788 1062 791 1063 q 783 1061 784 1062 z "},"Ë":{"ha":1440,"x_min":0,"x_max":1458,"o":"m 498 -27 l 473 -27 q 341 14 378 -26 q 312 88 312 41 q 339 195 312 134 q 379 270 360 240 q 500 441 417 330 q 503 445 501 443 q 505 448 504 448 q 389 401 500 448 q 277 352 317 370 l 215 323 l 182 309 q 131 295 146 295 q 127 296 129 295 q 121 309 126 297 l 113 330 l 115 332 q 149 355 121 341 q 203 378 167 364 l 224 386 q 324 423 267 402 l 467 476 l 515 493 l 526 497 q 543 503 541 501 q 553 512 545 504 q 620 599 595 569 q 713 690 678 669 l 718 692 l 737 672 q 744 665 744 665 q 743 663 744 664 q 742 661 742 663 q 721 633 740 656 q 684 588 702 610 l 641 536 l 645 537 l 707 557 q 946 610 876 610 q 970 608 961 610 q 1019 578 1010 604 q 1022 563 1022 572 q 1006 522 1022 545 q 994 509 1000 513 l 992 507 q 986 510 989 509 q 981 512 983 511 q 979 518 979 513 q 987 547 979 526 q 989 562 989 556 l 989 564 q 949 578 988 577 q 610 489 856 578 l 598 485 l 580 463 q 547 421 554 431 q 416 246 454 302 q 391 203 404 227 q 352 86 352 132 q 363 46 352 62 q 485 9 391 9 q 811 68 606 9 q 1310 250 1030 132 q 1406 285 1364 272 q 1448 299 1447 298 q 1451 299 1449 299 q 1456 297 1454 299 q 1458 292 1458 295 q 1453 285 1458 288 l 1442 279 q 1417 264 1433 273 q 1238 185 1375 239 q 519 -26 751 -8 l 498 -27 m 9 576 l 5 576 l 0 589 q 45 617 10 600 q 133 656 66 629 q 234 698 199 684 l 311 730 l 478 795 q 526 814 507 807 q 848 927 692 878 q 1135 997 1021 981 l 1144 998 q 1212 1002 1173 1002 q 1236 1001 1225 1002 q 1330 966 1300 995 q 1354 905 1354 941 q 1348 868 1354 885 l 1310 868 q 1304 895 1307 879 q 1292 925 1301 916 q 1187 950 1263 950 q 899 901 1080 949 q 841 884 869 893 l 770 863 q 654 825 709 844 l 620 813 q 436 745 544 787 q 123 617 267 680 q 9 576 37 580 m 680 1088 q 659 1099 664 1088 q 657 1109 657 1103 q 659 1120 657 1114 q 684 1145 669 1138 q 700 1149 693 1149 q 713 1144 708 1149 q 717 1141 715 1141 q 722 1137 718 1141 q 726 1125 726 1132 q 712 1099 726 1112 q 680 1088 695 1088 m 755 1090 q 746 1091 750 1090 q 738 1096 741 1093 q 733 1104 734 1100 l 732 1111 q 747 1137 732 1123 q 776 1152 761 1152 q 789 1146 783 1152 q 792 1143 791 1143 q 798 1138 794 1143 q 802 1126 802 1133 q 786 1100 802 1112 q 755 1090 769 1090 z "},"Ì":{"ha":551,"x_min":3,"x_max":751,"o":"m 29 -50 q 9 -39 18 -50 q 3 -23 3 -32 q 17 1 3 -7 q 37 8 22 4 q 68 16 53 13 q 125 23 87 19 q 132 24 131 23 q 134 28 134 26 q 151 82 136 50 q 251 340 180 148 q 349 609 307 488 l 397 753 l 423 832 q 463 950 452 923 q 466 960 465 956 q 468 965 467 964 q 467 966 468 966 l 466 966 q 276 927 356 949 q 257 922 263 923 q 237 921 250 921 q 232 922 233 921 q 229 924 231 923 q 220 961 224 943 q 250 978 228 971 q 390 995 277 983 l 505 1006 q 555 1010 522 1007 q 694 1018 652 1018 q 722 1016 715 1018 q 737 1008 729 1014 q 751 994 751 998 q 749 987 751 991 q 745 981 747 982 q 737 979 743 979 q 718 983 730 979 q 683 987 709 987 q 579 980 650 987 q 522 974 525 975 q 520 958 522 966 q 517 943 519 949 q 503 899 514 928 q 445 751 496 884 l 436 726 q 414 669 426 704 l 368 553 l 338 475 q 295 363 330 457 l 242 228 q 181 71 188 85 q 165 28 165 32 l 180 30 q 313 43 271 43 q 365 31 349 43 q 372 23 372 26 q 355 5 372 5 q 338 8 347 5 q 306 12 328 12 q 125 -18 247 12 q 66 -36 73 -31 q 46 -48 60 -45 q 29 -50 38 -50 m 395 1060 q 374 1075 387 1060 q 321 1125 338 1114 q 310 1135 313 1131 q 306 1143 306 1138 q 307 1147 306 1145 q 321 1162 309 1149 q 339 1177 336 1177 q 353 1169 347 1177 q 364 1155 357 1164 l 380 1133 q 397 1107 391 1115 q 409 1087 406 1094 q 413 1076 413 1081 q 408 1065 413 1069 q 395 1060 402 1060 z "},"Í":{"ha":551,"x_min":3,"x_max":751,"o":"m 29 -50 q 9 -39 18 -50 q 3 -23 3 -32 q 17 1 3 -7 q 37 8 22 4 q 68 16 53 13 q 125 23 87 19 q 132 24 131 23 q 134 28 134 26 q 151 82 136 50 q 251 340 180 148 q 349 609 307 488 l 397 753 l 423 832 q 463 950 452 923 q 466 960 465 956 q 468 965 467 964 q 467 966 468 966 l 466 966 q 276 927 356 949 q 257 922 263 923 q 237 921 250 921 q 232 922 233 921 q 229 924 231 923 q 220 961 224 943 q 250 978 228 971 q 390 995 277 983 l 505 1006 q 555 1010 522 1007 q 694 1018 652 1018 q 722 1016 715 1018 q 737 1008 729 1014 q 751 994 751 998 q 749 987 751 991 q 745 981 747 982 q 737 979 743 979 q 718 983 730 979 q 683 987 709 987 q 579 980 650 987 q 522 974 525 975 q 520 958 522 966 q 517 943 519 949 q 503 899 514 928 q 445 751 496 884 l 436 726 q 414 669 426 704 l 368 553 l 338 475 q 295 363 330 457 l 242 228 q 181 71 188 85 q 165 28 165 32 l 180 30 q 313 43 271 43 q 365 31 349 43 q 372 23 372 26 q 355 5 372 5 q 338 8 347 5 q 306 12 328 12 q 125 -18 247 12 q 66 -36 73 -31 q 46 -48 60 -45 q 29 -50 38 -50 m 358 1066 q 345 1074 349 1066 q 341 1084 341 1078 q 342 1090 341 1087 l 342 1091 q 345 1097 342 1093 q 361 1118 348 1101 q 406 1178 397 1170 q 418 1184 412 1184 q 424 1180 420 1184 q 444 1158 429 1176 q 449 1153 448 1154 q 450 1150 450 1152 q 448 1143 450 1147 q 436 1132 446 1139 l 425 1123 q 392 1092 416 1116 q 368 1069 372 1072 q 358 1066 364 1066 z "},"Î":{"ha":551,"x_min":3,"x_max":751,"o":"m 29 -50 q 9 -39 18 -50 q 3 -23 3 -32 q 17 1 3 -7 q 37 8 22 4 q 68 16 53 13 q 125 23 87 19 q 132 24 131 23 q 134 28 134 26 q 151 82 136 50 q 251 340 180 148 q 349 609 307 488 l 397 753 l 423 832 q 463 950 452 923 q 466 960 465 956 q 468 965 467 964 q 467 966 468 966 l 466 966 q 276 927 356 949 q 257 922 263 923 q 237 921 250 921 q 232 922 233 921 q 229 924 231 923 q 220 961 224 943 q 250 978 228 971 q 390 995 277 983 l 505 1006 q 555 1010 522 1007 q 694 1018 652 1018 q 722 1016 715 1018 q 737 1008 729 1014 q 751 994 751 998 q 749 987 751 991 q 745 981 747 982 q 737 979 743 979 q 718 983 730 979 q 683 987 709 987 q 579 980 650 987 q 522 974 525 975 q 520 958 522 966 q 517 943 519 949 q 503 899 514 928 q 445 751 496 884 l 436 726 q 414 669 426 704 l 368 553 l 338 475 q 295 363 330 457 l 242 228 q 181 71 188 85 q 165 28 165 32 l 180 30 q 313 43 271 43 q 365 31 349 43 q 372 23 372 26 q 355 5 372 5 q 338 8 347 5 q 306 12 328 12 q 125 -18 247 12 q 66 -36 73 -31 q 46 -48 60 -45 q 29 -50 38 -50 m 431 1061 l 429 1061 l 427 1063 q 424 1070 425 1065 q 419 1097 422 1074 q 410 1171 415 1135 l 406 1167 q 355 1090 375 1123 l 350 1082 q 334 1067 340 1067 l 330 1069 q 322 1075 327 1072 q 311 1083 317 1079 l 311 1086 q 322 1108 311 1094 q 351 1141 336 1126 q 398 1196 363 1158 q 417 1208 410 1208 l 421 1208 q 429 1198 427 1205 l 437 1136 l 443 1083 l 444 1073 q 441 1064 443 1066 q 436 1062 439 1063 q 431 1061 432 1062 z "},"Ï":{"ha":551,"x_min":3,"x_max":751,"o":"m 29 -50 q 9 -39 18 -50 q 3 -23 3 -32 q 17 1 3 -7 q 37 8 22 4 q 68 16 53 13 q 125 23 87 19 q 132 24 131 23 q 134 28 134 26 q 151 82 136 50 q 251 340 180 148 q 349 609 307 488 l 397 753 l 423 832 q 463 950 452 923 q 466 960 465 956 q 468 965 467 964 q 467 966 468 966 l 466 966 q 276 927 356 949 q 257 922 263 923 q 237 921 250 921 q 232 922 233 921 q 229 924 231 923 q 220 961 224 943 q 250 978 228 971 q 390 995 277 983 l 505 1006 q 555 1010 522 1007 q 694 1018 652 1018 q 722 1016 715 1018 q 737 1008 729 1014 q 751 994 751 998 q 749 987 751 991 q 745 981 747 982 q 737 979 743 979 q 718 983 730 979 q 683 987 709 987 q 579 980 650 987 q 522 974 525 975 q 520 958 522 966 q 517 943 519 949 q 503 899 514 928 q 445 751 496 884 l 436 726 q 414 669 426 704 l 368 553 l 338 475 q 295 363 330 457 l 242 228 q 181 71 188 85 q 165 28 165 32 l 180 30 q 313 43 271 43 q 365 31 349 43 q 372 23 372 26 q 355 5 372 5 q 338 8 347 5 q 306 12 328 12 q 125 -18 247 12 q 66 -36 73 -31 q 46 -48 60 -45 q 29 -50 38 -50 m 328 1088 q 307 1099 312 1088 q 305 1109 305 1103 q 307 1120 305 1114 q 332 1145 317 1138 q 348 1149 341 1149 q 361 1144 356 1149 q 365 1141 363 1141 q 370 1137 366 1141 q 374 1125 374 1132 q 360 1099 374 1112 q 328 1088 343 1088 m 403 1090 q 394 1091 398 1090 q 386 1096 389 1093 q 381 1104 382 1100 l 380 1111 q 395 1137 380 1123 q 424 1152 409 1152 q 437 1146 431 1152 q 440 1143 439 1143 q 446 1138 442 1143 q 450 1126 450 1133 q 434 1100 450 1112 q 403 1090 417 1090 z "},"Ð":{"ha":1378,"x_min":5,"x_max":1348,"o":"m 579 368 l 571 349 q 553 304 561 323 q 545 283 545 285 l 545 283 q 556 287 547 283 q 575 295 565 291 q 592 302 586 299 q 884 371 756 363 q 916 372 898 372 q 944 371 932 372 q 1052 346 1008 367 q 1056 344 1054 345 q 1057 343 1057 344 l 1059 343 q 1059 341 1059 342 q 1058 337 1059 339 q 1057 333 1057 335 q 1056 330 1057 330 q 1055 329 1056 329 q 1052 330 1054 329 q 1049 330 1050 330 q 1047 330 1048 330 l 1046 330 q 1044 330 1046 330 q 1041 331 1043 330 q 1034 332 1038 332 q 1024 334 1030 333 q 985 340 1002 338 q 945 342 968 342 q 909 342 925 342 q 872 339 892 341 q 611 274 749 326 q 576 261 595 269 q 543 247 557 253 q 528 240 529 241 q 521 225 527 239 q 508 193 515 211 q 495 161 500 174 q 478 120 484 133 q 467 98 473 107 q 461 87 465 93 q 455 79 457 81 q 447 75 452 76 q 442 75 444 75 q 437 75 439 75 q 430 82 433 77 q 427 90 427 86 q 429 98 427 94 q 433 111 430 102 q 444 135 437 119 q 458 163 451 150 q 466 178 465 176 q 467 182 466 179 q 468 188 467 184 q 470 197 469 192 q 473 205 471 202 q 474 212 473 209 q 475 214 474 213 l 475 214 q 466 211 473 214 q 448 201 459 207 q 427 189 437 195 q 340 123 376 159 q 294 44 294 77 l 294 41 q 326 -1 296 18 q 402 -23 357 -20 q 421 -23 409 -23 q 440 -22 433 -23 q 636 31 524 -16 q 863 155 748 77 q 1137 395 1027 263 q 1310 761 1310 606 l 1310 764 q 1280 864 1309 821 q 1269 878 1275 871 q 1256 893 1263 885 q 1160 958 1217 933 q 1031 990 1103 983 q 1018 991 1023 991 q 1008 992 1013 991 q 994 992 1002 992 l 973 992 q 713 948 854 992 q 420 810 562 900 q 81 458 182 658 q 75 445 78 452 q 70 433 72 438 q 67 427 67 428 q 66 422 67 427 q 64 412 65 418 q 62 400 63 405 q 61 393 61 395 l 61 388 l 65 388 q 141 410 85 388 q 166 419 150 413 q 198 430 182 425 q 256 451 227 440 q 337 481 286 462 q 374 495 356 488 q 401 505 392 502 q 421 513 409 508 q 444 522 433 517 q 477 533 466 529 q 498 540 488 536 q 543 547 523 547 q 583 527 574 547 q 587 515 586 521 q 588 501 588 510 q 589 494 588 496 l 589 492 l 589 492 q 597 513 591 496 q 610 550 603 530 q 621 580 617 569 q 626 594 623 586 q 632 609 629 602 q 636 621 634 616 q 639 629 638 627 q 640 631 640 629 q 644 642 642 635 q 650 659 646 646 q 657 678 653 667 q 667 704 662 690 q 675 728 672 718 q 683 748 679 737 q 690 766 687 759 q 701 794 696 784 q 707 811 705 805 q 713 825 710 818 q 730 854 722 844 q 735 860 732 857 q 739 863 739 863 q 745 861 740 863 q 757 855 750 859 l 774 848 l 774 842 q 772 829 774 836 q 751 774 766 805 q 725 713 739 745 q 704 667 711 682 q 636 507 670 589 q 621 470 626 483 q 611 447 615 456 q 602 424 607 437 l 593 404 q 628 406 612 405 q 679 410 653 408 q 700 412 692 411 q 711 413 707 412 q 717 413 715 413 q 721 413 719 413 q 734 408 730 412 q 736 406 735 407 q 736 404 736 406 q 736 399 736 402 l 737 391 l 735 389 q 725 383 732 385 q 703 380 718 381 q 579 368 639 376 m 533 401 l 541 430 q 553 475 551 463 q 557 500 557 491 q 556 505 557 503 q 555 509 556 507 q 555 511 555 511 q 545 515 553 515 q 533 514 542 515 q 504 506 524 513 q 489 502 496 504 q 470 494 482 499 q 433 479 457 489 q 389 461 408 469 q 341 441 369 453 q 267 410 314 430 q 257 406 264 409 q 240 399 250 403 l 226 393 q 197 381 208 385 q 177 372 186 376 q 155 363 168 368 q 127 351 137 355 q 106 344 117 347 q 60 334 80 334 q 29 342 42 334 q 5 389 5 358 q 9 415 5 401 q 14 428 11 420 q 20 439 17 435 q 22 447 20 442 q 26 457 24 452 q 148 654 60 555 q 168 674 155 661 q 194 700 180 687 q 215 720 207 713 q 456 889 323 817 q 869 1029 666 1002 q 917 1034 897 1033 q 968 1035 937 1035 q 995 1035 985 1035 q 1013 1034 1004 1035 q 1032 1032 1021 1034 q 1267 937 1177 1017 q 1341 823 1324 887 q 1348 760 1348 792 q 1347 730 1348 745 q 1302 583 1339 662 q 1062 268 1222 419 q 775 63 940 156 q 648 1 713 28 q 454 -53 538 -44 q 437 -54 448 -54 q 416 -54 427 -54 q 401 -54 405 -54 q 334 -39 360 -51 q 263 45 263 -9 l 263 47 q 274 87 264 66 q 322 149 288 117 q 429 227 364 191 q 455 240 440 233 q 479 253 469 248 l 489 257 l 490 261 q 492 268 491 263 q 496 281 494 273 l 498 286 q 520 357 508 317 q 521 361 520 359 q 515 360 518 360 q 446 351 463 353 q 430 350 439 350 l 417 350 q 407 353 411 351 q 401 358 402 355 q 401 364 401 359 q 401 377 401 370 q 402 390 401 384 q 403 397 403 395 q 414 404 405 401 q 424 406 419 406 q 434 404 429 406 q 459 402 444 403 q 508 401 474 401 l 533 401 z "},"Ñ":{"ha":1883,"x_min":0,"x_max":1896,"o":"m 684 -35 l 669 -24 q 665 -28 668 -24 l 653 -21 l 654 -20 q 655 -16 654 -18 q 654 -14 654 -15 q 653 -12 653 -14 q 677 35 659 4 l 773 202 q 974 614 910 445 q 1027 838 1027 752 q 1003 920 1027 895 q 941 942 983 941 q 726 867 863 942 q 223 457 465 716 q 124 336 167 395 q 47 214 86 283 l 39 201 q 35 197 37 198 l 0 211 q 1 215 0 213 q 1 218 1 216 q 4 230 1 220 q 285 589 39 361 q 764 929 541 823 q 938 978 870 978 q 1012 958 983 978 q 1061 841 1061 924 q 836 252 1061 663 l 836 249 l 903 328 q 1381 674 1204 674 q 1444 653 1421 674 q 1468 589 1468 631 q 1447 486 1468 549 q 1408 380 1434 450 q 1374 288 1384 320 q 1350 176 1350 220 q 1360 135 1350 149 q 1412 116 1374 116 q 1666 193 1495 116 q 1778 245 1685 203 q 1880 292 1872 288 q 1889 294 1884 294 q 1896 288 1896 294 q 1889 277 1896 281 q 1689 171 1758 205 l 1640 147 q 1421 84 1495 86 l 1413 84 q 1323 140 1341 84 q 1318 177 1318 155 q 1340 286 1318 218 q 1379 398 1352 326 q 1417 503 1405 466 q 1432 586 1432 555 q 1431 606 1432 597 q 1398 636 1426 633 q 1381 637 1395 637 q 1342 633 1360 637 q 1215 569 1285 618 q 775 81 1025 433 q 700 -18 724 7 q 684 -35 685 -35 m 903 1085 q 879 1109 899 1085 q 874 1116 874 1114 q 882 1127 874 1122 l 884 1129 q 908 1142 895 1137 q 921 1143 913 1143 q 937 1141 930 1143 q 956 1133 943 1139 q 978 1124 972 1124 q 982 1125 980 1124 q 992 1131 985 1126 q 1000 1137 997 1135 q 1007 1139 1003 1139 q 1012 1137 1010 1139 q 1018 1131 1014 1136 q 1021 1122 1021 1126 q 1020 1118 1021 1120 q 1013 1111 1019 1115 q 994 1100 1000 1103 q 976 1097 987 1097 q 956 1100 966 1097 q 930 1107 935 1107 q 926 1106 927 1107 q 922 1102 924 1105 q 917 1097 919 1099 q 903 1085 909 1085 z "},"Ò":{"ha":1295,"x_min":9,"x_max":1273,"o":"m 341 -39 q 159 -2 236 -38 q 43 101 81 33 q 9 244 9 165 q 18 325 9 283 q 90 505 37 414 q 142 585 110 540 q 288 733 202 663 q 696 918 479 885 q 792 926 747 926 l 806 932 q 1045 994 942 994 q 1188 953 1129 994 q 1273 783 1273 892 q 1270 734 1273 759 q 1204 551 1256 643 q 920 222 1108 386 q 659 45 791 112 q 386 -37 517 -26 q 341 -39 366 -39 m 363 0 l 383 1 q 777 157 571 18 q 1164 548 1022 329 q 1230 699 1208 620 q 1241 776 1241 738 l 1241 782 q 1171 927 1241 877 q 1045 963 1120 963 q 878 928 970 963 q 865 922 865 924 q 871 922 865 922 q 940 911 905 918 q 1079 863 1025 892 l 1066 828 l 1063 828 q 1057 829 1061 829 q 1021 839 1050 831 q 848 869 931 865 q 802 870 835 870 q 747 867 774 870 l 737 863 q 388 563 525 743 q 300 408 328 483 q 289 351 289 376 q 313 298 289 315 q 384 278 334 283 q 390 277 387 278 q 401 276 393 276 q 400 264 401 267 l 400 261 l 367 260 q 313 269 334 260 q 260 336 268 287 q 258 355 258 345 q 328 533 258 425 q 639 839 443 707 q 650 847 645 843 q 658 852 656 850 q 663 854 661 853 l 664 856 l 627 848 q 414 758 517 820 q 193 572 284 680 q 159 528 178 553 q 60 313 83 419 q 52 239 53 279 q 138 55 52 118 q 340 0 213 2 l 363 0 m 1058 1060 q 1037 1075 1050 1060 q 984 1125 1001 1114 q 972 1135 976 1131 q 968 1143 968 1138 q 970 1147 968 1145 q 983 1162 971 1149 q 1002 1177 998 1177 q 1016 1169 1009 1177 q 1027 1155 1020 1164 l 1042 1133 q 1059 1107 1053 1115 q 1072 1087 1068 1094 q 1076 1076 1076 1081 q 1070 1065 1076 1069 q 1058 1060 1065 1060 z "},"Ó":{"ha":1295,"x_min":9,"x_max":1273,"o":"m 341 -39 q 159 -2 236 -38 q 43 101 81 33 q 9 244 9 165 q 18 325 9 283 q 90 505 37 414 q 142 585 110 540 q 288 733 202 663 q 696 918 479 885 q 792 926 747 926 l 806 932 q 1045 994 942 994 q 1188 953 1129 994 q 1273 783 1273 892 q 1270 734 1273 759 q 1204 551 1256 643 q 920 222 1108 386 q 659 45 791 112 q 386 -37 517 -26 q 341 -39 366 -39 m 363 0 l 383 1 q 777 157 571 18 q 1164 548 1022 329 q 1230 699 1208 620 q 1241 776 1241 738 l 1241 782 q 1171 927 1241 877 q 1045 963 1120 963 q 878 928 970 963 q 865 922 865 924 q 871 922 865 922 q 940 911 905 918 q 1079 863 1025 892 l 1066 828 l 1063 828 q 1057 829 1061 829 q 1021 839 1050 831 q 848 869 931 865 q 802 870 835 870 q 747 867 774 870 l 737 863 q 388 563 525 743 q 300 408 328 483 q 289 351 289 376 q 313 298 289 315 q 384 278 334 283 q 390 277 387 278 q 401 276 393 276 q 400 264 401 267 l 400 261 l 367 260 q 313 269 334 260 q 260 336 268 287 q 258 355 258 345 q 328 533 258 425 q 639 839 443 707 q 650 847 645 843 q 658 852 656 850 q 663 854 661 853 l 664 856 l 627 848 q 414 758 517 820 q 193 572 284 680 q 159 528 178 553 q 60 313 83 419 q 52 239 53 279 q 138 55 52 118 q 340 0 213 2 l 363 0 m 1021 1066 q 1007 1074 1012 1066 q 1004 1084 1004 1078 q 1004 1090 1004 1087 l 1005 1091 q 1008 1097 1005 1093 q 1023 1118 1010 1101 q 1069 1178 1059 1170 q 1080 1184 1075 1184 q 1087 1180 1082 1184 q 1107 1158 1091 1176 q 1112 1153 1111 1154 q 1112 1150 1112 1152 q 1111 1143 1112 1147 q 1099 1132 1109 1139 l 1087 1123 q 1055 1092 1078 1116 q 1031 1069 1035 1072 q 1021 1066 1027 1066 z "},"Ô":{"ha":1295,"x_min":9,"x_max":1273,"o":"m 341 -39 q 159 -2 236 -38 q 43 101 81 33 q 9 244 9 165 q 18 325 9 283 q 90 505 37 414 q 142 585 110 540 q 288 733 202 663 q 696 918 479 885 q 792 926 747 926 l 806 932 q 1045 994 942 994 q 1188 953 1129 994 q 1273 783 1273 892 q 1270 734 1273 759 q 1204 551 1256 643 q 920 222 1108 386 q 659 45 791 112 q 386 -37 517 -26 q 341 -39 366 -39 m 363 0 l 383 1 q 777 157 571 18 q 1164 548 1022 329 q 1230 699 1208 620 q 1241 776 1241 738 l 1241 782 q 1171 927 1241 877 q 1045 963 1120 963 q 878 928 970 963 q 865 922 865 924 q 871 922 865 922 q 940 911 905 918 q 1079 863 1025 892 l 1066 828 l 1063 828 q 1057 829 1061 829 q 1021 839 1050 831 q 848 869 931 865 q 802 870 835 870 q 747 867 774 870 l 737 863 q 388 563 525 743 q 300 408 328 483 q 289 351 289 376 q 313 298 289 315 q 384 278 334 283 q 390 277 387 278 q 401 276 393 276 q 400 264 401 267 l 400 261 l 367 260 q 313 269 334 260 q 260 336 268 287 q 258 355 258 345 q 328 533 258 425 q 639 839 443 707 q 650 847 645 843 q 658 852 656 850 q 663 854 661 853 l 664 856 l 627 848 q 414 758 517 820 q 193 572 284 680 q 159 528 178 553 q 60 313 83 419 q 52 239 53 279 q 138 55 52 118 q 340 0 213 2 l 363 0 m 1093 1061 l 1092 1061 l 1090 1063 q 1086 1070 1088 1065 q 1082 1097 1084 1074 q 1072 1171 1078 1135 l 1069 1167 q 1017 1090 1038 1123 l 1013 1082 q 996 1067 1003 1067 l 993 1069 q 984 1075 989 1072 q 974 1083 979 1079 l 973 1086 q 985 1108 973 1094 q 1013 1141 999 1126 q 1061 1196 1025 1158 q 1080 1208 1072 1208 l 1084 1208 q 1092 1198 1090 1205 l 1099 1136 l 1105 1083 l 1106 1073 q 1104 1064 1105 1066 q 1098 1062 1102 1063 q 1093 1061 1095 1062 z "},"Õ":{"ha":1295,"x_min":9,"x_max":1273,"o":"m 341 -39 q 159 -2 236 -38 q 43 101 81 33 q 9 244 9 165 q 18 325 9 283 q 90 505 37 414 q 142 585 110 540 q 288 733 202 663 q 696 918 479 885 q 792 926 747 926 l 806 932 q 1045 994 942 994 q 1188 953 1129 994 q 1273 783 1273 892 q 1270 734 1273 759 q 1204 551 1256 643 q 920 222 1108 386 q 659 45 791 112 q 386 -37 517 -26 q 341 -39 366 -39 m 363 0 l 383 1 q 777 157 571 18 q 1164 548 1022 329 q 1230 699 1208 620 q 1241 776 1241 738 l 1241 782 q 1171 927 1241 877 q 1045 963 1120 963 q 878 928 970 963 q 865 922 865 924 q 871 922 865 922 q 940 911 905 918 q 1079 863 1025 892 l 1066 828 l 1063 828 q 1057 829 1061 829 q 1021 839 1050 831 q 848 869 931 865 q 802 870 835 870 q 747 867 774 870 l 737 863 q 388 563 525 743 q 300 408 328 483 q 289 351 289 376 q 313 298 289 315 q 384 278 334 283 q 390 277 387 278 q 401 276 393 276 q 400 264 401 267 l 400 261 l 367 260 q 313 269 334 260 q 260 336 268 287 q 258 355 258 345 q 328 533 258 425 q 639 839 443 707 q 650 847 645 843 q 658 852 656 850 q 663 854 661 853 l 664 856 l 627 848 q 414 758 517 820 q 193 572 284 680 q 159 528 178 553 q 60 313 83 419 q 52 239 53 279 q 138 55 52 118 q 340 0 213 2 l 363 0 m 995 1085 q 970 1109 990 1085 q 966 1116 966 1114 q 973 1127 966 1122 l 976 1129 q 1000 1142 986 1137 q 1013 1143 1004 1143 q 1028 1141 1022 1143 q 1048 1133 1035 1139 q 1069 1124 1064 1124 q 1074 1125 1072 1124 q 1084 1131 1076 1126 q 1092 1137 1088 1135 q 1099 1139 1095 1139 q 1104 1137 1102 1139 q 1109 1131 1105 1136 q 1113 1122 1113 1126 q 1112 1118 1113 1120 q 1104 1111 1110 1115 q 1085 1100 1092 1103 q 1067 1097 1078 1097 q 1048 1100 1058 1097 q 1021 1107 1026 1107 q 1017 1106 1019 1107 q 1013 1102 1016 1105 q 1008 1097 1010 1099 q 995 1085 1000 1085 z "},"Ö":{"ha":1295,"x_min":9,"x_max":1273,"o":"m 341 -39 q 159 -2 236 -38 q 43 101 81 33 q 9 244 9 165 q 18 325 9 283 q 90 505 37 414 q 142 585 110 540 q 288 733 202 663 q 696 918 479 885 q 792 926 747 926 l 806 932 q 1045 994 942 994 q 1188 953 1129 994 q 1273 783 1273 892 q 1270 734 1273 759 q 1204 551 1256 643 q 920 222 1108 386 q 659 45 791 112 q 386 -37 517 -26 q 341 -39 366 -39 m 363 0 l 383 1 q 777 157 571 18 q 1164 548 1022 329 q 1230 699 1208 620 q 1241 776 1241 738 l 1241 782 q 1171 927 1241 877 q 1045 963 1120 963 q 878 928 970 963 q 865 922 865 924 q 871 922 865 922 q 940 911 905 918 q 1079 863 1025 892 l 1066 828 l 1063 828 q 1057 829 1061 829 q 1021 839 1050 831 q 848 869 931 865 q 802 870 835 870 q 747 867 774 870 l 737 863 q 388 563 525 743 q 300 408 328 483 q 289 351 289 376 q 313 298 289 315 q 384 278 334 283 q 390 277 387 278 q 401 276 393 276 q 400 264 401 267 l 400 261 l 367 260 q 313 269 334 260 q 260 336 268 287 q 258 355 258 345 q 328 533 258 425 q 639 839 443 707 q 650 847 645 843 q 658 852 656 850 q 663 854 661 853 l 664 856 l 627 848 q 414 758 517 820 q 193 572 284 680 q 159 528 178 553 q 60 313 83 419 q 52 239 53 279 q 138 55 52 118 q 340 0 213 2 l 363 0 m 990 1088 q 969 1099 975 1088 q 968 1109 968 1103 q 970 1120 968 1114 q 994 1145 980 1138 q 1010 1149 1004 1149 q 1024 1144 1019 1149 q 1027 1141 1026 1141 q 1033 1137 1029 1141 q 1037 1125 1037 1132 q 1023 1099 1037 1112 q 990 1088 1006 1088 m 1065 1090 q 1056 1091 1061 1090 q 1048 1096 1052 1093 q 1044 1104 1045 1100 l 1043 1111 q 1057 1137 1043 1123 q 1086 1152 1072 1152 q 1099 1146 1094 1152 q 1103 1143 1101 1143 q 1108 1138 1105 1143 q 1112 1126 1112 1133 q 1097 1100 1112 1112 q 1065 1090 1080 1090 z "},"Ø":{"ha":1295,"x_min":9,"x_max":1273,"o":"m 318 267 q 216 86 262 171 q 186 28 199 55 q 326 0 244 4 l 332 0 q 346 0 337 0 q 366 0 354 0 q 383 1 377 1 q 512 26 448 6 q 777 157 642 65 q 1164 548 1022 329 q 1230 699 1208 620 q 1241 778 1241 741 l 1241 784 q 1171 927 1241 877 q 1071 962 1130 956 q 1045 962 1062 962 q 1019 962 1028 962 q 878 928 952 956 q 866 924 867 924 l 866 923 q 871 922 866 922 q 903 918 883 921 q 940 911 923 914 q 1070 868 1015 895 l 1079 863 l 1073 846 q 1068 833 1070 838 q 1067 830 1067 831 q 1066 829 1067 829 l 1066 828 l 1063 828 q 1060 829 1062 829 q 1057 829 1059 829 q 1021 839 1050 831 q 848 869 931 864 q 825 870 840 869 q 796 870 810 870 q 776 869 782 870 q 769 869 774 869 q 759 869 764 869 l 747 867 l 737 863 q 654 812 694 838 q 492 559 571 685 q 330 289 403 414 q 364 281 345 283 q 378 279 374 279 q 385 278 382 278 q 389 277 387 277 q 393 276 391 277 q 397 276 395 276 l 401 276 l 401 272 q 401 268 401 271 q 400 264 401 266 l 400 261 l 395 261 q 369 260 381 260 q 318 267 338 260 m 728 922 q 781 926 753 925 l 792 926 l 806 932 q 1045 994 942 994 q 1102 989 1075 994 q 1188 953 1150 980 q 1270 824 1256 905 q 1273 783 1273 804 q 1270 734 1273 760 q 1204 551 1255 643 q 920 222 1107 386 q 659 45 791 112 q 386 -37 517 -26 q 369 -39 380 -38 q 349 -39 359 -39 l 326 -39 q 168 -7 237 -36 q 139 -68 153 -37 q 118 -112 125 -98 q 105 -134 111 -127 q 102 -138 104 -136 q 99 -140 100 -140 l 98 -142 q 95 -140 97 -142 q 92 -137 94 -139 l 85 -133 l 86 -127 q 90 -105 87 -119 q 99 -77 94 -92 q 138 7 109 -50 q 43 101 76 42 q 9 243 9 165 q 18 325 9 282 q 90 505 37 414 q 115 546 100 523 q 142 585 130 568 q 288 733 202 663 q 652 910 459 869 q 661 925 659 921 q 669 939 663 928 q 682 960 675 949 q 751 1058 732 1044 l 752 1058 q 756 1060 754 1060 q 761 1057 758 1060 q 770 1044 764 1053 l 770 1043 l 784 1025 l 783 1021 q 770 989 781 1009 q 753 960 763 975 q 728 922 744 945 m 302 309 q 345 383 326 353 q 355 401 347 389 q 370 427 362 414 q 385 455 377 441 q 398 477 393 469 q 478 615 458 581 l 485 628 q 496 648 493 640 q 524 693 506 663 q 544 728 534 710 q 388 563 456 653 q 309 431 334 492 q 300 408 304 418 q 294 387 297 398 q 289 350 289 366 q 299 311 289 326 l 302 309 m 589 804 q 612 844 598 821 q 414 758 510 816 q 193 572 284 680 q 160 528 178 553 q 127 479 142 502 q 60 313 77 394 q 55 282 56 296 q 52 252 53 268 l 52 241 q 89 106 52 161 q 138 55 109 77 q 157 43 147 49 q 231 182 186 101 q 288 283 256 228 q 260 336 265 302 q 258 355 258 345 q 328 533 258 427 q 589 804 428 684 z "},"Š":{"ha":1506,"x_min":4,"x_max":1485,"o":"m 86 -12 q 14 8 30 -9 q 4 31 4 18 q 45 85 4 56 q 263 197 114 136 q 672 337 448 273 q 1082 432 896 401 q 1259 448 1190 448 q 1272 449 1272 448 q 1263 455 1272 450 q 1126 486 1225 477 q 1054 491 1090 490 q 932 492 1017 492 q 817 491 868 492 q 663 488 765 490 l 630 488 q 592 486 608 487 q 544 486 575 486 q 479 486 513 486 l 418 486 q 195 519 243 487 q 166 564 166 537 q 179 602 166 582 q 215 641 190 617 q 528 833 323 745 q 1122 993 804 947 q 1301 1007 1225 1007 q 1476 960 1443 1007 q 1485 930 1485 947 q 1455 873 1484 903 l 1444 863 l 1421 882 q 1415 888 1415 886 q 1415 889 1415 888 q 1430 913 1415 891 q 1436 927 1436 924 q 1422 937 1436 932 q 1358 949 1398 947 q 1303 951 1345 951 q 972 913 1166 951 q 400 718 632 846 q 238 601 300 662 q 211 565 211 574 q 248 545 211 554 q 505 526 313 526 q 692 528 557 526 l 807 530 q 905 530 832 530 q 1261 495 1189 530 q 1314 452 1301 479 q 1316 448 1316 450 q 1320 446 1317 446 q 1360 437 1337 445 q 1400 416 1400 425 q 1398 411 1400 413 q 1393 408 1396 408 l 1371 412 q 1320 418 1337 418 l 1318 412 q 1234 311 1307 366 q 854 141 1114 226 q 463 37 660 79 q 131 -11 267 -4 l 86 -12 m 104 20 l 127 20 q 721 135 363 34 q 1215 340 1069 236 q 1280 408 1265 376 q 1284 417 1284 415 q 1284 420 1284 419 l 1273 420 q 600 283 1016 408 q 62 59 208 161 q 44 43 52 52 q 36 31 36 35 q 39 28 36 30 q 104 20 58 20 m 705 1038 q 696 1042 699 1038 q 692 1057 693 1046 l 688 1090 q 682 1134 686 1102 q 678 1172 678 1166 q 681 1183 678 1181 q 690 1185 684 1185 q 699 1175 696 1185 q 703 1147 700 1170 q 712 1076 709 1086 q 732 1103 713 1076 q 771 1162 747 1123 l 777 1172 q 787 1179 783 1179 q 791 1178 789 1179 q 810 1165 793 1177 l 810 1158 q 808 1150 810 1154 q 791 1128 807 1146 q 716 1043 724 1050 q 705 1038 710 1038 z "},"Ù":{"ha":1361,"x_min":3,"x_max":1566,"o":"m 1017 -110 l 1016 -110 q 1011 -109 1015 -110 q 1002 -108 1007 -108 l 1002 -105 q 1000 -86 1000 -100 q 1016 3 1000 -53 q 1197 413 1065 177 q 1276 545 1257 517 l 1268 537 q 1196 464 1236 503 q 764 94 953 220 q 654 28 705 54 q 543 -7 585 -6 l 538 -7 q 491 10 506 -7 q 473 60 473 27 q 518 200 473 111 q 667 435 562 289 q 752 566 722 511 q 821 771 821 690 q 772 867 821 838 q 677 890 736 890 q 639 888 654 890 q 373 797 513 873 q 66 538 210 707 l 33 500 q 14 513 15 513 q 3 525 3 522 q 8 536 3 529 l 9 539 q 75 629 33 580 q 215 757 134 697 q 623 932 423 908 q 670 935 644 935 q 695 934 685 935 q 718 932 706 933 q 860 806 841 911 q 863 774 863 791 q 718 442 863 645 l 688 402 q 507 59 507 153 q 511 37 507 45 q 527 26 515 28 q 539 26 530 26 q 718 102 599 26 q 1164 476 912 225 q 1341 663 1239 551 q 1379 703 1368 692 q 1409 739 1398 724 q 1539 869 1503 863 q 1547 863 1541 869 q 1566 841 1552 857 l 1564 838 q 1507 772 1560 827 q 1455 716 1479 745 l 1443 702 q 1410 661 1436 694 q 1187 325 1290 511 q 1040 -33 1078 127 q 1025 -90 1029 -79 q 1019 -107 1020 -107 q 1017 -108 1017 -107 q 1017 -110 1017 -109 m 803 978 q 782 993 795 978 q 729 1043 746 1031 q 717 1053 721 1049 q 713 1061 713 1056 q 715 1065 713 1063 q 728 1080 716 1067 q 747 1095 743 1095 q 761 1087 754 1095 q 772 1073 765 1082 l 787 1050 q 804 1025 798 1033 q 817 1005 813 1012 q 821 994 821 999 q 815 983 821 987 q 803 978 810 978 z "},"Ú":{"ha":1361,"x_min":3,"x_max":1566,"o":"m 1017 -110 l 1016 -110 q 1011 -109 1015 -110 q 1002 -108 1007 -108 l 1002 -105 q 1000 -86 1000 -100 q 1016 3 1000 -53 q 1197 413 1065 177 q 1276 545 1257 517 l 1268 537 q 1196 464 1236 503 q 764 94 953 220 q 654 28 705 54 q 543 -7 585 -6 l 538 -7 q 491 10 506 -7 q 473 60 473 27 q 518 200 473 111 q 667 435 562 289 q 752 566 722 511 q 821 771 821 690 q 772 867 821 838 q 677 890 736 890 q 639 888 654 890 q 373 797 513 873 q 66 538 210 707 l 33 500 q 14 513 15 513 q 3 525 3 522 q 8 536 3 529 l 9 539 q 75 629 33 580 q 215 757 134 697 q 623 932 423 908 q 670 935 644 935 q 695 934 685 935 q 718 932 706 933 q 860 806 841 911 q 863 774 863 791 q 718 442 863 645 l 688 402 q 507 59 507 153 q 511 37 507 45 q 527 26 515 28 q 539 26 530 26 q 718 102 599 26 q 1164 476 912 225 q 1341 663 1239 551 q 1379 703 1368 692 q 1409 739 1398 724 q 1539 869 1503 863 q 1547 863 1541 869 q 1566 841 1552 857 l 1564 838 q 1507 772 1560 827 q 1455 716 1479 745 l 1443 702 q 1410 661 1436 694 q 1187 325 1290 511 q 1040 -33 1078 127 q 1025 -90 1029 -79 q 1019 -107 1020 -107 q 1017 -108 1017 -107 q 1017 -110 1017 -109 m 766 984 q 752 991 757 984 q 749 1002 749 996 q 749 1008 749 1005 l 750 1009 q 753 1015 750 1010 q 768 1036 755 1019 q 814 1096 804 1088 q 825 1102 820 1102 q 832 1098 827 1102 q 852 1076 836 1094 q 857 1071 856 1072 q 857 1068 857 1070 q 856 1061 857 1065 q 844 1050 854 1057 l 832 1041 q 800 1010 823 1034 q 776 987 780 989 q 766 984 772 984 z "},"Û":{"ha":1361,"x_min":3,"x_max":1566,"o":"m 1017 -110 l 1016 -110 q 1011 -109 1015 -110 q 1002 -108 1007 -108 l 1002 -105 q 1000 -86 1000 -100 q 1016 3 1000 -53 q 1197 413 1065 177 q 1276 545 1257 517 l 1268 537 q 1196 464 1236 503 q 764 94 953 220 q 654 28 705 54 q 543 -7 585 -6 l 538 -7 q 491 10 506 -7 q 473 60 473 27 q 518 200 473 111 q 667 435 562 289 q 752 566 722 511 q 821 771 821 690 q 772 867 821 838 q 677 890 736 890 q 639 888 654 890 q 373 797 513 873 q 66 538 210 707 l 33 500 q 14 513 15 513 q 3 525 3 522 q 8 536 3 529 l 9 539 q 75 629 33 580 q 215 757 134 697 q 623 932 423 908 q 670 935 644 935 q 695 934 685 935 q 718 932 706 933 q 860 806 841 911 q 863 774 863 791 q 718 442 863 645 l 688 402 q 507 59 507 153 q 511 37 507 45 q 527 26 515 28 q 539 26 530 26 q 718 102 599 26 q 1164 476 912 225 q 1341 663 1239 551 q 1379 703 1368 692 q 1409 739 1398 724 q 1539 869 1503 863 q 1547 863 1541 869 q 1566 841 1552 857 l 1564 838 q 1507 772 1560 827 q 1455 716 1479 745 l 1443 702 q 1410 661 1436 694 q 1187 325 1290 511 q 1040 -33 1078 127 q 1025 -90 1029 -79 q 1019 -107 1020 -107 q 1017 -108 1017 -107 q 1017 -110 1017 -109 m 838 979 l 837 979 l 835 981 q 831 988 833 983 q 827 1015 829 992 q 817 1088 823 1053 l 814 1085 q 762 1008 783 1041 l 758 1000 q 741 985 748 985 l 738 987 q 729 993 734 989 q 719 1001 724 997 l 718 1004 q 730 1026 718 1012 q 758 1059 744 1044 q 806 1114 770 1076 q 825 1126 817 1126 l 829 1126 q 837 1116 835 1123 l 844 1054 l 850 1001 l 851 991 q 849 982 850 984 q 843 980 847 981 q 838 979 840 980 z "}}}
